<?xml version="1.0" encoding="UTF-8"?>
<svg id="Capa_2" data-name="Capa 2" xmlns="http://www.w3.org/2000/svg" viewBox="0 0 151.38 180">
  <defs>
    <style>
      .cls-1 {
        fill: #e26088;
      }
    </style>
  </defs>
  <g id="Capa_1-2" data-name="Capa 1">
    <g>
      <path class="cls-1" d="M120,64.7c-.25-.26-.55-.46-.88-.6-3.05-1.53-6.19-3.05-9.6-3.73-3.41-.68-8.36-1.53-11.21-.56-3.94,1.29-.68,4.3,1.33,6.91,7.43-.96,15.06.36,22.18,2.89-.48-1.37-.92-2.73-1.41-4.06-.09-.3-.22-.59-.4-.84Z"/>
      <path class="cls-1" d="M50.56,88.57c.16.2.31.41.43.64.12.23.22.47.29.71.07.25.12.5.15.76.02.26.02.51,0,.77-.03.26-.08.51-.15.76-.08.25-.17.48-.3.71-.12.23-.27.44-.43.64-.16.2-.35.38-.55.54-.2.16-.41.31-.64.43-.23.12-.47.22-.71.29-.25.07-.5.12-.76.15-.26.02-.51.02-.77,0-.26-.03-.51-.08-.76-.15-.25-.08-.48-.17-.71-.3-.23-.12-.44-.27-.64-.43-.2-.16-.38-.35-.55-.55-.16-.2-.31-.41-.43-.64-.12-.23-.22-.47-.29-.71-.07-.25-.12-.5-.15-.76-.02-.26-.02-.51,0-.77.03-.26.08-.51.15-.76.08-.25.17-.48.3-.71.12-.23.27-.44.43-.64.16-.2.35-.38.55-.54.2-.16.41-.31.64-.43.23-.12.47-.22.71-.29.25-.07.5-.12.76-.15.26-.02.51-.02.77,0,.26.03.51.08.76.15.25.08.48.17.71.3.23.12.44.27.64.43.2.16.38.35.55.55Z"/>
      <path class="cls-1" d="M28.21,81.85c-.84-.6-2.53.36-3.82,2.13s-1.61,3.69-.8,4.3c.8.6,2.57-.36,3.82-2.13,1.25-1.77,1.65-3.69.8-4.3Z"/>
      <path class="cls-1" d="M18.77,113.95c.12.01.24.05.35.11.11.06.22.14.32.24.1.1.2.23.28.37s.16.31.23.48c.07.18.13.37.17.58.05.21.08.42.11.65.02.23.04.46.04.7,0,.24-.01.48-.04.72-.02.24-.06.48-.11.71-.05.23-.11.46-.17.68-.07.22-.15.42-.23.62-.09.19-.18.37-.28.53-.1.16-.21.31-.32.43-.11.12-.23.23-.35.31-.12.08-.24.14-.37.17-.12.04-.25.05-.37.03-.12-.01-.24-.05-.35-.11-.11-.06-.22-.14-.32-.24-.1-.1-.2-.23-.28-.37s-.16-.31-.23-.48c-.07-.18-.13-.37-.17-.58-.05-.21-.08-.42-.11-.65-.02-.23-.04-.46-.04-.7,0-.24.01-.48.04-.72s.06-.48.11-.71c.05-.23.11-.46.17-.68.07-.22.15-.42.23-.62.09-.19.18-.37.28-.53.1-.16.21-.31.32-.43.11-.12.23-.23.35-.31.12-.08.24-.14.37-.17.12-.04.25-.05.37-.03Z"/>
      <path class="cls-1" d="M7.84,109.67c-.88.04-1.57,1.53-1.53,3.33.04,1.81.84,3.21,1.73,3.17s1.57-1.49,1.53-3.29-.84-3.21-1.73-3.21Z"/>
      <path class="cls-1" d="M106.75,5.35c.78-.15,1.57-.22,2.37-.2-2.26,1.35-4.05,3.16-5.38,5.42l-4.14-.44c1.73-2.37,4.06-4.14,7.15-4.78ZM128.64,19.6c.52,6.67-1.25,15.62-7.11,19.76-3.98,2.77-9.12,2.33-12.86-.68-4.98-3.98-6.27-10.64-5.74-16.71.76-7.95,5.3-16.83,14.46-16.02,6.87.76,10.73,7.23,11.25,13.65ZM101.28,37.75c-1.18-1.01-2.17-2.17-2.97-3.49l3.66-.68c.83,2.18,2.05,4.12,3.66,5.82l.84.76c-1.94-.35-3.67-1.15-5.18-2.41h0ZM96.3,18.04h.36c1.4-.1,2.76.06,4.1.48-.44,2.23-.6,4.48-.48,6.75l-3.98.12c-.22,0-.41.08-.56.24-.17-2.56.02-5.09.56-7.59ZM97.51,32.77c-.87-1.84-1.42-3.76-1.65-5.78.13.09.28.13.44.12l4.1-.12c.17,1.68.5,3.33,1,4.94l-3.58.72c-.12,0-.23.04-.32.12ZM98.59,11.69h.2l4.06.44c-.73,1.49-1.31,3.05-1.73,4.66-1.44-.44-2.92-.6-4.42-.48.44-1.62,1.07-3.16,1.89-4.62ZM98.59,38.76c1.64,1.65,3.55,2.87,5.74,3.65,2.61.88,5.46.72,8.2,1h.08c1.43.36,2.89.46,4.36.31s2.87-.55,4.2-1.19c7.35-3.53,9.96-13.01,10.08-20.48.16-8.71-4.46-17.63-13.86-18.67l-1.08-.08c-3.25-.36-6.63-1.04-9.88-.48-4.14.72-7.55,3.53-9.72,7.07-5.1,8.39-5.34,21.6,1.89,28.87Z"/>
      <path class="cls-1" d="M116.23,11.53c-.08.64-.16,1.33-.2,1.97-.41.08-.78.25-1.12.48-2.17,1.29-2.45,4.22-1.08,6.18,1.37,1.97,4.98,2.77,5.95,5.46.11.34.17.68.19,1.03.01.35-.03.7-.12,1.04-.09.34-.23.66-.41.97-.18.3-.4.57-.67.81-.64.6-5.18,2.61-4.94.32.16-1.65-2.41-1.61-2.57,0-.24,2.25,1.61,3.29,3.54,3.49-.04.84-.04,1.69-.08,2.53-.04,1.65,2.49,1.65,2.57,0,.04-.92.04-1.81.08-2.73,2.53-.72,4.7-2.73,5.1-5.38.4-2.65-1.16-5.14-3.37-6.63-1.25-.84-3.25-1.61-3.54-3.25-.28-1.65,2.17-2.57,3.33-1.37s2.97-.64,1.81-1.81c-.58-.6-1.28-1-2.09-1.2.04-.64.12-1.29.2-1.93,0-.17-.04-.33-.11-.49-.07-.16-.16-.29-.28-.41-.12-.12-.26-.21-.41-.28-.16-.07-.32-.1-.49-.11-.17,0-.33.03-.49.1s-.3.16-.42.28c-.12.12-.21.26-.28.42-.07.16-.1.32-.1.49Z"/>
      <path class="cls-1" d="M86.3,9.68c.38-1.42.95-2.76,1.69-4.03s1.64-2.41,2.69-3.44c.76-.8-.44-2.01-1.21-1.24-1.16,1.14-2.15,2.41-2.96,3.81-.82,1.4-1.44,2.89-1.86,4.46-.28,1.04,1.37,1.53,1.65.44Z"/>
      <path class="cls-1" d="M90.56,10.85c.22-.97.54-1.9.96-2.8.42-.9.92-1.75,1.52-2.54.59-.8,1.27-1.52,2.01-2.18.75-.66,1.55-1.23,2.42-1.71.92-.56.08-2.05-.88-1.49-.96.54-1.86,1.18-2.69,1.91-.83.73-1.57,1.54-2.24,2.42-.66.89-1.22,1.83-1.69,2.83-.46,1-.82,2.04-1.06,3.12-.24,1.08,1.41,1.53,1.65.44Z"/>
      <path class="cls-1" d="M135.99,18.16c-.36,1.04,1.29,1.49,1.65.44.32-.92.52-1.86.59-2.83.07-.97.02-1.93-.17-2.89s-.49-1.87-.91-2.75-.96-1.68-1.6-2.41c-.72-.84-1.93.36-1.25,1.2.54.62.99,1.31,1.35,2.05.36.74.61,1.52.76,2.33s.19,1.63.12,2.45c-.07.82-.25,1.62-.53,2.4Z"/>
      <path class="cls-1" d="M141.74,22.01c-.04,1.08,1.69,1.08,1.73,0,.22-5.11-.57-10.07-2.37-14.86-.36-1-2.01-.56-1.65.44,1.76,4.65,2.52,9.45,2.29,14.42Z"/>
      <path class="cls-1" d="M143.38,68.91c.64.44,1.49,1.16,1.41,2.01-.08.84-.72,1.29-1.53.88s-1.73-2.17-1.45-3.61c.56.16,1.08.4,1.57.72ZM143.02,113.53c-.63,4.04-1.72,7.95-3.27,11.73-1.55,3.78-3.53,7.33-5.92,10.64-.32-1.12-.64-2.29-1.04-3.37-.4-1.08-3.01-.88-2.49.68,1.05,2.92,1.77,5.93,2.15,9.01s.43,6.17.14,9.26c-.44,4.98-2.09,10.84-7.67,12.01-2.65.56-5.62.2-8.28-.2-2.65-.4-5.06-1.33-5.74-4.14-.68-2.81.12-5.18.56-7.67.13-.76.23-1.52.28-2.29.07-.21.09-.42.04-.64.08-1.73-.21-3.39-.88-4.98-.68-1.53-2.89-.2-2.21,1.29.43,1.03.61,2.1.56,3.21-4.1,2.65-8.36,5.06-13.02,6.59-4.66,1.53-8.6,2.05-13.02,2.41-.04-.52-.08-1.04-.16-1.57-.12-1.61-2.69-1.65-2.57,0,.08.88.2,1.77.24,2.65-.08.32-.05.62.08.92.28,3.94.24,7.91-1.29,11.53-1.93,4.42-5.74,7.23-10.65,6.83-2.49-.2-4.94-1-7.27-1.89-2.33-.88-4.62-1.73-6.63-3.09-2.01-1.37-3.45-3.21-3.5-5.58-.04-2.37,1.41-4.58,2.73-6.51,4.28.18,8.5-.25,12.65-1.29,1.61-.4.92-2.85-.68-2.45-1.82.47-3.67.81-5.54,1.02s-3.75.3-5.63.25c-1.88-.05-3.75-.23-5.61-.54s-3.68-.74-5.48-1.31c-1.8-.56-3.54-1.25-5.25-2.06-1.7-.81-3.34-1.73-4.91-2.76-1.57-1.03-3.07-2.17-4.48-3.42-1.41-1.24-2.73-2.58-3.96-4-.11-.25-.28-.44-.52-.56-2.22-2.7-4.09-5.62-5.62-8.75,5.91.08,11.77-2.81,14.7-8.07.8-1.45-1.45-2.73-2.25-1.29-.79,1.4-1.81,2.61-3.05,3.63-1.24,1.02-2.62,1.79-4.14,2.31,5.58-5.22,5.95-14.22,4.58-21.44-1.25-6.59-5.34-13.45-11.89-15.3,2.48-.34,4.88-.04,7.19.92,1.57.6,2.21-1.85.68-2.49-1.68-.66-3.43-1.04-5.24-1.14-1.81-.1-3.58.1-5.33.58.46-1.33.97-2.65,1.52-3.94.56-1.29,1.17-2.56,1.82-3.81.66-1.25,1.36-2.47,2.11-3.66.75-1.19,1.55-2.35,2.39-3.49s1.72-2.23,2.65-3.29c.92-1.06,1.89-2.09,2.89-3.08,1-.99,2.04-1.94,3.12-2.85,1.08-.91,2.19-1.78,3.33-2.6s2.32-1.6,3.52-2.34c1.2-.73,2.43-1.42,3.69-2.06,1.26-.64,2.54-1.23,3.84-1.77,1.3-.54,2.62-1.03,3.96-1.47,1.34-.44,2.69-.83,4.06-1.16,1.37-.33,2.75-.62,4.14-.84,1.39-.23,2.79-.4,4.19-.52,1.4-.12,2.81-.19,4.22-.2-.68,1.81-1.41,3.61-2.25,5.34-1.08,2.33-2.29,4.86-4.26,6.55-1.25,1.08.56,2.89,1.81,1.85,3.05-2.65,4.7-6.99,6.23-10.6.52-1.24,1-2.57,1.49-3.9t.04-.08c1.12-3.01,2.41-6.02,4.98-8.07,8.48-6.67,14.3,9,15.79,14.98,1.21,4.78,1.73,9.88.92,14.82-.28,1.61,2.21,2.29,2.45.68,1.17-7.15.16-15.02-2.65-21.89,14.9-.64,29.69,5.54,39.93,16.34,10.24,10.8,15.11,27.11,12.65,42.37ZM41.91,165.29c-.32,1.08-.92,2.33-1.89,2.97s-3.05.52-4.5.28c-2.54-.41-5.01-1.08-7.41-2.02-2.4-.94-4.67-2.13-6.81-3.56-2.21-1.49-3.98-3.49-2.89-6.26.68-1.77,2.17-3.09,3.17-4.7s1.97-3.49,2.85-5.3c3.32,3.56,7.14,6.48,11.45,8.75,2.49,1.28,5.07,2.32,7.75,3.13-.88,2.17-1,4.5-1.73,6.71ZM7.92,126.66c-7.03-7.63-7.31-20.88.36-28.19,1.29-1.23,2.75-2.21,4.38-2.93h.24c8.24-.44,13.1,7.31,14.46,14.54,1.37,7.23.96,17.03-6.27,21.32-.16.12-.28.27-.36.44h-.2c-4.86.4-9.36-1.61-12.61-5.18ZM36.52,61.04l-2.49,1.16-1.93-7.19c-.28-1.08-1.04-2.69-.48-3.73.56-1.04.84-.84,1.73-.76.51.08,1,.2,1.49.36,3.99,1.26,7.69,3.1,11.09,5.54-3.27,1.26-6.4,2.8-9.4,4.62h0ZM26.4,52.17c-.48-1.81-1.29-4.06-.64-5.9.64-1.85,3.9-1.57,5.78-1.2,7.59,1.49,15.47,3.81,21.17,9.24-1.65.4-3.25.88-4.86,1.45-2.39-1.82-4.95-3.36-7.67-4.62-2.29-1.04-5.22-2.61-7.79-2.33-2.57.28-2.97,2.05-2.61,4.06.68,3.45,1.81,6.87,2.73,10.28.03.16.11.3.24.4-.92.68-1.89,1.41-2.77,2.17-1.21-4.54-2.37-9.04-3.58-13.53ZM151.18,65.78c-2.13-3.69-7.67-4.58-10.53-1.12-.18.23-.34.47-.48.72-.78,0-1.55.08-2.32.25s-1.49.43-2.19.78c-.7.35-1.35.77-1.96,1.26-.6.5-1.14,1.06-1.61,1.68-1.36-1.44-2.8-2.81-4.3-4.09-1.51-1.29-3.08-2.49-4.72-3.6-1.64-1.11-3.34-2.14-5.09-3.06-1.75-.93-3.55-1.76-5.39-2.49-1.84-.73-3.72-1.36-5.63-1.89-1.91-.53-3.85-.95-5.8-1.27-1.96-.32-3.93-.53-5.91-.63-1.98-.1-3.96-.1-5.94.01-.65-1.35-1.39-2.65-2.21-3.9-2.41-3.65-5.95-7.23-10.77-6.18-4.18.88-7.23,4.82-8.76,8.59-.2.56-.44,1.12-.68,1.73-3.77-.02-7.51.33-11.21,1.04-3.25-3.49-7.35-5.98-11.77-7.75-4.69-1.91-9.55-3.17-14.58-3.77-2.05-.2-4.18.24-5.38,2.09-1.21,1.85-1.04,4.06-.64,6.06,1.08,5.82,2.93,11.57,4.5,17.31-3.79,3.39-7.05,7.21-9.8,11.48-2.86,4.46-5.07,9.23-6.63,14.3-1.1.49-2.13,1.09-3.09,1.81-4.9,3.61-7.63,9.44-8.2,15.42-.92,10.36,5.7,21.85,16.27,23.69,0,.19.05.38.12.56,1.62,3.54,3.67,6.8,6.15,9.8-.92,1.93-1.89,3.81-2.97,5.62-1.89,3.17-5.1,5.86-3.94,9.92,1.17,4.06,6.27,6.51,9.88,8.07,2.15.95,4.38,1.7,6.67,2.25,2.13.52,4.58,1.12,6.79.8,5.91-.84,5.1-7.59,6.91-11.69.06-.11.1-.23.12-.36,1.72.4,3.46.69,5.22.88-1.21,1.89-2.21,3.94-2.37,6.18-.16,2.25,1,5.06,2.81,6.87,1.81,1.81,4.46,2.97,6.95,3.98,2.49,1,5.87,2.33,9,2.73,5.5.72,10.36-1.57,13.18-6.34,2.81-4.78,2.77-9.12,2.49-13.93,4.58-.36,9.16-1,13.54-2.45,4.21-1.47,8.2-3.39,11.97-5.78-.12.68-.28,1.37-.4,2.01-.36,2.05-.56,4.18-.12,6.22,1.04,4.78,5.46,5.94,9.72,6.43,4.26.48,9.4.56,12.78-2.89,3.37-3.45,3.98-7.75,4.34-11.93.35-4.06.14-8.09-.64-12.09h.04c10.2-12.81,13.94-30.08,10.28-46.02-.92-4.03-2.31-7.88-4.18-11.56-1.87-3.68-4.16-7.08-6.86-10.2l.24-.28c.6-.86,1.36-1.56,2.28-2.09.91-.53,1.9-.84,2.95-.93-.36,2.93.88,6.14,4.14,6.55,2.21.28,3.94-1.45,3.94-3.61s-1.93-4.02-3.94-4.86l-.44-.16h.08c1.81-1.65,4.78-.76,5.91,1.24,1.12,2.01,3.05.04,2.21-1.41Z"/>
      <path class="cls-1" d="M83.81,69.16l-12.82-2.77c1.73-5.06,3.62-10.08,5.7-15.02,1.22,1.13,2.29,2.37,3.23,3.74s1.72,2.82,2.33,4.36c.62,1.54,1.05,3.13,1.31,4.76.26,1.64.34,3.28.23,4.93h0ZM77.74,50c-.19-.18-.42-.26-.68-.24-.24-.6-1.17-.88-1.49-.12-2.37,5.62-4.58,11.36-6.55,17.15-.03.11-.03.22-.02.34s.05.22.11.32c.06.1.13.19.22.26.09.07.19.13.29.17l14.7,3.13c.13.04.26.05.39.02.13-.02.25-.07.36-.15.11-.08.19-.18.25-.3.06-.12.09-.24.09-.38.1-.93.15-1.86.14-2.8,0-.94-.07-1.87-.19-2.8-.12-.93-.29-1.85-.52-2.75-.23-.91-.51-1.8-.84-2.67-.33-.87-.71-1.73-1.15-2.56-.43-.83-.91-1.63-1.44-2.4s-1.1-1.51-1.71-2.22c-.61-.71-1.27-1.37-1.96-2Z"/>
    </g>
  </g>
</svg>