<?xml version="1.0" encoding="UTF-8"?>
<svg id="Capa_2" data-name="Capa 2" xmlns="http://www.w3.org/2000/svg" viewBox="0 0 180 100.67">
  <defs>
    <style>
      .cls-1 {
        fill: #e26088;
      }
    </style>
  </defs>
  <g id="Capa_1-2" data-name="Capa 1">
    <g>
      <path class="cls-1" d="M172.05,75.74c.04.13.06.21.09.26,1.57,2.24,2.57,4.71,2.85,7.44.04.34.21.36.47.36.81,0,1.61-.02,2.42.02.43.02.56-.11.56-.56-.06-2.32-.09-4.64-.11-6.95,0-.43-.15-.58-.58-.58-1.87.04-3.75.02-5.7.02ZM50.22,75.4h-16.63c-.43,0-.43.19-.41.52.06,2.43.11,4.88.11,7.31,0,.62.21.73.77.71,4.1-.02,8.21-.04,12.31,0,.71,0,.86-.28.9-.88.11-1.61.52-3.16,1.2-4.64.45-.99,1.01-1.94,1.74-3.03ZM152.45,57.8s0,.02,0,0c3.28.02,6.54.02,9.82,0,.22,0,.52.11.66-.13.11-.21-.11-.39-.21-.56-2.06-3.35-4.12-6.67-6.17-10.04-.28-.47-.62-.64-1.16-.62-3.13.11-6.26.19-9.39.28-1.27.04-2.57.09-3.84.13-.34,0-.52.06-.51.47.09,3.23.17,6.47.22,9.72.02.62.21.79.82.79,3.24-.06,6.49-.04,9.75-.04ZM48.51,84.58c.02,7.7,6.2,13.89,13.93,13.85,7.57-.04,13.85-5.94,13.83-13.89-.02-8.11-6.54-13.85-14.06-13.81-7.54.04-13.72,6.26-13.7,13.85ZM173.76,85.14c0-7.89-6.37-14.28-14.25-14.28s-14.34,6.09-14.36,14.24c-.02,8.19,6.52,14.28,14.3,14.3,7.91.04,14.3-6.35,14.3-14.26ZM147.03,75.63h-72.24c.02.06,0,.13.04.17,1.54,2.22,2.49,4.65,2.7,7.36.06.69.36.75.94.75,5.29-.04,10.59-.04,15.88-.04,16.14-.02,32.28-.04,48.42-.04.21,0,.43-.02.64,0,.36.02.52-.11.56-.47.24-2.8,1.35-5.27,3.07-7.74ZM139.1,38.47v.17c-3.77,0-7.55.02-11.32-.02-.6,0-.82.13-.82.79.02,11.27.04,22.52.02,33.79,0,.65.13.88.84.88,6.69,0,13.38.04,20.07.07.37,0,.62-.15.86-.39,2.59-2.41,5.64-3.83,9.15-4.13,4.72-.43,8.88.99,12.35,4.26.19.19.37.32.67.32,2.21-.02,4.4-.04,6.62-.02.58,0,.77-.13.75-.75-.07-3.48-.11-6.95-.13-10.43,0-.49-.24-.58-.62-.67-2.51-.6-5-1.29-7.52-1.81-2.17-.45-4.27-1.23-6.6-1.21-7.22.11-14.43.04-21.65.04-1.41,0-1.56-.17-1.5-1.53v-.56c-.09-3.46-.19-6.92-.28-10.35-.04-1.27.22-1.53,1.5-1.57,4.35-.13,8.68-.26,13.03-.39.54-.02.6-.11.32-.58-1.12-1.78-2.25-3.57-3.3-5.38-.36-.6-.75-.77-1.41-.75-3.67.09-7.35.17-11.04.24ZM79.23,16.43v.24c-7.24,0-14.47-.02-21.71,0-7.93.02-15.86.06-23.79.06-.54,0-.73.11-.71.69.06,2.75.06,5.5.07,8.22.04,15.77.07,31.57.07,47.34,0,.69.17.86.86.86,5.51-.02,11-.04,16.51.02.77,0,1.26-.22,1.8-.71,3.37-2.93,7.33-4.19,11.77-3.7,3.39.37,6.37,1.76,8.83,4.17.21.21.39.37.73.34,1.2-.15,2.42-.02,3.62-.02,15.69.02,31.38.04,47.05.06q1.05,0,1.05-1.05c0-18.52-.02-37.06-.02-55.59q0-.99-1.01-.99c-15.05.06-30.1.06-45.14.06ZM79.06,14.83h46.13c1.37,0,1.59.19,1.76,1.55.02.24.02.47.02.71,0,6.39.02,12.78,0,19.18,0,.67.13.88.84.86,7.59-.17,15.18-.28,22.77-.47.99-.02,1.59.34,2.08,1.16,3.9,6.37,7.83,12.73,11.73,19.1.32.52.67.8,1.29.95,4.25,1.01,8.51,2.06,12.76,3.1.37.09.73.22,1.05.43.26.17.45.43.36.71-.26.77-.13,1.55-.11,2.32.07,6.5.17,13.01.24,19.51.02,1.18-.22,1.42-1.41,1.42-.9,0-1.8.04-2.7-.02-.58-.04-.79.17-.82.73-.13,2.47-.82,4.78-2.1,6.9-2.61,4.28-6.35,6.86-11.34,7.55-7.65,1.07-14.92-3.57-17.11-10.88-.36-1.2-.6-2.43-.66-3.68-.02-.47-.17-.6-.62-.6-2.23.02-4.46.02-6.69.02-19.29.02-38.59.04-57.88.04-1.09,0-1.03.02-1.2,1.08-.79,5.25-3.52,9.16-8.28,11.55-8.96,4.52-19.7-.75-21.72-10.6-.09-.43-.17-.88-.17-1.33,0-.54-.19-.73-.77-.71-4.46.02-8.92.02-13.38.02-1.16,0-1.35-.19-1.37-1.36-.06-2.58-.13-5.16-.13-7.74-.06-20.05-.11-40.09-.17-60.15,0-.86.26-1.07,1.11-1.07,2.14.02,4.27,0,6.41,0,11.53-.04,23.07-.07,34.6-.11h5.47v-.19Z"/>
      <path class="cls-1" d="M80.98,4.1c3.19.09,9.18.22,15.18.6.37.02.77,0,1.14.04.36.04.66.22.64.64,0,.43-.3.64-.71.62-.64-.02-1.27-.09-1.91-.11-3.43-.15-6.88-.3-10.31-.45-8.4-.36-16.79-.17-25.19-.15-.32,0-.67.06-.97-.11-.3-.17-.49-.39-.37-.75.09-.3.32-.47.64-.45,6.35.17,12.71-.09,21.87.13Z"/>
      <path class="cls-1" d="M80.98,4.1c3.19.09,9.18.22,15.18.6.37.02.77,0,1.14.04.36.04.66.22.64.64,0,.43-.3.64-.71.62-.64-.02-1.27-.09-1.91-.11-3.43-.15-6.88-.3-10.31-.45-8.4-.36-16.79-.17-25.19-.15-.32,0-.67.06-.97-.11s-.49-.39-.37-.75c.09-.3.32-.47.64-.45,6.35.17,12.71-.09,21.87.13Z"/>
      <path class="cls-1" d="M154.6,16.38h9.54c.19,0,.39,0,.56.04.32.09.54.3.52.65-.02.32-.24.52-.54.56-.52.06-1.03.09-1.56.11-3.79.06-7.59.11-11.38.15-3.86.04-7.72.19-11.56.6-.45.06-.88.15-1.35.13-.47,0-.82-.15-.82-.65,0-.47.34-.58.77-.64,5.25-.65,10.55-.65,15.82-.95Z"/>
      <path class="cls-1" d="M154.6,16.38h9.54c.19,0,.39,0,.56.04.32.09.54.3.52.65-.02.32-.24.52-.54.56-.52.06-1.03.09-1.56.11-3.79.06-7.59.11-11.38.15-3.86.04-7.72.19-11.56.6-.45.06-.88.15-1.35.13-.47,0-.82-.15-.82-.65,0-.47.34-.58.77-.64,5.25-.65,10.55-.65,15.82-.95Z"/>
      <path class="cls-1" d="M9.97,41.63c4.54.11,7.91.19,11.27.26.45.02.86.11.86.64,0,.56-.43.64-.9.65-2.32.06-4.65-.15-6.97-.21-4.25-.09-8.53-.41-12.78-.09-.21.02-.41.06-.62.09-.37.07-.67-.07-.79-.43-.13-.41.07-.67.47-.82.28-.11.56-.09.84-.11,3.26-.26,6.52.04,8.62.02Z"/>
      <path class="cls-1" d="M9.97,41.63c4.54.11,7.91.19,11.27.26.45.02.86.11.86.64,0,.56-.43.64-.9.65-2.32.06-4.65-.15-6.97-.21-4.25-.09-8.53-.41-12.78-.09-.21.02-.41.06-.62.09-.37.07-.67-.07-.79-.43-.13-.41.07-.67.47-.82.28-.11.56-.09.84-.11,3.26-.26,6.52.04,8.62.02Z"/>
      <path class="cls-1" d="M160.26,25.42c-3.94.06-7.85.41-11.77.67-.52.04-1.03.09-1.56-.06-.39-.11-.64-.34-.58-.75.06-.43.36-.58.77-.56,3.26.13,6.47-.37,9.71-.49,1.69-.06,3.36-.13,5.04-.19.26,0,.52.06.77.07.45.06.82.22.79.73-.04.52-.45.58-.9.58-.75-.04-1.52-.02-2.27-.02Z"/>
      <path class="cls-1" d="M160.26,25.42c-3.94.06-7.85.41-11.77.67-.52.04-1.03.09-1.56-.06-.39-.11-.64-.34-.58-.75.06-.43.36-.58.77-.56,3.26.13,6.47-.37,9.71-.49,1.69-.06,3.36-.13,5.04-.19.26,0,.52.06.77.07.45.06.82.22.79.73-.04.52-.45.58-.9.58-.75-.04-1.52-.02-2.27-.02Z"/>
      <path class="cls-1" d="M68.1,1.57c-2.19-.09-4.46-.19-6.75-.3-.45-.02-.75-.22-.71-.69.02-.43.32-.62.73-.58.69.04,1.37.11,2.06.13,3.41.11,6.82.21,10.23.28.45.02.84.11.84.64s-.41.64-.86.64c-1.84-.02-3.66-.19-5.55-.11Z"/>
      <path class="cls-1" d="M68.1,1.57c-2.19-.09-4.46-.19-6.75-.3-.45-.02-.75-.22-.71-.69.02-.43.32-.62.73-.58.69.04,1.37.11,2.06.13,3.41.11,6.82.21,10.23.28.45.02.84.11.84.64s-.41.64-.86.64c-1.84-.02-3.66-.19-5.55-.11Z"/>
      <path class="cls-1" d="M10.46,46.32h3.13c.47,0,.92.11.92.65.02.58-.45.64-.92.62-1.95-.04-3.9-.06-5.83-.09-.24,0-.47-.02-.71-.06-.39-.07-.67-.3-.64-.71.04-.43.36-.56.77-.56,1.09.02,2.17,0,3.28,0v.15Z"/>
      <path class="cls-1" d="M10.46,46.32h3.13c.47,0,.92.11.92.65.02.58-.45.64-.92.62-1.95-.04-3.9-.06-5.83-.09-.24,0-.47-.02-.71-.06-.39-.07-.67-.3-.64-.71.04-.43.36-.56.77-.56,1.09.02,2.17,0,3.28,0v.15Z"/>
      <path class="cls-1" d="M137.69,22.9c1.16-.07,2.31-.13,3.47-.22.47-.04.9,0,.97.54.06.52-.37.67-.79.71-1.35.09-2.68.24-4.03.22-.3,0-.62-.02-.92.06-.43.11-.79.04-.88-.43-.11-.52.22-.82.69-.88.49-.06.99-.02,1.48,0Z"/>
      <path class="cls-1" d="M137.69,22.9c1.16-.07,2.31-.13,3.47-.22.47-.04.9,0,.97.54.06.52-.37.67-.79.71-1.35.09-2.68.24-4.03.22-.3,0-.62-.02-.92.06-.43.11-.79.04-.88-.43-.11-.52.22-.82.69-.88.49-.06.99-.02,1.48,0Z"/>
      <path class="cls-1" d="M76.27,9.09c-.66.07-1.42-.22-2.21-.09-.32.06-.54-.17-.6-.49-.07-.34.09-.6.39-.75.3-.15.62-.11.9-.07.82.11,1.65.13,2.47.13.45,0,.84.11.86.62,0,.52-.39.64-.84.64-.28.02-.56.02-.97.02Z"/>
      <path class="cls-1" d="M76.27,9.09c-.66.07-1.42-.22-2.21-.09-.32.06-.54-.17-.6-.49-.07-.34.09-.6.39-.75.3-.15.62-.11.9-.07.82.11,1.65.13,2.47.13.45,0,.84.11.86.62,0,.52-.39.64-.84.64-.28.02-.56.02-.97.02Z"/>
      <path class="cls-1" d="M19.89,45.2c.3.04.62.04.92.09.32.06.51.26.49.6-.02.32-.19.52-.51.58-.54.11-1.09.02-1.61-.06-.34-.06-.54-.3-.51-.65.04-.36.24-.54.6-.58.21-.02.43,0,.64,0t-.02.02Z"/>
      <path class="cls-1" d="M19.89,45.2c.3.04.62.04.92.09.32.06.51.26.49.6-.02.32-.19.52-.51.58-.54.11-1.09.02-1.61-.06-.34-.06-.54-.3-.51-.65.04-.36.24-.54.6-.58.21-.02.43,0,.64,0t-.02.02Z"/>
      <path class="cls-1" d="M152.78,85.23c.02,3.76,3.02,6.8,6.73,6.8s6.94-3.1,6.86-6.77c-.07-4.02-3.11-6.77-6.73-6.82-3.84-.07-6.88,2.99-6.86,6.78ZM173.76,85.14c0,7.91-6.39,14.3-14.32,14.28-7.78-.02-14.3-6.13-14.3-14.3.02-8.15,6.56-14.24,14.36-14.24,7.89-.02,14.26,6.37,14.26,14.26Z"/>
      <path class="cls-1" d="M152.78,85.23c.02,3.76,3.02,6.8,6.73,6.8s6.94-3.1,6.86-6.77c-.07-4.02-3.11-6.77-6.73-6.82-3.84-.07-6.88,2.99-6.86,6.78ZM173.76,85.14c0,7.91-6.39,14.3-14.32,14.28-7.78-.02-14.3-6.13-14.3-14.3.02-8.15,6.56-14.24,14.36-14.24,7.89-.02,14.26,6.37,14.26,14.26Z"/>
      <path class="cls-1" d="M69.35,84.65c0-3.74-3.09-6.82-6.79-6.75-3.67.06-6.77,3.07-6.71,6.71.06,3.79,2.81,6.77,6.77,6.77s6.75-3.2,6.73-6.73ZM48.51,84.58c-.02-7.59,6.17-13.81,13.72-13.85,7.5-.04,14.02,5.7,14.06,13.81.02,7.94-6.26,13.83-13.83,13.89-7.74.04-13.95-6.15-13.95-13.85Z"/>
      <path class="cls-1" d="M69.35,84.65c0-3.74-3.09-6.82-6.79-6.75-3.67.06-6.77,3.07-6.71,6.71.06,3.79,2.81,6.77,6.77,6.77s6.75-3.2,6.73-6.73ZM48.51,84.58c-.02-7.59,6.17-13.81,13.72-13.85,7.5-.04,14.02,5.7,14.06,13.81.02,7.94-6.26,13.83-13.83,13.89-7.74.04-13.95-6.15-13.95-13.85Z"/>
      <path class="cls-1" d="M172.05,75.74h5.7c.43,0,.58.13.58.58.02,2.32.06,4.64.11,6.95.02.45-.11.58-.56.56-.81-.04-1.61-.02-2.42-.02-.26,0-.43-.02-.47-.36-.3-2.73-1.27-5.2-2.85-7.44-.04-.07-.06-.15-.09-.28Z"/>
      <path class="cls-1" d="M172.05,75.74h5.7c.43,0,.58.13.58.58.02,2.32.06,4.64.11,6.95.02.45-.11.58-.56.56-.81-.04-1.61-.02-2.42-.02-.26,0-.43-.02-.47-.36-.3-2.73-1.27-5.2-2.85-7.44-.04-.07-.06-.15-.09-.28Z"/>
      <path class="cls-1" d="M90.42,40.34v-.71c-.11-2.71-2.16-4.35-4.78-3.85-2.89.54-4.65,2.34-5.6,5.03-.15.45-.26.92-.43,1.35-.32.77-1.07.84-1.54.15-.28-.41-.49-.86-.73-1.29-.73-1.21-1.48-2.43-2.68-3.27-1.95-1.35-4.33-.78-5.25,1.29-.51,1.14-.66,2.34-.54,3.59.15,2.07.94,3.93,1.91,5.72,1.97,3.55,4.4,6.71,7.8,9.05.73.5,1.37.5,2.08-.04.77-.58,1.39-1.29,1.99-2.02,2.21-2.69,4.39-5.4,5.96-8.52,1.01-2.04,1.78-4.15,1.82-6.47ZM78.63,40.32c1.05-2.78,2.76-4.73,5.47-5.66,2.06-.71,4.07-.71,5.85.73,1.5,1.21,1.97,2.92,1.99,4.75.04,2.73-.88,5.23-2.16,7.63-1.93,3.63-4.44,6.86-7.2,9.91-.77.86-1.59,1.7-2.94,1.61-.6-.04-1.14-.19-1.59-.52-4.63-3.48-8.1-7.85-10.07-13.33-.69-1.93-.77-3.92-.24-5.92,1.05-3.92,5.25-5.16,8.3-2.41,1.03.86,1.78,1.98,2.59,3.23Z"/>
      <path class="cls-1" d="M90.42,40.34v-.71c-.11-2.71-2.16-4.35-4.78-3.85-2.89.54-4.65,2.34-5.6,5.03-.15.45-.26.92-.43,1.35-.32.77-1.07.84-1.54.15-.28-.41-.49-.86-.73-1.29-.73-1.21-1.48-2.43-2.68-3.27-1.95-1.35-4.33-.79-5.25,1.29-.51,1.14-.66,2.34-.54,3.59.15,2.07.94,3.93,1.91,5.72,1.97,3.55,4.4,6.71,7.8,9.05.73.5,1.37.5,2.08-.04.77-.58,1.39-1.29,1.99-2.02,2.21-2.69,4.39-5.4,5.96-8.52,1.01-2.04,1.78-4.15,1.82-6.47ZM78.63,40.32c1.05-2.78,2.76-4.73,5.47-5.66,2.06-.71,4.07-.71,5.85.73,1.5,1.21,1.97,2.92,1.99,4.75.04,2.73-.88,5.23-2.16,7.63-1.93,3.63-4.44,6.86-7.2,9.91-.77.86-1.59,1.7-2.94,1.61-.6-.04-1.14-.19-1.59-.52-4.63-3.48-8.1-7.85-10.07-13.33-.69-1.93-.77-3.93-.24-5.92,1.05-3.93,5.25-5.16,8.3-2.41,1.03.86,1.78,1.98,2.59,3.23Z"/>
      <path class="cls-1" d="M165.04,85.31c0-3.1-2.38-5.51-5.44-5.53-3.04-.02-5.53,2.41-5.53,5.36s2.42,5.51,5.38,5.55c3.06.04,5.59-2.41,5.59-5.38ZM152.78,85.23c-.02-3.78,3.02-6.86,6.88-6.8,3.62.06,6.65,2.82,6.73,6.82.07,3.66-3.07,6.77-6.86,6.77-3.71.02-6.73-3.03-6.75-6.78Z"/>
      <path class="cls-1" d="M165.04,85.31c0-3.1-2.38-5.51-5.44-5.53-3.04-.02-5.53,2.41-5.53,5.36s2.42,5.51,5.38,5.55c3.06.04,5.59-2.41,5.59-5.38ZM152.78,85.23c-.02-3.78,3.02-6.86,6.88-6.8,3.62.06,6.65,2.82,6.73,6.82.07,3.66-3.07,6.77-6.86,6.77-3.71.02-6.73-3.03-6.75-6.78Z"/>
      <path class="cls-1" d="M62.61,90.06c3,0,5.44-2.41,5.45-5.36.02-2.95-2.44-5.42-5.4-5.44-3.06,0-5.47,2.37-5.45,5.42,0,2.99,2.38,5.38,5.4,5.38ZM69.35,84.65c.04,3.53-2.76,6.73-6.73,6.73-3.95-.02-6.71-2.97-6.77-6.77-.06-3.64,3.04-6.65,6.71-6.71,3.69-.06,6.79,3.01,6.79,6.75Z"/>
      <path class="cls-1" d="M62.61,90.06c3,0,5.44-2.41,5.45-5.36.02-2.95-2.44-5.42-5.4-5.44-3.06,0-5.47,2.37-5.45,5.42,0,2.99,2.38,5.38,5.4,5.38ZM69.35,84.65c.04,3.53-2.76,6.73-6.73,6.73-3.95-.02-6.71-2.97-6.77-6.77-.06-3.64,3.04-6.65,6.71-6.71,3.69-.06,6.79,3.01,6.79,6.75Z"/>
      <path class="cls-1" d="M90.42,40.34c-.02,2.32-.81,4.43-1.84,6.47-1.57,3.12-3.75,5.83-5.96,8.52-.6.73-1.22,1.46-1.99,2.02-.71.54-1.35.54-2.08.04-3.39-2.34-5.83-5.5-7.8-9.05-.99-1.78-1.76-3.64-1.91-5.72-.09-1.25.04-2.47.54-3.59.94-2.07,3.3-2.64,5.25-1.29,1.2.84,1.95,2.04,2.68,3.27.24.43.45.88.73,1.29.47.69,1.22.62,1.54-.15.19-.43.28-.9.43-1.35.96-2.69,2.72-4.49,5.6-5.03,2.62-.5,4.67,1.14,4.78,3.85.02.22.02.47.02.71Z"/>
      <path class="cls-1" d="M90.42,40.34c-.02,2.32-.81,4.43-1.84,6.47-1.57,3.12-3.75,5.83-5.96,8.52-.6.73-1.22,1.46-1.99,2.02-.71.54-1.35.54-2.08.04-3.39-2.34-5.83-5.5-7.8-9.05-.99-1.78-1.76-3.64-1.91-5.72-.09-1.25.04-2.47.54-3.59.94-2.07,3.3-2.64,5.25-1.29,1.2.84,1.95,2.04,2.68,3.27.24.43.45.88.73,1.29.47.69,1.22.62,1.54-.15.19-.43.28-.9.43-1.35.96-2.69,2.72-4.49,5.6-5.03,2.62-.5,4.67,1.14,4.78,3.85.02.22.02.47.02.71Z"/>
      <path class="cls-1" d="M80.98,4.1c3.19.09,9.18.22,15.18.6.37.02.77,0,1.14.04.36.04.66.22.64.64,0,.43-.3.64-.71.62-.64-.02-1.27-.09-1.91-.11-3.43-.15-6.88-.3-10.31-.45-8.4-.36-16.79-.17-25.19-.15-.32,0-.67.06-.97-.11-.3-.17-.49-.39-.37-.75.09-.3.32-.47.64-.45,6.35.17,12.71-.09,21.87.13Z"/>
      <path class="cls-1" d="M154.6,16.38h9.54c.19,0,.39,0,.56.04.32.09.54.3.52.65-.02.32-.24.52-.54.56-.52.06-1.03.09-1.56.11-3.79.06-7.59.11-11.38.15-3.86.04-7.72.19-11.56.6-.45.06-.88.15-1.35.13-.47,0-.82-.15-.82-.65,0-.47.34-.58.77-.64,5.25-.65,10.55-.65,15.82-.95Z"/>
      <path class="cls-1" d="M9.97,41.63c4.54.11,7.91.19,11.27.26.45.02.86.11.86.64,0,.56-.43.64-.9.65-2.32.06-4.65-.15-6.97-.21-4.25-.09-8.53-.41-12.78-.09-.21.02-.41.06-.62.09-.37.07-.67-.07-.79-.43-.13-.41.07-.67.47-.82.28-.11.56-.09.84-.11,3.26-.26,6.52.04,8.62.02Z"/>
      <path class="cls-1" d="M160.26,25.42c-3.94.06-7.85.41-11.77.67-.52.04-1.03.09-1.56-.06-.39-.11-.64-.34-.58-.75.06-.43.36-.58.77-.56,3.26.13,6.47-.37,9.71-.49,1.69-.06,3.36-.13,5.04-.19.26,0,.52.06.77.07.45.06.82.22.79.73-.04.52-.45.58-.9.58-.75-.04-1.52-.02-2.27-.02Z"/>
      <path class="cls-1" d="M68.1,1.57c-2.19-.09-4.46-.19-6.75-.3-.45-.02-.75-.22-.71-.69.02-.43.32-.62.73-.58.69.04,1.37.11,2.06.13,3.41.11,6.82.21,10.23.28.45.02.84.11.84.64s-.41.64-.86.64c-1.84-.02-3.66-.19-5.55-.11Z"/>
      <path class="cls-1" d="M10.46,46.32h3.13c.47,0,.92.11.92.65.02.58-.45.64-.92.62-1.95-.04-3.9-.06-5.83-.09-.24,0-.47-.02-.71-.06-.39-.07-.67-.3-.64-.71.04-.43.36-.56.77-.56,1.09.02,2.17,0,3.28,0v.15Z"/>
      <path class="cls-1" d="M137.69,22.9c1.16-.07,2.31-.13,3.47-.22.47-.04.9,0,.97.54.06.52-.37.67-.79.71-1.35.09-2.68.24-4.03.22-.3,0-.62-.02-.92.06-.43.11-.79.04-.88-.43-.11-.52.22-.82.69-.88.49-.06.99-.02,1.48,0Z"/>
      <path class="cls-1" d="M76.27,9.09c-.66.07-1.42-.22-2.21-.09-.32.06-.54-.17-.6-.49-.07-.34.09-.6.39-.75.3-.15.62-.11.9-.07.82.11,1.65.13,2.47.13.45,0,.84.11.86.62,0,.52-.39.64-.84.64-.28.02-.56.02-.97.02Z"/>
      <path class="cls-1" d="M19.89,45.2c.3.04.62.04.92.09.32.06.51.26.49.6-.02.32-.19.52-.51.58-.54.11-1.09.02-1.61-.06-.34-.06-.54-.3-.51-.65.04-.36.24-.54.6-.58.21-.02.43,0,.64,0t-.02.02Z"/>
      <path class="cls-1" d="M179.76,64.43c-.02-.77-.15-1.55.11-2.32.09-.28-.09-.54-.36-.71-.32-.21-.67-.34-1.05-.43-4.25-1.05-8.51-2.09-12.76-3.1-.62-.15-.97-.43-1.29-.95-3.9-6.37-7.83-12.73-11.73-19.1-.49-.82-1.09-1.18-2.08-1.16-7.59.19-15.18.3-22.77.47-.71.02-.84-.19-.84-.86.02-6.39,0-12.78,0-19.18,0-.24,0-.47-.02-.71-.17-1.36-.39-1.55-1.76-1.55h-46.13v.19h-5.47c-11.53.04-23.07.07-34.6.11-2.14,0-4.27.02-6.41,0-.84,0-1.11.21-1.11,1.07.06,20.05.11,40.09.17,60.15,0,2.58.07,5.16.13,7.74.02,1.18.21,1.36,1.37,1.36,4.46,0,8.92,0,13.38-.02.58-.02.77.17.77.71,0,.45.07.9.17,1.33,2.02,9.85,12.76,15.12,21.72,10.6,4.76-2.39,7.5-6.3,8.28-11.55.17-1.07.11-1.08,1.2-1.08,19.29,0,38.59-.02,57.88-.04,2.23,0,4.46,0,6.69-.02.45,0,.6.13.62.6.06,1.25.3,2.49.66,3.68,2.19,7.31,9.47,11.94,17.11,10.88,4.99-.69,8.73-3.27,11.34-7.55,1.27-2.11,1.97-4.43,2.1-6.9.04-.56.24-.77.82-.73.9.06,1.8.02,2.7.02,1.18,0,1.42-.24,1.41-1.42-.08-6.5-.17-13.01-.24-19.51ZM156.55,47.07c2.04,3.36,4.1,6.69,6.17,10.04.09.17.32.36.21.56-.13.24-.43.13-.66.13-3.28.02-6.54.02-9.82,0-3.26,0-6.5-.02-9.75.04-.62,0-.81-.17-.82-.79-.06-3.25-.13-6.49-.22-9.72-.02-.41.17-.47.51-.47,1.27-.04,2.57-.09,3.84-.13,3.13-.09,6.26-.17,9.39-.28.54-.02.88.15,1.16.62ZM127.78,38.62c3.77.04,7.55.02,11.32.02v-.17c3.69-.07,7.37-.15,11.04-.24.66-.02,1.05.15,1.41.75,1.05,1.81,2.17,3.61,3.3,5.38.28.47.22.56-.32.58-4.35.13-8.68.26-13.03.39-1.27.04-1.54.3-1.5,1.57.09,3.44.19,6.9.28,10.35v.56c-.06,1.36.09,1.53,1.5,1.53,7.22,0,14.43.07,21.65-.04,2.32-.02,4.42.77,6.6,1.21,2.51.52,5,1.21,7.52,1.81.37.09.62.19.62.67.02,3.48.06,6.95.13,10.43.02.62-.17.75-.75.75-2.21-.02-4.4,0-6.62.02-.3,0-.49-.13-.67-.32-3.47-3.27-7.63-4.69-12.35-4.26-3.51.3-6.56,1.72-9.15,4.13-.24.24-.49.39-.86.39-6.69-.04-13.38-.07-20.07-.07-.71,0-.84-.22-.84-.88.02-11.27,0-22.52-.02-33.79,0-.65.22-.79.82-.79ZM33.1,25.7c0-.06,0-.12,0-.18-.02-2.54-.02-5.09-.07-7.64,0-.13,0-.27,0-.4,0,0,0-.02,0-.03,0-.01,0-.02,0-.03-.02-.58.17-.69.71-.69,7.93,0,15.86-.04,23.79-.06,7.24-.02,14.47,0,21.71,0v-.24h0s.1,0,.15,0c14.98,0,29.98,0,44.99-.06q1.01,0,1.01.99v.05h0c0,10.98,0,21.97.01,32.96,0,7.52,0,15.05,0,22.57h0v.06q0,1.05-1.05,1.05c-15.69-.02-31.38-.04-47.05-.06-1.2,0-2.42-.13-3.62.02-.34.04-.52-.13-.73-.34-2.46-2.41-5.44-3.79-8.83-4.17-4.44-.49-8.4.77-11.77,3.7-.54.49-1.05.71-1.8.71-5.51-.06-11-.04-16.51-.02-.67,0-.86-.17-.86-.86-.02-15.77-.04-31.57-.08-47.34ZM47.27,83.07c-.04.6-.19.88-.9.88-4.1-.04-8.21-.02-12.31,0-.56.02-.77-.09-.77-.71,0-2.43-.06-4.88-.11-7.31-.02-.34-.02-.52.41-.52h16.63c-.73,1.08-1.29,2.04-1.74,3.03-.67,1.48-1.09,3.03-1.2,4.64ZM62.44,98.43c-7.72.04-13.91-6.15-13.93-13.85-.02-7.59,6.17-13.81,13.7-13.85,7.52-.04,14.04,5.7,14.06,13.81.02,7.94-6.26,13.85-13.83,13.89ZM143.95,83.36c-.04.36-.21.49-.56.47-.21-.02-.43,0-.64,0-16.14,0-32.28.02-48.42.04-5.29,0-10.59,0-15.88.04-.58,0-.88-.06-.94-.75-.21-2.71-1.16-5.14-2.7-7.36-.04-.04-.02-.11-.04-.17h72.24c-1.72,2.47-2.83,4.93-3.07,7.74ZM159.46,99.4c-7.78-.02-14.32-6.11-14.3-14.3.02-8.15,6.56-14.24,14.36-14.24s14.25,6.39,14.25,14.28-6.39,14.3-14.3,14.26ZM177.88,83.81c-.81-.04-1.61-.02-2.42-.02-.26,0-.43-.02-.47-.36-.28-2.73-1.27-5.2-2.85-7.44-.04-.06-.06-.13-.09-.26,1.95,0,3.82.02,5.7-.02.43,0,.58.15.58.58.02,2.32.06,4.64.11,6.95,0,.45-.13.58-.56.56Z"/>
      <path class="cls-1" d="M152.78,85.23c.02,3.76,3.02,6.8,6.73,6.8s6.94-3.1,6.86-6.77c-.07-4.02-3.11-6.77-6.73-6.82-3.84-.07-6.88,2.99-6.86,6.78ZM173.76,85.14c0,7.91-6.39,14.3-14.32,14.28-7.78-.02-14.3-6.13-14.3-14.3.02-8.15,6.56-14.24,14.36-14.24,7.89-.02,14.26,6.37,14.26,14.26Z"/>
      <path class="cls-1" d="M69.35,84.65c0-3.74-3.09-6.82-6.79-6.75-3.67.06-6.77,3.07-6.71,6.71.06,3.79,2.81,6.77,6.77,6.77s6.75-3.2,6.73-6.73ZM48.51,84.58c-.02-7.59,6.17-13.81,13.72-13.85,7.5-.04,14.02,5.7,14.06,13.81.02,7.94-6.26,13.83-13.83,13.89-7.74.04-13.95-6.15-13.95-13.85Z"/>
      <path class="cls-1" d="M172.05,75.74h5.7c.43,0,.58.13.58.58.02,2.32.06,4.64.11,6.95.02.45-.11.58-.56.56-.81-.04-1.61-.02-2.42-.02-.26,0-.43-.02-.47-.36-.3-2.73-1.27-5.2-2.85-7.44-.04-.07-.06-.15-.09-.28Z"/>
      <path class="cls-1" d="M90.42,40.34v-.71c-.11-2.71-2.16-4.35-4.78-3.85-2.89.54-4.65,2.34-5.6,5.03-.15.45-.26.92-.43,1.35-.32.77-1.07.84-1.54.15-.28-.41-.49-.86-.73-1.29-.73-1.21-1.48-2.43-2.68-3.27-1.95-1.35-4.33-.78-5.25,1.29-.51,1.14-.66,2.34-.54,3.59.15,2.07.94,3.93,1.91,5.72,1.97,3.55,4.4,6.71,7.8,9.05.73.5,1.37.5,2.08-.04.77-.58,1.39-1.29,1.99-2.02,2.21-2.69,4.39-5.4,5.96-8.52,1.01-2.04,1.78-4.15,1.82-6.47ZM78.63,40.32c1.05-2.78,2.76-4.73,5.47-5.66,2.06-.71,4.07-.71,5.85.73,1.5,1.21,1.97,2.92,1.99,4.75.04,2.73-.88,5.23-2.16,7.63-1.93,3.63-4.44,6.86-7.2,9.91-.77.86-1.59,1.7-2.94,1.61-.6-.04-1.14-.19-1.59-.52-4.63-3.48-8.1-7.85-10.07-13.33-.69-1.93-.77-3.92-.24-5.92,1.05-3.92,5.25-5.16,8.3-2.41,1.03.86,1.78,1.98,2.59,3.23Z"/>
      <path class="cls-1" d="M165.04,85.31c0-3.1-2.38-5.51-5.44-5.53-3.04-.02-5.53,2.41-5.53,5.36s2.42,5.51,5.38,5.55c3.06.04,5.59-2.41,5.59-5.38ZM152.78,85.23c-.02-3.78,3.02-6.86,6.88-6.8,3.62.06,6.65,2.82,6.73,6.82.07,3.66-3.07,6.77-6.86,6.77-3.71.02-6.73-3.03-6.75-6.78Z"/>
      <path class="cls-1" d="M62.61,90.06c3,0,5.44-2.41,5.45-5.36.02-2.95-2.44-5.42-5.4-5.44-3.06,0-5.47,2.37-5.45,5.42,0,2.99,2.38,5.38,5.4,5.38ZM69.35,84.65c.04,3.53-2.76,6.73-6.73,6.73-3.95-.02-6.71-2.97-6.77-6.77-.06-3.64,3.04-6.65,6.71-6.71,3.69-.06,6.79,3.01,6.79,6.75Z"/>
      <path class="cls-1" d="M90.42,40.34c-.02,2.32-.81,4.43-1.84,6.47-1.57,3.12-3.75,5.83-5.96,8.52-.6.73-1.22,1.46-1.99,2.02-.71.54-1.35.54-2.08.04-3.39-2.34-5.83-5.5-7.8-9.05-.99-1.78-1.76-3.64-1.91-5.72-.09-1.25.04-2.47.54-3.59.94-2.07,3.3-2.64,5.25-1.29,1.2.84,1.95,2.04,2.68,3.27.24.43.45.88.73,1.29.47.69,1.22.62,1.54-.15.19-.43.28-.9.43-1.35.96-2.69,2.72-4.49,5.6-5.03,2.62-.5,4.67,1.14,4.78,3.85.02.22.02.47.02.71Z"/>
    </g>
  </g>
</svg>