<?xml version="1.0" encoding="UTF-8"?>
<svg id="Capa_2" data-name="Capa 2" xmlns="http://www.w3.org/2000/svg" viewBox="0 0 170.48 134.4">
  <defs>
    <style>
      .cls-1 {
        fill: #fff;
      }

      .cls-2 {
        fill: #fff7bb;
      }

      .cls-3 {
        fill: #e7e6ff;
      }

      .cls-4 {
        fill: #ffe6f9;
      }

      .cls-5 {
        fill: #ff0043;
      }

      .cls-6 {
        fill: #ffd7f7;
      }
    </style>
  </defs>
  <g id="Capa_1-2" data-name="Capa 1">
    <g>
      <g>
        <path d="M148.43,44.23c-.38-.55-.82-1.07-1.28-1.56-2.26-2.44-4.54-4.87-6.81-7.31-2.15-2.31-4.28-4.63-6.42-6.94-.26-.28-.5-.57-.78-.84-.19-.18-.26-.39-.26-.64,0-1.07,0-2.14,0-3.2,0-1.11.02-2.21-.02-3.32-.05-1.94-.8-3.57-2.22-4.89-.25-.23-.53-.44-.79-.66-.07-.05-.13-.12-.22-.2.16-.11.29-.2.42-.29.47-.34.93-.69,1.37-1.06H21.04c-.22.11-.42.21-.61.34-1.4.96-2.39,2.24-2.77,3.92-.12.55-.14,1.14-.15,1.71-.02,2.02-.02,4.04-.03,6.06,0,.3,0,.6.18.88.11.17.02.32-.11.47-1.44,1.65-3.03,3.15-4.62,4.65-2.19,2.07-4.41,4.1-6.61,6.16-1.73,1.61-3.45,3.24-5.17,4.86-.28.26-.54.54-.82.8-.1.09-.23.14-.35.21v4.5c.09.03.2.04.28.09.77.52,1.52,1.06,2.29,1.57.27.18.36.39.35.7-.01,2.07,0,4.14-.02,6.22-.08,13.69-.15,27.38-.24,41.07-.06,10-.15,20.01-.22,30.01,0,.53-.04,1.07-.05,1.6,0,.3,0,.61.03.91.09.81.53,1.38,1.28,1.65.56.2,1.14.35,1.72.47,1.62.34,3.24.65,4.85.99,1.06.22,2.11.47,3.16.71,1.36.3,2.73.43,4.12.43,3.06,0,6.13-.03,9.19-.01,6.28.03,12.56.09,18.84.1,8.05.01,16.09-.03,24.14-.02,8.76,0,17.52.06,26.28.05,6.23,0,12.46-.07,18.69-.09,6.83-.02,13.65,0,20.48,0,1.5,0,3,0,4.5-.02.24,0,.48-.01.72-.05.79-.12,1.35-.7,1.46-1.49.04-.28.06-.56.06-.84.06-2.24.1-4.47.17-6.71.08-2.48.17-4.95.26-7.43.1-2.77.21-5.54.32-8.31.17-4.34.33-8.69.51-13.03.19-4.5.39-8.99.58-13.49.17-3.94.31-7.88.48-11.81.19-4.33.39-8.66.58-12.99.12-2.82.23-5.64.34-8.46,0-.22.11-.33.28-.45.65-.44,1.31-.88,1.93-1.35.46-.35.82-.79,1.1-1.3.44-.79.45-1.6-.06-2.34ZM21.53,17.45c.54-.65,1.22-1.11,2.03-1.36.26-.08.55-.1.83-.1,3.37.01,6.74.01,10.11.06,4.14.06,8.29.17,12.43.23,3.81.06,7.63.03,11.44.12,6.55.17,13.09.24,19.64.3,4.17.04,8.34.18,12.51.22,5.75.05,11.49.06,17.24.07,5.59,0,11.19,0,16.78,0,.6,0,1.19.07,1.79.11.4.03.77.17,1.11.38,1.23.74,2.01,1.77,2.12,3.24.03.34.04.69.04,1.03,0,1.78,0,3.56,0,5.34,0,.06,0,.13,0,.19-.02.25-.06.3-.33.31-.08,0-.15,0-.23,0-5.39-.11-10.78-.2-16.17-.34-9.01-.23-18.02-.27-27.04-.38-3.5-.04-6.99-.12-10.49-.18,0,0,0,.01,0,.02-9-.15-18-.3-27-.46-3.43-.06-6.86-.11-10.3-.22-5.49-.17-10.98-.22-16.47-.25-.51,0-.51,0-.51-.51,0-2.16,0-4.32,0-6.48,0-.51.16-.94.48-1.33ZM116.17,43.82c-2.24-.04-4.47-.14-6.7-.22-.16,0-.33,0-.5,0-.31,0-.34-.02-.44-.31-.25-.72-.49-1.44-.73-2.17-.67-1.98-1.36-3.97-2.02-5.95-.44-1.3-.86-2.61-1.29-3.91-.08-.24-.17-.47-.26-.73.11-.01.17-.02.23-.02,3.9.06,7.8.12,11.7.18.23,0,.36.07.48.28.7,1.3,1.4,2.59,2.13,3.87,1.06,1.84,2.14,3.66,3.23,5.49.65,1.09,1.34,2.16,2.01,3.24.04.07.09.14.14.23-.06.03-.09.05-.12.05-2.62,0-5.24.02-7.85-.02ZM120.46,47.2c-.18.06-.28.1-.38.12-2.04.34-4.09.41-6.14.13-.53-.07-1.06-.14-1.55-.36-.08-.03-.15-.08-.23-.12,0-.03.01-.05.02-.08,2.72.47,5.45.39,8.29.3ZM97.7,43.17c-2.71-.19-5.42-.43-8.13-.65-.23-.02-.46-.05-.68-.06-.22,0-.33-.11-.35-.32-.04-.3-.09-.6-.12-.91-.23-2.21-.45-4.43-.68-6.64-.14-1.35-.29-2.7-.44-4.06,0-.07,0-.15,0-.29.26.02.48.04.71.04,2.07.03,4.14.06,6.22.08,2.01.03,4.02.05,6.02.08.38,0,.38.01.49.34l4.15,12.48c.02.07.04.14.08.27-.15.01-.28.04-.41.03-2.28-.13-4.57-.25-6.85-.41ZM101.02,46.98c-.43.22-.9.32-1.37.39-1.43.2-2.86.27-4.29.11-1.39-.15-2.77-.39-4.1-.82-.17-.06-.36-.1-.47-.25.01-.03.02-.07.03-.1,1.13.13,2.26.27,3.4.37,1.13.1,2.26.17,3.38.21,1.14.05,2.28.04,3.42.1ZM78.49,43.28c-3.5.38-7.01.58-10.53.77-.14,0-.27,0-.48,0,.07-.28.13-.5.17-.72.31-1.6.59-3.2.92-4.79.55-2.68,1.12-5.35,1.67-8.02.01-.05.02-.1.03-.15.1-.38.12-.38.52-.38,2.02.02,4.04.04,6.06.06,2.19.02,4.37.05,6.56.08.35,0,.38.03.42.39.35,3.54.7,7.08,1.05,10.62.02.24.02.48.04.72.02.2-.07.32-.24.38-.2.07-.41.15-.62.19-1.84.39-3.71.63-5.58.83ZM83.62,46.1c-.13.11-.25.23-.39.32-1.78,1.24-3.79,1.88-5.93,2.1-1.68.17-3.35.13-5.01-.2-.46-.09-.9-.25-1.35-.39-.13-.04-.24-.15-.36-.23,0-.03.02-.06.02-.09.14-.02.29-.06.44-.07,2.06-.17,4.13-.33,6.19-.5,1.58-.13,3.15-.36,4.71-.68.55-.11,1.09-.21,1.67-.26ZM46.87,44.57c-.27,0-.55.04-.85-.09.17-.33.33-.64.49-.96.82-1.71,1.62-3.42,2.44-5.13,1.01-2.09,2.04-4.18,3.07-6.26.37-.74.76-1.46,1.14-2.2.09-.17.23-.22.41-.21.41,0,.81.01,1.22.02,3.86.07,7.72.13,11.59.2.11,0,.22.02.39.03-.04.26-.07.49-.12.72-.58,2.84-1.16,5.67-1.75,8.51-.29,1.39-.62,2.78-.94,4.16-.03.11-.05.22-.07.34-.08.36-.11.38-.48.4-.55.03-1.09.05-1.64.09-4.96.3-9.93.37-14.9.38ZM60.36,47.63s-.09.1-.15.12c-2.61.9-5.27,1.15-8,.71-.79-.13-1.58-.28-2.36-.43-.22-.04-.43-.12-.65-.18,0-.04.02-.07.03-.11,3.7-.06,7.41-.12,11.11-.18,0,.02.02.05.02.07ZM26.66,44.32c-.14,0-.27-.02-.49-.03.08-.16.12-.26.18-.36,1.33-2.08,2.65-4.15,3.99-6.22,1.37-2.11,2.75-4.21,4.12-6.32.33-.5.67-.99.97-1.5.16-.27.35-.36.65-.35,1.56.04,3.13.06,4.69.09,2.64.05,5.29.09,7.93.14.21,0,.43,0,.68,0-.03.1-.04.17-.06.23-1.08,2.18-2.19,4.36-3.25,6.55-1.04,2.15-2.03,4.32-3.05,6.48-.2.42-.43.84-.64,1.26-.09.18-.22.25-.43.24-5.1-.07-10.19-.14-15.29-.21ZM37.74,48.07c-.08.03-.16.09-.25.1-.44.07-.87.17-1.32.19-1.53.08-3.07.09-4.6-.04-.58-.05-1.15-.19-1.72-.29-.08-.01-.16-.06-.23-.09,0-.04.01-.07.02-.11,2.7.06,5.4.13,8.1.19,0,.02,0,.04.01.06ZM5.36,43.7c-.09-.22-.07-.4.09-.56.2-.21.41-.41.63-.61,3.46-3.3,6.91-6.6,10.37-9.9,1.05-1,2.12-1.97,3.18-2.97.24-.23.48-.31.82-.3.9.04,1.8.04,2.71.04,2.81,0,5.62,0,8.43,0,.03,0,.07.02.13.03-1.43,2.18-2.85,4.31-4.25,6.46-1.65,2.53-3.3,5.07-4.94,7.61-.15.23-.32.46-.47.69-.1.14-.22.22-.41.23-1.96.05-3.91.11-5.87-.01-1.62-.1-3.25-.24-4.87-.32-1.69-.08-3.38-.12-5.07-.18-.19,0-.37.01-.47-.23ZM5.95,47.47c2.08-.03,4.17-.08,6.25-.07,1.57,0,3.15.09,4.72.11.76.01,1.52-.03,2.29-.04.08,0,.17,0,.28.07-.07.05-.14.12-.22.16-1.81.93-3.74,1.27-5.76,1.18-1.32-.05-2.63-.21-3.94-.43-1.11-.19-2.23-.39-3.34-.59-.14-.02-.27-.07-.4-.13-.07-.03-.11-.11-.2-.21.14-.03.22-.05.3-.05ZM61.2,61.06c-.09,3.72-.22,7.45-.29,11.17-.06,3.29-.07,6.58-.11,9.88-.04,3.5-.07,6.99-.11,10.49,0,.13,0,.26-.03.38-.13.42-.09.86-.09,1.29,0,2.83,0,5.67-.02,8.5-.04,4.68-.11,9.36-.17,14.03-.04,3-.09,6-.14,9-.03,1.68-.06,3.36-.09,5.03,0,.06,0,.12-.02.24-.18,0-.33.03-.48.03-7.28-.03-14.57-.04-21.85-.09-6.74-.05-13.47-.15-20.21-.23-.62,0-.64.1-.64-.66,0-4,.03-8.01.04-12.01.02-4.61-.04-9.23.06-13.84.3-14.12.15-28.24.22-42.37,0-.83.01-1.65.02-2.48,0-.09,0-.18,0-.27,0-.21.12-.27.32-.28.47,0,.94-.03,1.41-.03,3.8,0,7.6,0,11.4,0,9.2-.04,18.41-.09,27.61-.14.64,0,1.27,0,1.91.02.74.02,1.18.42,1.25,1.16.04.39.03.79.02,1.18ZM141.63,51.03c-.2,5.58-.4,11.15-.61,16.73-.17,4.56-.35,9.12-.53,13.68-.2,5.16-.4,10.31-.61,15.47-.12,3.07-.26,6.15-.38,9.22-.13,3.18-.27,6.35-.37,9.53-.15,4.76-.28,9.53-.41,14.29,0,.22-.01.43-.03.65-.02.26-.06.3-.32.33-.15.02-.3.02-.46.02-17.33.14-34.65.24-51.98.19-6.51-.02-13.02-.04-19.53-.06-.83,0-1.65,0-2.48,0-.1,0-.2,0-.34-.02-.01-.15-.03-.28-.03-.41.02-3.29-.02-6.59.08-9.88.29-9.02.26-18.05.38-27.07.05-3.66.14-7.32.19-10.98.09-7.17.17-14.34.24-21.51,0-.79-.01-1.58-.05-2.36-.03-.54-.21-1.04-.47-1.52-.37-.69-.95-1.12-1.68-1.34-.56-.18-1.13-.28-1.72-.28-2.16-.01-4.32-.04-6.48-.05-8.5-.02-17.01-.05-25.51-.05-3.27,0-6.53.03-9.8.05-.76,0-1.53.02-2.27.2-1.44.35-2.36,1.39-2.48,2.87-.06.72-.07,1.45-.07,2.17-.03,9.43-.07,18.86-.09,28.3-.03,13.08-.04,26.16-.06,39.24,0,.5,0,.99,0,1.49,0,.1-.01.2-.02.34-.16-.01-.29-.02-.42-.04-1.89-.34-3.78-.68-5.66-1.03-.56-.1-1.12-.22-1.68-.33-.16-.03-.25-.11-.24-.28,0-.1,0-.2,0-.31.05-9.83.09-19.65.16-29.48.04-6.31.09-12.61.16-18.92.05-4.02.17-8.03.24-12.05.08-5.41.14-10.83.2-16.24,0-.09.01-.17.02-.29.1,0,.18,0,.26.03,2.98.87,6.01,1.14,9.09.86,1.43-.13,2.85-.38,4.14-1.07,1.06-.56,2.06-1.2,2.92-2.05.16-.16.31-.34.48-.53.07.03.16.06.22.1,1.18.83,2.47,1.47,3.79,2.02.82.34,1.7.5,2.58.64.84.14,1.68.26,2.53.37,1.23.15,2.46.05,3.68-.16,1.2-.21,2.41-.38,3.58-.76,1.09-.35,2.14-.82,3.01-1.6.16-.14.29-.31.46-.5.26.15.49.27.72.41,1.43.88,2.91,1.67,4.52,2.18,1.38.44,2.79.68,4.22.81,1.1.1,2.21.14,3.31.08,2.43-.14,4.74-.72,6.9-1.86.75-.4,1.46-.87,2.09-1.45.05-.05.12-.09.19-.13.5.3.97.62,1.47.89,1.56.87,3.21,1.52,4.99,1.82,2.37.41,4.75.49,7.14.19,2.05-.25,4.01-.82,5.78-1.92.67-.42,1.29-.9,1.93-1.36.22-.16.23-.17.51-.03.78.4,1.55.81,2.34,1.18,1.42.67,2.92,1.01,4.47,1.21,1.48.19,2.97.2,4.45.14,2.76-.11,5.34-.81,7.7-2.27.03-.02.07-.03.1-.06.33-.35.64-.23,1.01-.02,1.73.98,3.55,1.78,5.51,2.17,2.35.47,4.71.53,7.09.15,1.95-.31,3.76-.98,5.43-2.02.09-.05.17-.11.25-.17q.35-.25.73-.02c1.09.66,2.21,1.26,3.4,1.71,1.42.53,2.9.76,4.39.9,2.24.21,4.47.1,6.68-.3.24-.04.47-.11.71-.16.09-.02.19-.03.32-.04,0,.13.02.23.02.32ZM129.9,46.52c.07,0,.13-.02.2-.02.4.04.81.07,1.21.13,1.48.24,2.98.27,4.48.32,2.18.08,4.37,0,6.55-.13.08,0,.15,0,.23,0,.02,0,.04.03.13.1-4.35,1.64-8.59,1.56-12.79-.4ZM143.08,43.45c-3.83,0-7.65-.02-11.48-.03-1.16,0-2.31,0-3.47.03-.25,0-.4-.07-.53-.29-.61-1.04-1.23-2.08-1.84-3.12-1.29-2.16-2.57-4.33-3.86-6.49-.49-.82-1-1.62-1.49-2.44-.03-.05-.05-.11-.1-.22.13,0,.2-.02.27-.02,3.27.06,6.53.11,9.8.17.2,0,.41.02.61,0,.37-.04.66.07.92.34,1.09,1.14,2.2,2.26,3.28,3.41,2.26,2.41,4.5,4.84,6.75,7.26.33.35.68.69,1.01,1.03.09.09.16.19.26.29-.06.03-.09.06-.13.06Z"/>
        <path d="M133.03,68.15c-.7-.49-1.51-.73-2.35-.83-1.07-.12-2.15-.22-3.23-.32-2.79-.25-5.57-.48-8.36-.73-2.77-.26-5.54-.55-8.31-.81-2.65-.25-5.29-.47-7.94-.7-3.68-.32-7.37-.67-11.06-.96-3.97-.32-7.93-.61-11.9-.89-1.32-.09-2.64-.15-3.96-.16-1.06,0-1.87.51-2.43,1.41-.35.56-.53,1.18-.57,1.84-.04.56-.06,1.12-.07,1.68-.05,4-.1,8.01-.13,12.01-.08,10.34-.14,20.67-.21,31.01,0,.28,0,.56.04.84.18,1.66,1.25,2.83,2.95,2.96.33.03.66.04.99.04,1.86.02,3.71.04,5.57.04,7.07,0,14.14,0,21.21,0v.03c5.36,0,10.73.01,16.09,0,3.78-.01,7.55-.06,11.33-.12,1.42-.02,2.41-.75,3.05-2,.3-.59.36-1.21.36-1.85,0-1.59.01-3.18.03-4.77,0-.19.02-.39.1-.55.16-.31.19-.62.2-.96.05-3.32.11-6.63.17-9.95.03-1.79.1-3.58.13-5.38.1-5.75.2-11.49.28-17.24.02-1.55-.71-2.75-1.97-3.63ZM131.34,72c-.07,5.59-.14,11.19-.22,16.78-.07,4.56-.14,9.13-.21,13.69,0,.28,0,.56,0,.84,0,.14-.05.26-.2.28-.49.08-.97.15-1.51.24-.02-.23-.05-.4-.05-.57,0-1.82,0-3.64,0-5.45,0-.34-.02-.69-.06-1.03-.14-.98-1.04-1.79-2.03-1.78-2.38.01-4.75.05-7.13.1-.32,0-.66.09-.96.21-.77.31-1.22.9-1.3,1.73-.04.42-.06.84-.06,1.26-.02,2.19-.03,4.37-.03,6.56,0,.56.06,1.12.14,1.67.08.57.45.96.97,1.19.52.23,1.07.36,1.63.34,2.4-.09,4.8-.16,7.2-.31,1.09-.07,2.17-.22,3.23-.54.03,0,.07,0,.14,0,0,.1.02.2.02.29,0,.79,0,1.58-.02,2.36,0,.27.06.58-.18.79-.29.27-.63.47-1.04.52-.18.02-.36.02-.53.02-12.19-.01-24.38-.02-36.57-.04-5.12,0-10.25-.04-15.37-.06-.24,0-.48,0-.72-.03-.45-.05-.61-.21-.63-.66-.02-.41-.03-.81-.02-1.22.05-4.14.1-8.29.16-12.43.02-1.78.04-3.56.07-5.34.11-7.89.22-15.78.33-23.68,0-.42,0-.84.02-1.26,0-.38.02-.4.39-.37,1.23.08,2.46.16,3.69.24,1.65.11,3.3.23,4.94.36,2.09.16,4.18.33,6.27.51,2.95.26,5.9.52,8.85.8,3.04.28,6.07.57,9.11.85.68.06,1.36.14,2.05.22.05,0,.09.02.18.05-.07.11-.11.19-.17.27-1.79,2.2-3.57,4.4-5.38,6.58-2.57,3.1-5.17,6.18-7.76,9.27-.34.41-.69.82-1.03,1.22-.08.1-.16.2-.24.3-.73,1.01-.25,2.36.95,2.71.49.14.92,0,1.29-.29.37-.3.73-.64,1.03-1.01,2.73-3.28,5.45-6.57,8.18-9.86,1.47-1.77,2.94-3.54,4.4-5.31.62-.74,1.23-1.49,1.84-2.24.11-.14.21-.29.31-.43.19-.27.32-.57.29-.94.11,0,.2,0,.28,0,3.08.27,6.15.55,9.23.81,1.6.14,3.19.25,4.79.4.39.04.77.16,1.15.26.23.06.32.23.32.46,0,.23,0,.46,0,.69ZM125.57,104.13c0,.31-.03.35-.35.36-1.24.05-2.49.1-3.73.15-.22,0-.45,0-.69,0-.01-.16-.03-.27-.03-.38,0-1.76-.01-3.53,0-5.29,0-.65,0-.58.58-.59,1.33-.02,2.67-.05,4-.08.05,0,.1.01.21.03,0,.16.02.3.02.43,0,1.79,0,3.58,0,5.37Z"/>
        <path d="M60.26,99.73c0-2.11,0-4.22,0-6.33,0-.52-.06-1.01-.26-1.49-.42-1-1.19-1.67-2.12-2.15-.9-.47-1.87-.64-2.87-.64-2.08,0-4.17-.01-6.25-.02-.28,0-.56,0-.84.01-.14,0-.28.03-.41.07-1.07.4-1.88,1.52-1.89,2.67-.02,1.87,0,3.74,0,5.61h-.03c0,.52,0,1.04,0,1.56,0,1.4,0,2.8-.01,4.19,0,.86.32,1.56.97,2.1.65.55,1.41.87,2.27.88,1.73.02,3.46,0,5.19.01.75,0,1.5-.04,2.24-.16.85-.13,1.67-.35,2.39-.83,1.05-.7,1.67-1.64,1.64-2.95-.02-.85,0-1.7,0-2.55ZM52.74,102.81c-.11.01-.23.04-.35.04-1,0-2.01,0-3.01,0-.52,0-.56-.04-.57-.56-.01-.76-.01-1.52,0-2.29,0-2.27.01-4.55.02-6.82,0-.14,0-.27,0-.46h3.9c.07.22.1,9.55.03,10.09ZM57.25,93.86c0,.67,0,1.35,0,2.02,0,1.61,0,3.23-.03,4.84,0,.3-.06.61-.12.9-.05.27-.24.4-.51.42-.15-.19-.11-.4-.11-.6-.01-1.14-.01-2.29-.02-3.43,0-1.32,0-2.64-.01-3.96,0-.17-.06-.34-.1-.52-.02-.09-.04-.18-.06-.31.29.1.53.18.77.26.18.06.19.2.19.37Z"/>
        <path d="M55.69,69.67c.54-.63,1.07-1.26,1.58-1.91.34-.43.44-.91.16-1.42-.13-.24-.27-.49-.43-.71-.55-.74-1.56-.75-2.14-.16-.28.29-.57.58-.83.89-1.41,1.66-2.79,3.33-4.21,4.98-2.75,3.22-5.49,6.45-8.28,9.63-2.04,2.32-4.16,4.57-6.22,6.87-2.25,2.51-4.5,5.01-6.71,7.55-1.96,2.25-3.87,4.55-5.79,6.83-.24.29-.46.62-.58.97-.34.98.43,2.05,1.52,2.04.27,0,.58-.15.85-.37.3-.25.6-.52.86-.81.87-.95,1.72-1.91,2.57-2.86,2.19-2.44,4.37-4.88,6.55-7.33,2.43-2.73,4.87-5.46,7.29-8.21,2.81-3.2,5.59-6.42,8.37-9.64,1.82-2.1,3.63-4.22,5.44-6.33Z"/>
        <path d="M23.4,91.14c.36.04.69-.13.97-.38.38-.34.75-.69,1.09-1.07,1.69-1.89,3.39-3.79,5.06-5.7,1.63-1.87,3.22-3.77,4.83-5.65.83-.97,1.68-1.94,2.52-2.91.28-.33.56-.66.84-.99.28-.34.4-.73.35-1.17-.09-.73-.44-1.26-1.13-1.54-.69-.28-1.27-.08-1.77.43-.2.2-.39.4-.57.61-1.42,1.66-2.83,3.33-4.25,4.99-2.43,2.85-4.87,5.7-7.3,8.56-.68.79-1.37,1.57-2.02,2.38-.56.7-.54.86-.06,1.62.33.52.78.82,1.45.82Z"/>
        <path d="M127.73,77.61c-.25-.11-.53-.18-.81-.2-.62-.04-1.16.15-1.56.64-.35.43-.67.9-1.01,1.34-.97,1.25-1.94,2.49-2.9,3.73-1.15,1.49-2.29,2.98-3.46,4.46-1.66,2.11-3.35,4.19-5,6.3-2.07,2.63-4.11,5.27-6.17,7.9-.57.73-1.14,1.47-1.86,2.06-.18.15-.41.3-.63.33-.39.05-.78.02-1.17,0-.24-.02-.39-.18-.42-.42-.02-.13-.04-.25-.04-.38,0-.29-.01-.58,0-.88,0-1.46.01-2.92.02-4.39,0-1.06-.67-2.02-1.63-2.28-.24-.07-.5-.08-.75-.08-2.24,0-4.47,0-6.71,0-.36,0-.71.02-1.07.02-.37,0-.69.14-.98.37-.51.39-.76.88-.76,1.54,0,2.22,0,4.45-.01,6.67,0,.47-.07.53-.54.45-.04,0-.07-.03-.17-.07,0-.14,0-.28,0-.41,0-.57,0-1.14,0-1.72.01-3.29.03-6.59.04-9.88,0-.97-.54-1.58-1.49-1.7-.34-.04-.68-.06-1.03-.06-2.3-.02-4.6-.03-6.9-.04-.29,0-.58,0-.88.02-.35.01-.64.15-.89.39-.41.4-.66.88-.68,1.45-.03.7-.05,1.4-.05,2.1-.02,3.32-.03,6.64-.04,9.95,0,.46.02.92.08,1.37.08.58.39,1.04.86,1.39.46.34.97.54,1.56.53,1.74-.02,3.48-.03,5.22-.04,4.41-.04,8.82-.09,13.23-.13,1.98-.02,3.97-.05,5.95-.06.58,0,1.09-.17,1.49-.58.45-.45.89-.91,1.28-1.4,2.07-2.59,4.13-5.19,6.19-7.79,1.41-1.78,2.82-3.57,4.23-5.35.9-1.14,1.78-2.28,2.67-3.43,1.11-1.42,2.22-2.85,3.32-4.27,1.19-1.54,2.38-3.08,3.56-4.62.22-.29.44-.59.6-.92.37-.75.08-1.56-.69-1.91ZM86.98,94.77c0,3.21-.02,6.43-.03,9.64,0,.36-.03.39-.39.39-1.47,0-2.95.02-4.42.02-.16,0-.32-.03-.52-.04-.01-.24-.04-.45-.04-.66,0-2.81,0-5.61,0-8.42,0-.3,0-.61,0-.91,0-.4.01-.41.4-.41,1.26,0,2.51,0,3.77,0,.38,0,.76,0,1.2,0,0,.18,0,.29,0,.4ZM99.24,104.36c0,.31-.02.34-.31.34-1.37,0-2.74,0-4.11,0-.09,0-.17-.02-.31-.04,0-.16-.02-.28-.02-.4.01-1.64.03-3.28.04-4.91,0-.39.01-.41.41-.42,1.32,0,2.64-.01,3.96-.02.34,0,.36.02.36.38,0,1.59,0,3.18-.01,4.76,0,.1,0,.2,0,.3Z"/>
      </g>
      <g>
        <path d="M168.38,18.72c.44.12.86.28,1.24.49.39.21.64.55.76,1.04.15.51.12.95-.11,1.3-.23.36-.54.69-.93.99-.15.12-.33.23-.53.36-.2.12-.4.24-.58.36-2.51,1.6-4.38,3.7-5.62,6.32-.31.76-.72,1.57-1.23,2.42-1.4,2.63-2.4,5.5-2.99,8.61-.04.24-.09.52-.16.86-.06.34-.16.67-.29,1-.13.33-.29.62-.48.87-.19.25-.43.41-.72.47-.35.1-.72.04-1.11-.18-.43-.28-.71-.63-.86-1.05-.1-.32-.18-.64-.23-.97-.05-.32-.1-.65-.13-.98-.19-1.44-.36-2.86-.51-4.26-.15-1.41-.41-2.84-.76-4.29-.05-.16-.08-.34-.08-.54,0-.2-.05-.37-.13-.53-.33-1.22-.83-2.33-1.5-3.34-.67-1-1.67-1.78-2.98-2.33-.55-.2-1.04-.48-1.48-.83-.22-.18-.38-.39-.49-.64-.11-.25-.17-.51-.18-.77-.01-.26.04-.51.14-.74.11-.23.27-.4.49-.52,1.38-.68,2.44-1.6,3.18-2.75.74-1.15,1.31-2.38,1.74-3.69.75-2.23,1.49-4.45,2.21-6.67.72-2.21,1.13-4.53,1.23-6.96,0-.07,0-.12,0-.15.01-.03.02-.07.01-.1.08-.47.27-.85.57-1.13.3-.28.65-.41,1.05-.39.74.15,1.25.54,1.52,1.18.16.84.32,1.62.5,2.33.18.71.3,1.41.38,2.09.18,1.37.49,2.74.92,4.12.43,1.38,1.01,2.67,1.74,3.88.73,1.21,1.62,2.27,2.67,3.16,1.06.9,2.3,1.55,3.74,1.95Z"/>
        <path class="cls-2" d="M164.39,22.18c.18-.18.35-.38.51-.58s.31-.41.45-.62c-1.93-1.35-3.58-2.83-4.95-4.45-1.37-1.62-2.4-3.5-3.09-5.65-.04-.06-.11-.1-.21-.1-.1,0-.22-.03-.36-.09-.35,1.1-.7,2.2-1.08,3.32-.38,1.12-.74,2.22-1.08,3.32-.38,1.1-.92,2.1-1.64,3.01-.71.9-1.35,1.87-1.9,2.89,1.29.92,2.3,1.96,3.02,3.12.72,1.16,1.29,2.42,1.7,3.76.16.55.33,1.07.52,1.58.19.51.38,1.03.57,1.58l.67-.67c.35-.7.7-1.38,1.04-2.05.34-.67.67-1.35,1-2.04,1.15-2.54,2.76-4.65,4.83-6.33Z"/>
      </g>
      <path d="M148.43,44.23c-.38-.55-.82-1.07-1.28-1.56-2.26-2.44-4.54-4.87-6.81-7.31-2.15-2.31-4.28-4.63-6.42-6.94-.26-.28-.5-.57-.78-.84-.19-.18-.26-.39-.26-.64,0-1.07,0-2.14,0-3.2,0-1.11.02-2.21-.02-3.32-.05-1.94-.8-3.57-2.22-4.89-.25-.23-.53-.44-.79-.66-.07-.05-.13-.12-.22-.2.16-.11.29-.2.42-.29.47-.34.93-.69,1.37-1.06H21.04c-.22.11-.42.21-.61.34-1.4.96-2.39,2.24-2.77,3.92-.12.55-.14,1.14-.15,1.71-.02,2.02-.02,4.04-.03,6.06,0,.3,0,.6.18.88.11.17.02.32-.11.47-1.44,1.65-3.03,3.15-4.62,4.65-2.19,2.07-4.41,4.1-6.61,6.16-1.73,1.61-3.45,3.24-5.17,4.86-.28.26-.54.54-.82.8-.1.09-.23.14-.35.21v4.5c.09.03.2.04.28.09.77.52,1.52,1.06,2.29,1.57.27.18.36.39.35.7-.01,2.07,0,4.14-.02,6.22-.08,13.69-.15,27.38-.24,41.07-.06,10-.15,20.01-.22,30.01,0,.53-.04,1.07-.05,1.6,0,.3,0,.61.03.91.09.81.53,1.38,1.28,1.65.56.2,1.14.35,1.72.47,1.62.34,3.24.65,4.85.99,1.06.22,2.11.47,3.16.71,1.36.3,2.73.43,4.12.43,3.06,0,6.13-.03,9.19-.01,6.28.03,12.56.09,18.84.1,8.05.01,16.09-.03,24.14-.02,8.76,0,17.52.06,26.28.05,6.23,0,12.46-.07,18.69-.09,6.83-.02,13.65,0,20.48,0,1.5,0,3,0,4.5-.02.24,0,.48-.01.72-.05.79-.12,1.35-.7,1.46-1.49.04-.28.06-.56.06-.84.06-2.24.1-4.47.17-6.71.08-2.48.17-4.95.26-7.43.1-2.77.21-5.54.32-8.31.17-4.34.33-8.69.51-13.03.19-4.5.39-8.99.58-13.49.17-3.94.31-7.88.48-11.81.19-4.33.39-8.66.58-12.99.12-2.82.23-5.64.34-8.46,0-.22.11-.33.28-.45.65-.44,1.31-.88,1.93-1.35.46-.35.82-.79,1.1-1.3.44-.79.45-1.6-.06-2.34Z"/>
      <path class="cls-5" d="M21.53,17.45c.54-.65,1.22-1.11,2.03-1.36.26-.08.55-.1.83-.1,3.37.01,6.74.01,10.11.06,4.14.06,8.29.17,12.43.23,3.81.06,7.63.03,11.44.12,6.55.17,13.09.24,19.64.3,4.17.04,8.34.18,12.51.22,5.75.05,11.49.06,17.24.07,5.59,0,11.19,0,16.78,0,.6,0,1.19.07,1.79.11.4.03.77.17,1.11.38,1.23.74,2.01,1.77,2.12,3.24.03.34.04.69.04,1.03,0,1.78,0,3.56,0,5.34,0,.06,0,.13,0,.19-.02.25-.06.3-.33.31-.08,0-.15,0-.23,0-5.39-.11-10.78-.2-16.17-.34-9.01-.23-18.02-.27-27.04-.38-3.5-.04-6.99-.12-10.49-.18,0,0,0,.01,0,.02-9-.15-18-.3-27-.46-3.43-.06-6.86-.11-10.3-.22-5.49-.17-10.98-.22-16.47-.25-.51,0-.51,0-.51-.51,0-2.16,0-4.32,0-6.48,0-.51.16-.94.48-1.33Z"/>
      <path class="cls-5" d="M116.17,43.82c-2.24-.04-4.47-.14-6.7-.22-.16,0-.33,0-.5,0-.31,0-.34-.02-.44-.31-.25-.72-.49-1.44-.73-2.17-.67-1.98-1.36-3.97-2.02-5.95-.44-1.3-.86-2.61-1.29-3.91-.08-.24-.17-.47-.26-.73.11-.01.17-.02.23-.02,3.9.06,7.8.12,11.7.18.23,0,.36.07.48.28.7,1.3,1.4,2.59,2.13,3.87,1.06,1.84,2.14,3.66,3.23,5.49.65,1.09,1.34,2.16,2.01,3.24.04.07.09.14.14.23-.06.03-.09.05-.12.05-2.62,0-5.24.02-7.85-.02Z"/>
      <path class="cls-5" d="M120.46,47.2c-.18.06-.28.1-.38.12-2.04.34-4.09.41-6.14.13-.53-.07-1.06-.14-1.55-.36-.08-.03-.15-.08-.23-.12,0-.03.01-.05.02-.08,2.72.47,5.45.39,8.29.3Z"/>
      <path class="cls-5" d="M97.7,43.17c-2.71-.19-5.42-.43-8.13-.65-.23-.02-.46-.05-.68-.06-.22,0-.33-.11-.35-.32-.04-.3-.09-.6-.12-.91-.23-2.21-.45-4.43-.68-6.64-.14-1.35-.29-2.7-.44-4.06,0-.07,0-.15,0-.29.26.02.48.04.71.04,2.07.03,4.14.06,6.22.08,2.01.03,4.02.05,6.02.08.38,0,.38.01.49.34l4.15,12.48c.02.07.04.14.08.27-.15.01-.28.04-.41.03-2.28-.13-4.57-.25-6.85-.41Z"/>
      <path class="cls-5" d="M101.02,46.98c-.43.22-.9.32-1.37.39-1.43.2-2.86.27-4.29.11-1.39-.15-2.77-.39-4.1-.82-.17-.06-.36-.1-.47-.25.01-.03.02-.07.03-.1,1.13.13,2.26.27,3.4.37,1.13.1,2.26.17,3.38.21,1.14.05,2.28.04,3.42.1Z"/>
      <path class="cls-5" d="M78.49,43.28c-3.5.38-7.01.58-10.53.77-.14,0-.27,0-.48,0,.07-.28.13-.5.17-.72.31-1.6.59-3.2.92-4.79.55-2.68,1.12-5.35,1.67-8.02.01-.05.02-.1.03-.15.1-.38.12-.38.52-.38,2.02.02,4.04.04,6.06.06,2.19.02,4.37.05,6.56.08.35,0,.38.03.42.39.35,3.54.7,7.08,1.05,10.62.02.24.02.48.04.72.02.2-.07.32-.24.38-.2.07-.41.15-.62.19-1.84.39-3.71.63-5.58.83Z"/>
      <path class="cls-5" d="M83.62,46.1c-.13.11-.25.23-.39.32-1.78,1.24-3.79,1.88-5.93,2.1-1.68.17-3.35.13-5.01-.2-.46-.09-.9-.25-1.35-.39-.13-.04-.24-.15-.36-.23,0-.03.02-.06.02-.09.14-.02.29-.06.44-.07,2.06-.17,4.13-.33,6.19-.5,1.58-.13,3.15-.36,4.71-.68.55-.11,1.09-.21,1.67-.26Z"/>
      <path class="cls-5" d="M46.87,44.57c-.27,0-.55.04-.85-.09.17-.33.33-.64.49-.96.82-1.71,1.62-3.42,2.44-5.13,1.01-2.09,2.04-4.18,3.07-6.26.37-.74.76-1.46,1.14-2.2.09-.17.23-.22.41-.21.41,0,.81.01,1.22.02,3.86.07,7.72.13,11.59.2.11,0,.22.02.39.03-.04.26-.07.49-.12.72-.58,2.84-1.16,5.67-1.75,8.51-.29,1.39-.62,2.78-.94,4.16-.03.11-.05.22-.07.34-.08.36-.11.38-.48.4-.55.03-1.09.05-1.64.09-4.96.3-9.93.37-14.9.38Z"/>
      <path class="cls-5" d="M60.36,47.63s-.09.1-.15.12c-2.61.9-5.27,1.15-8,.71-.79-.13-1.58-.28-2.36-.43-.22-.04-.43-.12-.65-.18,0-.04.02-.07.03-.11,3.7-.06,7.41-.12,11.11-.18,0,.02.02.05.02.07Z"/>
      <path class="cls-5" d="M26.66,44.32c-.14,0-.27-.02-.49-.03.08-.16.12-.26.18-.36,1.33-2.08,2.65-4.15,3.99-6.22,1.37-2.11,2.75-4.21,4.12-6.32.33-.5.67-.99.97-1.5.16-.27.35-.36.65-.35,1.56.04,3.13.06,4.69.09,2.64.05,5.29.09,7.93.14.21,0,.43,0,.68,0-.03.1-.04.17-.06.23-1.08,2.18-2.19,4.36-3.25,6.55-1.04,2.15-2.03,4.32-3.05,6.48-.2.42-.43.84-.64,1.26-.09.18-.22.25-.43.24-5.1-.07-10.19-.14-15.29-.21Z"/>
      <path class="cls-5" d="M37.74,48.07c-.08.03-.16.09-.25.1-.44.07-.87.17-1.32.19-1.53.08-3.07.09-4.6-.04-.58-.05-1.15-.19-1.72-.29-.08-.01-.16-.06-.23-.09,0-.04.01-.07.02-.11,2.7.06,5.4.13,8.1.19,0,.02,0,.04.01.06Z"/>
      <path class="cls-5" d="M5.36,43.7c-.09-.22-.07-.4.09-.56.2-.21.41-.41.63-.61,3.46-3.3,6.91-6.6,10.37-9.9,1.05-1,2.12-1.97,3.18-2.97.24-.23.48-.31.82-.3.9.04,1.8.04,2.71.04,2.81,0,5.62,0,8.43,0,.03,0,.07.02.13.03-1.43,2.18-2.85,4.31-4.25,6.46-1.65,2.53-3.3,5.07-4.94,7.61-.15.23-.32.46-.47.69-.1.14-.22.22-.41.23-1.96.05-3.91.11-5.87-.01-1.62-.1-3.25-.24-4.87-.32-1.69-.08-3.38-.12-5.07-.18-.19,0-.37.01-.47-.23Z"/>
      <path class="cls-5" d="M5.95,47.47c2.08-.03,4.17-.08,6.25-.07,1.57,0,3.15.09,4.72.11.76.01,1.52-.03,2.29-.04.08,0,.17,0,.28.07-.07.05-.14.12-.22.16-1.81.93-3.74,1.27-5.76,1.18-1.32-.05-2.63-.21-3.94-.43-1.11-.19-2.23-.39-3.34-.59-.14-.02-.27-.07-.4-.13-.07-.03-.11-.11-.2-.21.14-.03.22-.05.3-.05Z"/>
      <path class="cls-6" d="M61.2,61.06c-.09,3.72-.22,7.45-.29,11.17-.06,3.29-.07,6.58-.11,9.88-.04,3.5-.07,6.99-.11,10.49,0,.13,0,.26-.03.38-.13.42-.09.86-.09,1.29,0,2.83,0,5.67-.02,8.5-.04,4.68-.11,9.36-.17,14.03-.04,3-.09,6-.14,9-.03,1.68-.06,3.36-.09,5.03,0,.06,0,.12-.02.24-.18,0-.33.03-.48.03-7.28-.03-14.57-.04-21.85-.09-6.74-.05-13.47-.15-20.21-.23-.62,0-.64.1-.64-.66,0-4,.03-8.01.04-12.01.02-4.61-.04-9.23.06-13.84.3-14.12.15-28.24.22-42.37,0-.83.01-1.65.02-2.48,0-.09,0-.18,0-.27,0-.21.12-.27.32-.28.47,0,.94-.03,1.41-.03,3.8,0,7.6,0,11.4,0,9.2-.04,18.41-.09,27.61-.14.64,0,1.27,0,1.91.02.74.02,1.18.42,1.25,1.16.04.39.03.79.02,1.18Z"/>
      <path class="cls-4" d="M141.63,51.03c-.2,5.58-.4,11.15-.61,16.73-.17,4.56-.35,9.12-.53,13.68-.2,5.16-.4,10.31-.61,15.47-.12,3.07-.26,6.15-.38,9.22-.13,3.18-.27,6.35-.37,9.53-.15,4.76-.28,9.53-.41,14.29,0,.22-.01.43-.03.65-.02.26-.06.3-.32.33-.15.02-.3.02-.46.02-17.33.14-34.65.24-51.98.19-6.51-.02-13.02-.04-19.53-.06-.83,0-1.65,0-2.48,0-.1,0-.2,0-.34-.02-.01-.15-.03-.28-.03-.41.02-3.29-.02-6.59.08-9.88.29-9.02.26-18.05.38-27.07.05-3.66.14-7.32.19-10.98.09-7.17.17-14.34.24-21.51,0-.79-.01-1.58-.05-2.36-.03-.54-.21-1.04-.47-1.52-.37-.69-.95-1.12-1.68-1.34-.56-.18-1.13-.28-1.72-.28-2.16-.01-4.32-.04-6.48-.05-8.5-.02-17.01-.05-25.51-.05-3.27,0-6.53.03-9.8.05-.76,0-1.53.02-2.27.2-1.44.35-2.36,1.39-2.48,2.87-.06.72-.07,1.45-.07,2.17-.03,9.43-.07,18.86-.09,28.3-.03,13.08-.04,26.16-.06,39.24,0,.5,0,.99,0,1.49,0,.1-.01.2-.02.34-.16-.01-.29-.02-.42-.04-1.89-.34-3.78-.68-5.66-1.03-.56-.1-1.12-.22-1.68-.33-.16-.03-.25-.11-.24-.28,0-.1,0-.2,0-.31.05-9.83.09-19.65.16-29.48.04-6.31.09-12.61.16-18.92.05-4.02.17-8.03.24-12.05.08-5.41.14-10.83.2-16.24,0-.09.01-.17.02-.29.1,0,.18,0,.26.03,2.98.87,6.01,1.14,9.09.86,1.43-.13,2.85-.38,4.14-1.07,1.06-.56,2.06-1.2,2.92-2.05.16-.16.31-.34.48-.53.07.03.16.06.22.1,1.18.83,2.47,1.47,3.79,2.02.82.34,1.7.5,2.58.64.84.14,1.68.26,2.53.37,1.23.15,2.46.05,3.68-.16,1.2-.21,2.41-.38,3.58-.76,1.09-.35,2.14-.82,3.01-1.6.16-.14.29-.31.46-.5.26.15.49.27.72.41,1.43.88,2.91,1.67,4.52,2.18,1.38.44,2.79.68,4.22.81,1.1.1,2.21.14,3.31.08,2.43-.14,4.74-.72,6.9-1.86.75-.4,1.46-.87,2.09-1.45.05-.05.12-.09.19-.13.5.3.97.62,1.47.89,1.56.87,3.21,1.52,4.99,1.82,2.37.41,4.75.49,7.14.19,2.05-.25,4.01-.82,5.78-1.92.67-.42,1.29-.9,1.93-1.36.22-.16.23-.17.51-.03.78.4,1.55.81,2.34,1.18,1.42.67,2.92,1.01,4.47,1.21,1.48.19,2.97.2,4.45.14,2.76-.11,5.34-.81,7.7-2.27.03-.02.07-.03.1-.06.33-.35.64-.23,1.01-.02,1.73.98,3.55,1.78,5.51,2.17,2.35.47,4.71.53,7.09.15,1.95-.31,3.76-.98,5.43-2.02.09-.05.17-.11.25-.17q.35-.25.73-.02c1.09.66,2.21,1.26,3.4,1.71,1.42.53,2.9.76,4.39.9,2.24.21,4.47.1,6.68-.3.24-.04.47-.11.71-.16.09-.02.19-.03.32-.04,0,.13.02.23.02.32Z"/>
      <path class="cls-5" d="M129.9,46.52c.07,0,.13-.02.2-.02.4.04.81.07,1.21.13,1.48.24,2.98.27,4.48.32,2.18.08,4.37,0,6.55-.13.08,0,.15,0,.23,0,.02,0,.04.03.13.1-4.35,1.64-8.59,1.56-12.79-.4Z"/>
      <path class="cls-5" d="M143.08,43.45c-3.83,0-7.65-.02-11.48-.03-1.16,0-2.31,0-3.47.03-.25,0-.4-.07-.53-.29-.61-1.04-1.23-2.08-1.84-3.12-1.29-2.16-2.57-4.33-3.86-6.49-.49-.82-1-1.62-1.49-2.44-.03-.05-.05-.11-.1-.22.13,0,.2-.02.27-.02,3.27.06,6.53.11,9.8.17.2,0,.41.02.61,0,.37-.04.66.07.92.34,1.09,1.14,2.2,2.26,3.28,3.41,2.26,2.41,4.5,4.84,6.75,7.26.33.35.68.69,1.01,1.03.09.09.16.19.26.29-.06.03-.09.06-.13.06Z"/>
      <path d="M133.03,68.15c-.7-.49-1.51-.73-2.35-.83-1.07-.12-2.15-.22-3.23-.32-2.79-.25-5.57-.48-8.36-.73-2.77-.26-5.54-.55-8.31-.81-2.65-.25-5.29-.47-7.94-.7-3.68-.32-7.37-.67-11.06-.96-3.97-.32-7.93-.61-11.9-.89-1.32-.09-2.64-.15-3.96-.16-1.06,0-1.87.51-2.43,1.41-.35.56-.53,1.18-.57,1.84-.04.56-.06,1.12-.07,1.68-.05,4-.1,8.01-.13,12.01-.08,10.34-.14,20.67-.21,31.01,0,.28,0,.56.04.84.18,1.66,1.25,2.83,2.95,2.96.33.03.66.04.99.04,1.86.02,3.71.04,5.57.04,7.07,0,14.14,0,21.21,0v.03c5.36,0,10.73.01,16.09,0,3.78-.01,7.55-.06,11.33-.12,1.42-.02,2.41-.75,3.05-2,.3-.59.36-1.21.36-1.85,0-1.59.01-3.18.03-4.77,0-.19.02-.39.1-.55.16-.31.19-.62.2-.96.05-3.32.11-6.63.17-9.95.03-1.79.1-3.58.13-5.38.1-5.75.2-11.49.28-17.24.02-1.55-.71-2.75-1.97-3.63Z"/>
      <path class="cls-3" d="M131.34,72c-.07,5.59-.14,11.19-.22,16.78-.07,4.56-.14,9.13-.21,13.69,0,.28,0,.56,0,.84,0,.14-.05.26-.2.28-.49.08-.97.15-1.51.24-.02-.23-.05-.4-.05-.57,0-1.82,0-3.64,0-5.45,0-.34-.02-.69-.06-1.03-.14-.98-1.04-1.79-2.03-1.78-2.38.01-4.75.05-7.13.1-.32,0-.66.09-.96.21-.77.31-1.22.9-1.3,1.73-.04.42-.06.84-.06,1.26-.02,2.19-.03,4.37-.03,6.56,0,.56.06,1.12.14,1.67.08.57.45.96.97,1.19.52.23,1.07.36,1.63.34,2.4-.09,4.8-.16,7.2-.31,1.09-.07,2.17-.22,3.23-.54.03,0,.07,0,.14,0,0,.1.02.2.02.29,0,.79,0,1.58-.02,2.36,0,.27.06.58-.18.79-.29.27-.63.47-1.04.52-.18.02-.36.02-.53.02-12.19-.01-24.38-.02-36.57-.04-5.12,0-10.25-.04-15.37-.06-.24,0-.48,0-.72-.03-.45-.05-.61-.21-.63-.66-.02-.41-.03-.81-.02-1.22.05-4.14.1-8.29.16-12.43.02-1.78.04-3.56.07-5.34.11-7.89.22-15.78.33-23.68,0-.42,0-.84.02-1.26,0-.38.02-.4.39-.37,1.23.08,2.46.16,3.69.24,1.65.11,3.3.23,4.94.36,2.09.16,4.18.33,6.27.51,2.95.26,5.9.52,8.85.8,3.04.28,6.07.57,9.11.85.68.06,1.36.14,2.05.22.05,0,.09.02.18.05-.07.11-.11.19-.17.27-1.79,2.2-3.57,4.4-5.38,6.58-2.57,3.1-5.17,6.18-7.76,9.27-.34.41-.69.82-1.03,1.22-.08.1-.16.2-.24.3-.73,1.01-.25,2.36.95,2.71.49.14.92,0,1.29-.29.37-.3.73-.64,1.03-1.01,2.73-3.28,5.45-6.57,8.18-9.86,1.47-1.77,2.94-3.54,4.4-5.31.62-.74,1.23-1.49,1.84-2.24.11-.14.21-.29.31-.43.19-.27.32-.57.29-.94.11,0,.2,0,.28,0,3.08.27,6.15.55,9.23.81,1.6.14,3.19.25,4.79.4.39.04.77.16,1.15.26.23.06.32.23.32.46,0,.23,0,.46,0,.69Z"/>
      <path class="cls-1" d="M125.57,104.13c0,.31-.03.35-.35.36-1.24.05-2.49.1-3.73.15-.22,0-.45,0-.69,0-.01-.16-.03-.27-.03-.38,0-1.76-.01-3.53,0-5.29,0-.65,0-.58.58-.59,1.33-.02,2.67-.05,4-.08.05,0,.1.01.21.03,0,.16.02.3.02.43,0,1.79,0,3.58,0,5.37Z"/>
      <path d="M60.26,99.73c0-2.11,0-4.22,0-6.33,0-.52-.06-1.01-.26-1.49-.42-1-1.19-1.67-2.12-2.15-.9-.47-1.87-.64-2.87-.64-2.08,0-4.17-.01-6.25-.02-.28,0-.56,0-.84.01-.14,0-.28.03-.41.07-1.07.4-1.88,1.52-1.89,2.67-.02,1.87,0,3.74,0,5.61h-.03c0,.52,0,1.04,0,1.56,0,1.4,0,2.8-.01,4.19,0,.86.32,1.56.97,2.1.65.55,1.41.87,2.27.88,1.73.02,3.46,0,5.19.01.75,0,1.5-.04,2.24-.16.85-.13,1.67-.35,2.39-.83,1.05-.7,1.67-1.64,1.64-2.95-.02-.85,0-1.7,0-2.55Z"/>
      <path class="cls-1" d="M52.74,102.81c-.11.01-.23.04-.35.04-1,0-2.01,0-3.01,0-.52,0-.56-.04-.57-.56-.01-.76-.01-1.52,0-2.29,0-2.27.01-4.55.02-6.82,0-.14,0-.27,0-.46h3.9c.07.22.1,9.55.03,10.09Z"/>
      <path class="cls-1" d="M57.25,93.86c0,.67,0,1.35,0,2.02,0,1.61,0,3.23-.03,4.84,0,.3-.06.61-.12.9-.05.27-.24.4-.51.42-.15-.19-.11-.4-.11-.6-.01-1.14-.01-2.29-.02-3.43,0-1.32,0-2.64-.01-3.96,0-.17-.06-.34-.1-.52-.02-.09-.04-.18-.06-.31.29.1.53.18.77.26.18.06.19.2.19.37Z"/>
      <path class="cls-1" d="M55.69,69.67c.54-.63,1.07-1.26,1.58-1.91.34-.43.44-.91.16-1.42-.13-.24-.27-.49-.43-.71-.55-.74-1.56-.75-2.14-.16-.28.29-.57.58-.83.89-1.41,1.66-2.79,3.33-4.21,4.98-2.75,3.22-5.49,6.45-8.28,9.63-2.04,2.32-4.16,4.57-6.22,6.87-2.25,2.51-4.5,5.01-6.71,7.55-1.96,2.25-3.87,4.55-5.79,6.83-.24.29-.46.62-.58.97-.34.98.43,2.05,1.52,2.04.27,0,.58-.15.85-.37.3-.25.6-.52.86-.81.87-.95,1.72-1.91,2.57-2.86,2.19-2.44,4.37-4.88,6.55-7.33,2.43-2.73,4.87-5.46,7.29-8.21,2.81-3.2,5.59-6.42,8.37-9.64,1.82-2.1,3.63-4.22,5.44-6.33Z"/>
      <path class="cls-1" d="M23.4,91.14c.36.04.69-.13.97-.38.38-.34.75-.69,1.09-1.07,1.69-1.89,3.39-3.79,5.06-5.7,1.63-1.87,3.22-3.77,4.83-5.65.83-.97,1.68-1.94,2.52-2.91.28-.33.56-.66.84-.99.28-.34.4-.73.35-1.17-.09-.73-.44-1.26-1.13-1.54-.69-.28-1.27-.08-1.77.43-.2.2-.39.4-.57.61-1.42,1.66-2.83,3.33-4.25,4.99-2.43,2.85-4.87,5.7-7.3,8.56-.68.79-1.37,1.57-2.02,2.38-.56.7-.54.86-.06,1.62.33.52.78.82,1.45.82Z"/>
      <path d="M127.73,77.61c-.25-.11-.53-.18-.81-.2-.62-.04-1.16.15-1.56.64-.35.43-.67.9-1.01,1.34-.97,1.25-1.94,2.49-2.9,3.73-1.15,1.49-2.29,2.98-3.46,4.46-1.66,2.11-3.35,4.19-5,6.3-2.07,2.63-4.11,5.27-6.17,7.9-.57.73-1.14,1.47-1.86,2.06-.18.15-.41.3-.63.33-.39.05-.78.02-1.17,0-.24-.02-.39-.18-.42-.42-.02-.13-.04-.25-.04-.38,0-.29-.01-.58,0-.88,0-1.46.01-2.92.02-4.39,0-1.06-.67-2.02-1.63-2.28-.24-.07-.5-.08-.75-.08-2.24,0-4.47,0-6.71,0-.36,0-.71.02-1.07.02-.37,0-.69.14-.98.37-.51.39-.76.88-.76,1.54,0,2.22,0,4.45-.01,6.67,0,.47-.07.53-.54.45-.04,0-.07-.03-.17-.07,0-.14,0-.28,0-.41,0-.57,0-1.14,0-1.72.01-3.29.03-6.59.04-9.88,0-.97-.54-1.58-1.49-1.7-.34-.04-.68-.06-1.03-.06-2.3-.02-4.6-.03-6.9-.04-.29,0-.58,0-.88.02-.35.01-.64.15-.89.39-.41.4-.66.88-.68,1.45-.03.7-.05,1.4-.05,2.1-.02,3.32-.03,6.64-.04,9.95,0,.46.02.92.08,1.37.08.58.39,1.04.86,1.39.46.34.97.54,1.56.53,1.74-.02,3.48-.03,5.22-.04,4.41-.04,8.82-.09,13.23-.13,1.98-.02,3.97-.05,5.95-.06.58,0,1.09-.17,1.49-.58.45-.45.89-.91,1.28-1.4,2.07-2.59,4.13-5.19,6.19-7.79,1.41-1.78,2.82-3.57,4.23-5.35.9-1.14,1.78-2.28,2.67-3.43,1.11-1.42,2.22-2.85,3.32-4.27,1.19-1.54,2.38-3.08,3.56-4.62.22-.29.44-.59.6-.92.37-.75.08-1.56-.69-1.91Z"/>
      <path class="cls-1" d="M86.98,94.77c0,3.21-.02,6.43-.03,9.64,0,.36-.03.39-.39.39-1.47,0-2.95.02-4.42.02-.16,0-.32-.03-.52-.04-.01-.24-.04-.45-.04-.66,0-2.81,0-5.61,0-8.42,0-.3,0-.61,0-.91,0-.4.01-.41.4-.41,1.26,0,2.51,0,3.77,0,.38,0,.76,0,1.2,0,0,.18,0,.29,0,.4Z"/>
      <path class="cls-1" d="M99.24,104.36c0,.31-.02.34-.31.34-1.37,0-2.74,0-4.11,0-.09,0-.17-.02-.31-.04,0-.16-.02-.28-.02-.4.01-1.64.03-3.28.04-4.91,0-.39.01-.41.41-.42,1.32,0,2.64-.01,3.96-.02.34,0,.36.02.36.38,0,1.59,0,3.18-.01,4.76,0,.1,0,.2,0,.3Z"/>
    </g>
  </g>
</svg>