<?xml version="1.0" encoding="UTF-8"?>
<svg id="Capa_2" data-name="Capa 2" xmlns="http://www.w3.org/2000/svg" viewBox="0 0 173.53 151.06">
  <defs>
    <style>
      .cls-1 {
        fill: #ffb3eb;
      }

      .cls-2 {
        fill: #fff;
      }

      .cls-3 {
        fill: #fff7bb;
      }

      .cls-4 {
        fill: #ffaeee;
      }

      .cls-5 {
        fill: #020000;
      }

      .cls-6 {
        fill: #ffe6f9;
      }

      .cls-7 {
        fill: #ff0043;
      }
    </style>
  </defs>
  <g id="Capa_1-2" data-name="Capa 1">
    <g>
      <g>
        <path d="M171.28,21.49c.48.13.92.3,1.34.52.41.22.69.59.81,1.11.17.55.13,1.02-.12,1.4-.24.38-.58.74-1,1.07-.16.12-.36.25-.57.38-.22.13-.43.26-.62.39-2.69,1.71-4.71,3.98-6.04,6.79-.34.82-.78,1.68-1.32,2.6-1.51,2.83-2.58,5.91-3.21,9.25-.04.25-.1.56-.17.92-.07.36-.17.72-.31,1.07-.14.35-.31.66-.51.94-.2.27-.46.44-.77.51-.38.11-.78.05-1.19-.19-.46-.31-.77-.68-.92-1.13-.11-.34-.19-.69-.25-1.04-.06-.35-.1-.7-.14-1.05-.2-1.54-.39-3.07-.55-4.58-.16-1.51-.44-3.05-.82-4.6-.05-.17-.08-.36-.09-.58,0-.21-.05-.4-.14-.57-.36-1.31-.89-2.51-1.61-3.59-.72-1.08-1.79-1.91-3.2-2.51-.59-.22-1.12-.52-1.59-.89-.23-.19-.41-.42-.53-.69-.12-.27-.18-.55-.2-.83-.01-.28.04-.55.15-.79.12-.24.29-.43.53-.56,1.49-.73,2.62-1.71,3.41-2.96.79-1.24,1.41-2.56,1.86-3.96.81-2.4,1.6-4.79,2.37-7.16.77-2.38,1.22-4.87,1.32-7.48,0-.07,0-.12,0-.16.01-.04.02-.07.01-.11.09-.51.29-.91.62-1.21.32-.3.7-.44,1.13-.42.8.16,1.34.58,1.63,1.26.17.91.35,1.74.54,2.5.19.76.32,1.51.4,2.25.19,1.47.52,2.95.99,4.43.46,1.48,1.08,2.87,1.86,4.17.78,1.3,1.74,2.43,2.87,3.4,1.14.96,2.47,1.66,4.01,2.1Z"/>
        <path class="cls-3" d="M166.98,25.21c.19-.2.37-.4.55-.62s.33-.44.49-.67c-2.08-1.45-3.85-3.04-5.32-4.78-1.47-1.74-2.58-3.77-3.32-6.07-.04-.07-.12-.1-.22-.11-.11,0-.24-.04-.38-.09-.37,1.18-.76,2.37-1.16,3.57-.4,1.2-.79,2.39-1.16,3.57-.41,1.18-.99,2.26-1.76,3.23-.77.97-1.45,2.01-2.04,3.1,1.39.99,2.47,2.11,3.24,3.36.78,1.25,1.38,2.6,1.82,4.04.17.59.36,1.15.56,1.7.2.55.4,1.11.61,1.69l.72-.72c.38-.75.75-1.49,1.12-2.2.37-.71.72-1.45,1.07-2.2,1.23-2.73,2.96-5,5.18-6.8Z"/>
      </g>
      <path class="cls-5" d="M145.26,37.82c-3.57-.07-7.14-.21-10.7-.39-1.87-.09-1.89-.16-1.99-2.16-.07-1.33-.52-2.49-1.31-3.52-.5-.66-1.04-1.29-1.56-1.93,2.35-1.69,3.54-2.88,4.29-4.31,1.87-3.54.15-6.74-3.8-7.15-1.63-.17-3.27-.03-5.25.12.7-1.1,1.13-1.81,1.6-2.51,1.27-1.9,1.73-4.03,1.91-6.27.17-2.04-.67-3.45-2.48-4.31-2.33-1.12-4.74-1.25-7.19-.42-7.71,2.62-14.17,7.26-20.21,12.56-1.09.96-1.93,1.83-3.38.61-.48-.4-1.27-.51-1.93-.59-5.79-.64-11.43-.16-16.98,2.41-.82-2.84-3.24-4.45-5.12-6.51-3.64-3.99-7.84-7.31-12.52-9.98C54.45,1.08,49.99-.56,45.03.18c-4.14.62-6.33,3.76-5.64,7.88.53,3.17,2.27,5.62,4.57,7.75.71.66,1.61,1.13,2.15,1.99-.77.62-1.57.49-2.31.62-1.35.24-2.65.6-3.84,1.3-3.46,2.06-3.56,6.08-.23,8.31.7.47,1.64.5,2.27,1.39-.87.97-.75,2.28-.9,3.64-2.84-1.34-5.85-1.53-8.64-2.52-1.38-.49-2.27,0-2.97,1.19-.56.95-1.21,1.85-1.84,2.76-4.96,7.12-9.75,14.36-13.28,22.31-3.9,8.77-7.71,17.59-10.69,26.74-1.08,3.31-2.26,6.59-3.4,9.88-.57,1.62-.37,2.5,1.18,3.08,3.82,1.41,7.47,3.22,11.47,4.19,4.53,1.1,8.88,2.86,13.45,3.88.17.04.32.11.49.15.79.21,1.06.71.97,1.52-.29,2.54-.1,5.08-.11,7.63-.02,5.18,0,10.37-.19,15.56-.18,4.67.01,9.35.17,14.02.11,3.23,2.16,5.52,5.33,6.25,2.33.54,4.68.79,7.07.89,9.61.41,19.22-.22,28.82-.03,9.95.2,19.9-.35,29.84.29,3.91.25,7.82.23,11.73.14,5.69-.13,11.4-.2,17.08-.5,4.49-.24,9.01-.2,13.44-1.19,3.38-.75,4.78-2.43,4.79-5.83.02-3.06.01-6.12-.03-9.18-.16-11.73-.26-23.48.18-35.2.54-14.52.81-29.06,1.9-43.57.35-4.58.6-9.16,1.01-13.73.32-3.51-.01-3.9-3.64-3.98Z"/>
      <path class="cls-4" d="M76.81,24.94c.59-2.63,2.09-3.86,4.9-4.27,3.37-.49,6.69-.95,10.1-.73,2.07.13,3.24,1.09,3.95,2.97.77,2.02,1.29,4.04.97,6.21.39,2.22-.38,4.38-.41,6.57-.01.77-.56,1.04-1.22.94-4.04-.63-8.13-.21-12.18-.63-1.52-.16-3.03-.35-4.56-.33-1.02.01-1.62-.3-1.57-1.44.05-1.18.03-2.37.04-3.55h0c-.59-1.9-.79-3.81-.03-5.73Z"/>
      <path class="cls-6" d="M75.6,41.63c-.03,1.41.23,2.83-.14,4.57-6.75-3.33-13.27-6.57-20.38-8.36,0-.17.01-.35.02-.52.82-.08,1.66-.28,2.47-.21,4.75.38,9.53.03,14.26.43,4.66.39,3.84.13,3.76,4.1Z"/>
      <path class="cls-1" d="M41.47,26.06c-.85-.42-1.64-1.03-1.58-2.11.06-1.02.7-1.73,1.63-2.11,2.47-1.02,5.04-1.45,7.71-1.17.59.06,1.17.21,1.76.3.87.13,1.81.22,2.16-.8.34-.99-.44-1.55-1.16-2.04-.42-.29-.87-.53-1.28-.84-2.8-2.08-5.56-4.2-7.45-7.23-.59-.95-1.06-1.93-1.15-3.07-.15-2.19.85-3.48,3.01-4.02,2.24-.56,4.38-.14,6.53.45,5.02,1.39,9.2,4.34,13.27,7.4,3.83,2.88,6.8,6.61,9.55,10.51.47.67.47,1.21.15,1.87-.59,1.24-.88,2.55-.89,4.21-6.48-1.01-12.83-2.79-19.7-1.16,2.72.7,5.12,1.08,7.54,1.37h0,0c2.85-.23,5.49.94,8.25,1.3,1.38.18,3.22-.33,4.06.83.7.97.51,2.59.7,3.93.21,1.45.11,1.56-1.43,1.45-7.53-.53-15.07-.44-22.61-.33-1.41.02-2.76.52-4.27.06-1.25-.38-1.9-.93-2.08-2.15-.89-.94-.47-1.61.4-2.3,1.8-1.42,1.72-2.23-.3-3.19-.92-.44-1.91-.72-2.82-1.17Z"/>
      <path class="cls-2" d="M26.82,101.08c-4.91-1.34-9.72-3-14.7-4.15-2.7-.63-5.23-1.97-7.85-2.95-.94-.35-.72-.9-.51-1.61,1.72-5.6,3.42-11.22,5.69-16.63,3.75-8.92,7.37-17.9,12.09-26.4,2.9-5.21,6.43-10,9.6-15.02.62-.98,1.21-.88,2.1-.56,2.79,1.01,5.58,2.06,8.39,2.92,6.25,1.9,12.44,4.01,18.73,5.76,3.87,1.08,7.51,2.65,10.8,4.99,1.46,1.04,3.18,1.6,4.8,2.34.44.2.99.29,1.11.99-.2.5-.38,1.07-.66,1.59-4.9,9.23-9.61,18.56-14.79,27.64-2.23,3.91-4.32,7.9-6.24,11.97-2.26,4.77-4.91,9.32-7.29,14.02-.5.99-1.04,1.12-2,.76-6.29-2.35-12.83-3.9-19.29-5.67Z"/>
      <path class="cls-6" d="M74.23,79.05c.1,1.76.02,1.75-1.83,1.73-2.19-.02-4.38,0-7.16,0,3.12-5.65,5.53-11.08,8.65-16.28.56.74.38,1.34.33,1.88-.35,4.23-.21,8.45.02,12.67Z"/>
      <path class="cls-1" d="M65.95,83.04c2.26.27,4.58.11,6.87.05,1.24-.03,1.6.49,1.58,1.67-.08,5.44-.12,10.88-.11,16.31,0,1.27-.5,1.61-1.68,1.54-3.39-.22-6.8.09-10.19-.27-1.35-.15-2.72-.04-4.07.17-1.17.18-2.35.32-3.92.06.56-1.19,1-2.18,1.48-3.16,2.38-4.89,4.79-9.77,7.12-14.68.62-1.31,1.3-1.88,2.92-1.69Z"/>
      <path class="cls-6" d="M73.22,147.17c-11.81-.18-23.62.88-35.42-.18-1.27-.11-2.53-.29-3.78-.51-1.94-.35-2.9-1.47-3.02-3.49-.04-.76,0-1.53,0-2.29,0-8.08-.06-16.15.02-24.22.04-3.48-.81-6.88-.71-10.73,4.02,1.18,7.95,2.34,11.88,3.5,1.55.44,3.08.94,4.64,1.3,2.11.48,3.23.18,3.95-1.75,1.18-3.14,3.02-4.47,6.44-3.95,4.72.72,9.47-.33,14.22-.15,2.68.1,2.69.06,2.67,2.62-.06,7.13-.18,14.26-.16,21.39.01,4.57.23,9.15.35,13.73.11,1.1.18,2.2.35,3.28.18,1.19-.4,1.49-1.44,1.47Z"/>
      <path class="cls-1" d="M99.79,41.14c-.81,20.46-1,40.93-.83,61.41.06,7.9.33,15.8.49,23.7.02.93-.02,1.87-.03,2.8h0c.44.79.28,1.66.28,2.49.02,4.49,0,8.97,0,13.46,0,3.2-.16,2.77-2.71,2.68-5.76-.2-11.51-.16-17.27-.23-2.32-.03-2.41-.02-2.6-2.31-.32-3.79-.36-7.6-.2-11.41-.3-9.94-.17-19.88-.07-29.82.11-10.37.39-20.73-.25-31.09-.25-4.07-.17-8.15-.29-12.23-.03-1.16.42-2.14.88-3.15.85-1.86,1.77-3.68,2.49-5.58.8-2.13.54-2.72-1.33-3.98-.42-.28-.95-.45-.82-1.11.48-2.37.13-4.74.05-7.11-.05-1.19.54-1.54,1.55-1.35,3.95.73,7.98.3,11.94.7,2.38.24,4.74.26,7.12.34,1.64.06,1.66.09,1.59,1.78Z"/>
      <path class="cls-1" d="M99.35,34.57c0-.76.04-1.53.06-2.3q.07-3.21,3.5-3.65c1.11-.53,2.31-.48,3.49-.58,3.45-.3,6.9-.67,10.34-1.26-5.67-1.18-11.33-.93-17.11.21-.34-1.94-.83-3.73-1.61-5.42-.25-.54-.17-.97.3-1.35,6.51-5.21,13.09-10.31,21.14-13.03,1.44-.49,2.85-.37,4.26,0,1.87.51,2.3,1.19,2.14,3.13-.24,3.05-2.02,5.35-3.74,7.68-.55.75-1.22,1.41-1.84,2.11-.55.61-.98,1.3-.38,2.04.6.74,1.4.42,2.08.03,1.27-.73,2.66-1.07,4.08-1.4,1.45-.34,2.87-.23,4.29.06,1.58.32,2.16,1.19,1.72,2.74-.41,1.44-1.34,2.56-2.65,3.28-1.04.57-2.15,1.03-3.23,1.52-.31.14-.65.2-.96.33-.74.33-1.4.8-1.19,1.71.18.78.9,1.03,1.61.91,2.22-.39,3.25,1.11,4.22,2.63.54.86.87,1.86.1,2.83-.62.86-1.55.57-2.35.57-8.75.04-17.51.04-26.25-.55q-2.04-.14-2.02-2.24Z"/>
      <path class="cls-6" d="M140.61,147.33c-2.94.32-5.92.52-8.88.56-8.82.11-17.65.12-26.48.16-.51,0-1.02-.04-1.53-.02-.96.03-1.37-.42-1.37-1.38,0-1.78-.06-3.56-.06-5.35-.04-9.76.26-19.52.01-29.27-.01-.42.07-.84.11-1.26-.05-1.53-.05-3.06-.18-4.59-.09-1.21.32-1.65,1.56-1.66,2.89-.03,5.78-.19,8.67-.3,9.09-.36,18.18-.74,27.27-1.11.51-.02,1.02,0,1.53-.05,1.01-.09,1.35.39,1.34,1.35-.03,1.79.05,3.57.03,5.36-.16,9.61-.24,19.22.17,28.82.02.42-.05.85-.08,1.27.05,1.61.14,3.22.13,4.83-.01,2.07-.19,2.42-2.23,2.64Z"/>
      <path class="cls-1" d="M143.19,84.97c-.19,4.66-.62,9.32-.47,14,.05,1.53-.72,1.88-1.97,1.93-4.16.16-8.32.34-12.47.49-8.15.29-16.28.85-24.42,1.4-1.79.12-1.84.11-1.85-1.72-.04-5.44-.05-10.87-.03-16.31,0-1.97.05-2,1.97-2,6.2-.01,12.4,0,19.47,0,5.24.31,11.35-.07,17.46-.15,2.35-.03,2.4.02,2.31,2.37Z"/>
      <path class="cls-6" d="M143.67,76.83c-.09,3.94-.12,3.23-3.36,3.35-9.44.35-18.88-.14-28.31.14-2.72.08-5.43.28-8.15.37-1.76.05-1.83,0-1.81-1.83.03-2.89.1-5.78.24-8.66.47-9.19-.23-18.36-.41-27.53-.08-3.83-.14-3,3.02-3.05,4.76-.08,9.49.51,14.26.48,8.74-.05,17.48.05,26.35.85-.31,12.15-1.54,23.99-1.83,35.89Z"/>
      <path class="cls-6" d="M142.72,139.86c.05,1.61.14,3.22.13,4.83-.01,2.07-.19,2.42-2.23,2.64-2.94.32-5.92.52-8.88.56-8.82.11-17.65.12-26.48.16-.51,0-1.02-.04-1.53-.02-.96.03-1.37-.42-1.37-1.38,0-1.78-.06-3.56-.06-5.35-.04-9.76.26-19.52.01-29.27-.01-.42.07-.84.11-1.26.45.89.23,1.84.23,2.76.02,8.75.01,17.51.01,26.26,0,3.12.19,3.33,3.25,3.43,10.71.33,21.39-.78,32.1-.54,2.11.04,3.83-.73,4.71-2.81Z"/>
      <path class="cls-1" d="M99.41,129.05c.44.79.28,1.66.28,2.49.02,4.49,0,8.97,0,13.46,0,3.2-.16,2.77-2.71,2.68-5.76-.2-11.51-.16-17.27-.23-2.32-.03-2.41-.02-2.6-2.31-.32-3.79-.36-7.6-.2-11.41.49,2.35.2,4.73.19,7.09,0,1.5.57,2.28,2.01,2.32,6.2.17,12.4.19,18.59-.02,1.1-.04,1.93-.51,1.88-1.88-.13-4.07.21-8.14-.18-12.2Z"/>
      <polygon class="cls-5" points="76.85 30.68 76.84 30.67 76.85 30.67 76.85 30.68"/>
      <path class="cls-5" d="M76.85,30.67c-.59-1.91-.79-3.82-.03-5.73-.26,1.91-.33,3.83.04,5.74h0Z"/>
      <path class="cls-5" d="M76.81,24.94c.01,1.91.02,3.82.04,5.74h0c-.36-1.91-.3-3.82-.04-5.74Z"/>
      <polygon class="cls-5" points="76.85 30.68 76.85 30.67 76.85 30.68 76.85 30.68"/>
      <g>
        <path class="cls-5" d="M56.5,59.84c-1.83-3.12-3.88-4.02-7.45-3.46-3.16.49-5.72,1.99-8.04,4.63-.95-4.48-1.71-6.47-3.11-8.34-2.69-3.59-7.19-3.61-9.86-.05-.87,1.17-1.61,2.42-1.91,3.85-.63,2.99-1.37,6-1.2,9.06.38,6.79,1.11,13.54,3.69,19.93.96,2.38,2.17,2.79,4.2,1.11,1.21-1,2.57-1.65,3.99-2.19,5.55-2.12,10.93-4.57,15.88-7.91,6-4.04,7.49-10.38,3.81-16.64Z"/>
        <path class="cls-5" d="M35.88,80.75c-1.97.75-3.78,1.8-5.62,3.11-1.32-3.79-1.72-7.56-2.22-11.31-.64-4.75-.73-9.46.36-14.16.35-1.53.93-2.9,1.93-4.1,1.51-1.81,3.74-1.78,5.12.18,1.18,1.68,2.01,3.56,2.11,5.66.08,1.78.09,3.56.14,5.34.02.68,0,1.36.13,2.02.11.62.55,1.06,1.18,1.2.65.14,1.21-.14,1.55-.65.41-.64.68-1.36,1.02-2.05,1.66-3.36,4.02-5.86,7.89-6.58,2.54-.47,3.52-.03,4.74,2.28,2.45,4.64,1.1,9.28-3.37,12.1-4.7,2.96-9.81,4.99-14.95,6.96Z"/>
      </g>
      <path class="cls-7" d="M50.84,73.8c-4.7,2.96-9.81,4.99-14.95,6.96-1.97.75-3.78,1.8-5.62,3.11-1.32-3.79-1.72-7.56-2.22-11.31-.64-4.75-.73-9.46.36-14.16.35-1.53.93-2.9,1.93-4.1,1.51-1.81,3.74-1.78,5.12.18,1.18,1.68,2.01,3.56,2.11,5.66.08,1.78.09,3.56.14,5.34.02.68,0,1.36.13,2.02.11.62.55,1.06,1.18,1.2.65.14,1.21-.14,1.55-.65.41-.64.68-1.36,1.02-2.05,1.66-3.36,4.02-5.86,7.89-6.58,2.54-.47,3.52-.03,4.74,2.28,2.45,4.64,1.1,9.28-3.37,12.1Z"/>
    </g>
  </g>
</svg>