<?xml version="1.0" encoding="UTF-8"?>
<svg id="Capa_2" data-name="Capa 2" xmlns="http://www.w3.org/2000/svg" viewBox="0 0 185.21 139.71">
  <defs>
    <style>
      .cls-1 {
        fill: #fcfcfc;
      }

      .cls-2 {
        fill: #fff7bb;
      }

      .cls-3 {
        fill: rgba(252, 198, 235, .8);
      }
    </style>
  </defs>
  <g id="Capa_1-2" data-name="Capa 1">
    <g>
      <g>
        <path d="M23.69,19.39c.49.09.96.23,1.4.42.44.19.74.55.91,1.06.21.55.21,1.02,0,1.43-.22.41-.53.79-.93,1.16-.16.14-.34.28-.55.43-.21.15-.41.3-.6.44-2.59,1.95-4.45,4.41-5.58,7.36-.28.86-.65,1.77-1.13,2.74-1.3,2.99-2.14,6.2-2.51,9.64-.02.26-.06.58-.09.95-.04.37-.12.74-.23,1.11-.11.37-.26.7-.44.99-.18.29-.43.48-.74.58-.38.14-.78.11-1.23-.1-.49-.27-.83-.63-1.02-1.07-.14-.34-.25-.68-.33-1.03-.08-.35-.16-.7-.23-1.05-.33-1.55-.64-3.08-.92-4.6-.29-1.52-.69-3.05-1.2-4.6-.07-.17-.11-.36-.14-.58-.02-.21-.09-.4-.19-.57-.47-1.3-1.11-2.47-1.92-3.5-.82-1.03-1.97-1.8-3.45-2.28-.62-.18-1.18-.44-1.68-.78-.25-.17-.45-.39-.59-.66-.14-.27-.23-.54-.27-.83-.04-.29,0-.56.09-.81.1-.26.26-.46.49-.61,1.45-.86,2.52-1.95,3.22-3.27.7-1.32,1.22-2.71,1.57-4.16.63-2.5,1.24-4.98,1.83-7.45.59-2.47.84-5.03.74-7.68-.01-.07-.01-.12,0-.16.01-.04.01-.08,0-.11.05-.52.22-.95.53-1.28.3-.33.67-.5,1.11-.51.82.1,1.41.48,1.75,1.15.24.91.49,1.74.75,2.49.25.76.45,1.51.59,2.25.31,1.48.77,2.95,1.35,4.41.59,1.46,1.33,2.82,2.22,4.08.9,1.26,1.96,2.33,3.19,3.21,1.23.88,2.64,1.49,4.24,1.81Z"/>
        <path class="cls-2" d="M19.64,23.51c.18-.22.35-.44.5-.67s.3-.47.44-.71c-2.22-1.3-4.15-2.77-5.77-4.42-1.63-1.65-2.91-3.61-3.85-5.88-.05-.06-.13-.09-.24-.09-.11,0-.24-.02-.4-.06-.28,1.22-.58,2.46-.89,3.71-.31,1.25-.61,2.48-.89,3.71-.32,1.23-.82,2.37-1.52,3.41-.7,1.05-1.3,2.15-1.82,3.31,1.48.89,2.67,1.94,3.56,3.14.89,1.2,1.61,2.52,2.17,3.95.22.58.45,1.14.7,1.68.25.54.5,1.09.75,1.67l.67-.79c.32-.79.65-1.57.96-2.32.31-.75.62-1.52.91-2.31,1.03-2.86,2.6-5.3,4.71-7.31Z"/>
      </g>
      <g>
        <path class="cls-1" d="M23.85,55.17l154.6-6.41c-2.7-8.48-10.87-16.11-21.49-15.83-5.64.15-25.67,1.19-46.88,2.3-29.58,1.54-63.1,3.29-68.02,3.16-3.75-.1-7.01.6-9.69,2.08-4.76,2.63-7.75,7.86-8.51,14.68Z"/>
        <path class="cls-1" d="M180.95,112.46l-.93-35.33-155.63,4.12c.65,17.08,1.58,37.46,2.3,43.11.92,7.27,8.97,11.41,21.53,11.08l117.76-3.12c2.4-.06,4.58-.63,6.48-1.68,6.52-3.59,8.65-12.04,8.48-18.19ZM72.8,115.32c.01.49-.26.93-.66,1.15-.17.09-.37.15-.58.16l-31.76.84c-.71.02-1.29-.54-1.31-1.24-.02-.7.53-1.29,1.24-1.31l31.76-.84c.71-.02,1.29.54,1.31,1.24ZM95.83,101.47c.01.49-.26.93-.66,1.15-.17.09-.37.15-.58.16l-55.13,1.46c-.71.02-1.29-.54-1.31-1.24-.02-.7.53-1.29,1.24-1.31l55.13-1.46c.71-.02,1.29.54,1.31,1.24ZM122.43,89.29c.01.49-.26.93-.66,1.15-.17.09-.37.15-.58.16l-82.03,2.17c-.71.02-1.29-.54-1.31-1.24-.02-.7.53-1.29,1.24-1.31l82.03-2.17c.7-.02,1.29.54,1.31,1.24Z"/>
        <path class="cls-3" d="M23.66,59.69c.11,4.21.35,11.41.64,19.01l155.65-4.12-.54-20.34c-.03-.96-.13-1.95-.32-2.95l-155.41,6.44c-.03.7-.03,1.34-.01,1.95Z"/>
        <g>
          <path d="M185.21,112.35l-1.54-58.22c-.02-.78-.09-1.59-.2-2.4l-.05-.28c-.11-.71-.23-1.42-.4-2.13l-.07-.26c-2.63-10.42-12.38-20.7-26.1-20.36-5.66.15-25.59,1.19-46.69,2.29h-.3c-28.02,1.48-62.89,3.3-67.69,3.17-4.51-.12-8.5.76-11.86,2.61-7.21,3.97-11.18,12.37-10.9,23.03l.06,2.18c.44,15.01,1.92,54.43,3,62.91,1.12,8.87,9.36,14.26,22.28,14.78,1.16.05,2.35.05,3.59.02l117.76-3.11c3.08-.08,5.92-.82,8.42-2.2,8.2-4.52,10.88-14.69,10.68-22.02ZM178.21,72.92l-152.27,4.03c-.26-6.96-.47-13.41-.57-17.31,0-.09,0-.18,0-.27l152.27-6.31c.04.42.07.83.08,1.23l.49,18.64ZM178.36,78.87l.89,33.63c.15,5.67-1.75,13.43-7.61,16.65-1.67.92-3.59,1.41-5.71,1.47l-117.76,3.11c-11.61.31-19-3.28-19.8-9.59-.56-4.43-1.39-19.79-2.22-41.24l152.2-4.03ZM42.02,40.11h0c4.99.13,38.55-1.62,68.15-3.17,20.21-1.06,41.11-2.15,46.83-2.3.45-.01.9,0,1.34,0,8.64.35,14.9,6.29,17.68,12.51l-150.18,6.22c1.01-5.32,3.58-9.33,7.35-11.41,2.42-1.33,5.39-1.96,8.83-1.87Z"/>
          <path d="M39,94.47c.07,0,.13,0,.2,0l82.03-2.17c.48-.01.95-.14,1.37-.37.98-.54,1.57-1.57,1.54-2.69-.02-.8-.35-1.54-.93-2.09-.58-.55-1.33-.81-2.13-.81l-82.02,2.17c-.8.02-1.54.34-2.09.92-.55.58-.84,1.34-.82,2.14.04,1.57,1.31,2.83,2.86,2.9Z"/>
          <path d="M94.47,98.53l-55.12,1.46c-.8.02-1.54.34-2.09.92-.55.58-.84,1.34-.82,2.13.04,1.57,1.3,2.83,2.86,2.9.07,0,.13,0,.2,0l55.12-1.46c.48-.01.95-.14,1.36-.37.98-.54,1.57-1.57,1.54-2.69-.04-1.64-1.42-2.92-3.05-2.9Z"/>
          <path d="M71.45,112.38l-31.75.84c-.8.02-1.54.35-2.09.93-.55.58-.84,1.34-.81,2.13.04,1.57,1.3,2.83,2.86,2.9.07,0,.13,0,.2,0l31.75-.84c.48-.01.95-.14,1.36-.37.98-.54,1.57-1.57,1.54-2.69-.04-1.64-1.42-2.91-3.05-2.9Z"/>
        </g>
      </g>
    </g>
  </g>
</svg>