<?xml version="1.0" encoding="UTF-8"?>
<svg id="Capa_2" data-name="Capa 2" xmlns="http://www.w3.org/2000/svg" viewBox="0 0 185.84 166.42">
  <defs>
    <style>
      .cls-1 {
        fill: #fff7bb;
      }

      .cls-2 {
        fill: #ffe6f9;
      }
    </style>
  </defs>
  <g id="Capa_1-2" data-name="Capa 1">
    <g>
      <path class="cls-2" d="M119.33,99.93c-.33-2.79-1.05-5.45-2.16-7.99-3-3.87-5.97-6.07-8.92-6.59-3.35.44-5.17,3.9-5.44,10.38-.23,4.93-.19,8.62.1,11.07.29,2.45,1.37,5.62,3.24,9.5,1.87,3.88,3.55,5.73,5.03,5.56,7.06-.83,9.96-6.55,8.71-17.16l-.56-4.77Z"/>
      <path class="cls-2" d="M151.59,107.47c1.74-2.91,4.22-4.87,6.42-6.6,3.43-2.71,6.15-4.85,6.09-9.78-.05-3.76-2.11-5.38-4.71-7.44-2.86-2.25-6.42-5.06-6.87-11.3-.34-4.67.6-8.96,1.43-12.74,1.16-5.28,2.07-9.45-.37-13.17-2.04-3.11-4.72-3.72-7.82-4.41-3.32-.75-7.09-1.6-10.1-5.72-1.63-2.23-3.2-5.06-4.87-8.06-3.74-6.72-7.98-14.33-13.5-16.17-4.4-1.46-7.51.05-10.8,1.68-2.52,1.24-5.13,2.53-8.15,2.14-2.71-.34-5.85-2.39-9.49-4.77-3.82-2.5-8.14-5.34-12.32-6.23-1.34-.29-2.57-.36-3.76-.22-2.92.34-5.74,4.21-8.46,7.96-2.72,3.74-5.53,7.61-9.17,9.32-3.15,1.48-6.61,1.02-9.27.45-1.02-.22-2.05-.48-3.07-.75-.96-.25-1.91-.49-2.85-.69-3.29-.7-5.25-.56-6.77.51-2.08,1.46-2.1,3.72-1.96,7.59.14,3.83.31,8.6-3.1,12.93-3.15,3.99-6.71,5.66-9.84,7.13-3.12,1.46-5.81,2.72-7.64,6.05-1.81,3.29-.31,6.75,1.28,10.4,1.5,3.44,3.04,7,1.86,10.64-.7,2.15-2.07,4.8-3.52,7.6-3.08,5.96-6.92,13.38-5.19,17.93,1.45,3.82,4.99,6.06,8.42,8.22,2.8,1.77,5.45,3.45,6.96,5.94,1.38,2.27,1.85,5.77,2.4,9.82.78,5.71,1.66,12.17,5.26,15.49,1.28,1.18,2.69,1.92,4.32,2.27,1.91.41,3.89.26,5.98.1,2.09-.16,4.26-.32,6.36.13,1.22.26,2.3.7,3.3,1.34,2.47,1.58,4.64,4.33,6.94,7.25,3.45,4.38,7.05,8.93,11.59,9.45,3.76.43,6.92-1.75,9.98-3.86,3.15-2.17,6.4-4.43,10.14-3.36l1.31.38c2.29.66,5.42,1.57,8.8,2.29,8,1.71,14.08,1.67,18.1-.14,4.7-2.12,7.02-6.66,9.27-11.04,1.69-3.3,3.29-6.42,5.84-8.34,2.71-2.04,5.79-2.17,8.76-2.3,3.68-.15,6.86-.29,9.29-3.91,2.31-3.45,2.06-7.51,1.8-11.82-.25-4.16-.52-8.45,1.71-12.19ZM58.01,93.25c-4.16.49-7.5-.19-10.03-2.04-2.85-2.09-4.69-4.17-5.54-6.22-.85-2.05-1.5-3.69-1.96-4.91-.46-1.22-.86-2.73-1.18-4.52-.49-2.69-.86-5.06-1.1-7.1-.24-2.04-.27-4.24-.09-6.59.18-2.35.6-4.93,1.25-7.73.65-2.8,1.89-5.24,3.73-7.31,1.83-2.07,4.09-3.26,6.76-3.58,13.04-1.54,20.5,5.66,22.38,21.61l.05.41-.09-.05c-.66,1.71-.78,4.85-.36,9.42.42,4.49.41,7.84-.03,10.04-.94,4.73-5.54,7.58-13.8,8.56ZM87.91,91.99c-3.31,13.02-5.17,20.96-5.58,23.84-.41,2.88-.76,5.05-1.05,6.52-.4,1.48-.9,3.13-1.49,4.96-1.33,3.86-3.36,5.99-6.08,6.39-2.32-.6-3.6-1.88-3.83-3.85-.23-1.96.06-5.61.87-10.95.81-5.33,2.15-11.87,4-19.62,1.86-7.75,3.45-14.33,4.77-19.74,3.92-15.72,6.88-27.04,8.89-33.97l.09.05c-.09-1.26.2-2.6.87-4.02.67-1.41,1.7-2.2,3.1-2.37,1.39-.16,2.58-.04,3.55.39.97.42,1.51,1.07,1.61,1.93.72,5.61-2.52,22.42-9.71,50.43ZM126.58,118.84c-1.03,2.51-2.82,4.68-5.38,6.49-2.57,1.74-5.37,2.79-8.42,3.15-3.05.36-5.5.07-7.37-.86-1.87-.93-3.42-2.17-4.64-3.69-1.23-1.61-2.31-3.39-3.23-5.35-1.55-3.32-2.46-6.16-2.74-8.52-.28-2.36-.46-4-.54-4.92s-.17-2.3-.27-4.12c-.1-1.82-.07-3.4.09-4.73.16-1.33.38-2.86.67-4.59.29-1.73.79-3.23,1.5-4.51.71-1.28,1.58-2.52,2.59-3.71,2.02-2.43,5.08-3.89,9.18-4.37,4.95-.58,8.86.23,11.72,2.44,2.86,2.25,4.72,4.54,5.57,6.87,1.28,3.51,2.1,6.8,2.46,9.86l.7,5.89c.61,5.18-.02,10.08-1.9,14.68Z"/>
      <path class="cls-2" d="M51.18,49.31c-1.42.17-2.6,2.64-3.54,7.41-.94,4.77-1.32,7.86-1.16,9.28.17,1.41.34,2.66.53,3.73.18,1.07.47,2.48.85,4.23.38,1.75.85,3.38,1.4,4.91.56,1.53,1.2,2.98,1.95,4.37,2.14,2.46,4.09,3.84,5.86,4.15,6.38-.75,8.89-6.86,7.53-18.33-1.66-14.02-6.13-20.6-13.42-19.74Z"/>
      <path d="M162.23,80.03c-2.8-2.21-4.82-3.8-5.13-8.02-.29-4,.54-7.77,1.34-11.42,1.22-5.58,2.48-11.35-1.02-16.68-3.07-4.67-7.28-5.62-10.66-6.38-3.02-.68-5.4-1.22-7.39-3.94-1.46-2-2.96-4.7-4.57-7.6-4.15-7.44-8.84-15.88-16.06-18.29-6.22-2.07-10.7.14-14.3,1.92-2.08,1.03-3.89,1.91-5.51,1.71-1.75-.24-4.51-2.06-7.44-3.98l-.12-.08c-4.15-2.72-8.85-5.81-13.87-6.88-1.82-.39-3.59-.49-5.26-.29-4.93.58-8.34,5.28-11.65,9.83-2.38,3.27-4.84,6.64-7.4,7.85-1.51.71-3.41.74-6.35.11-.96-.21-1.93-.46-2.89-.7-1.02-.26-2.04-.52-3.03-.74-3.26-.7-7.04-1.1-10.39,1.25-4.23,2.97-4.07,7.51-3.92,11.53.13,3.55.25,6.91-2.11,9.91-2.47,3.14-5.25,4.44-8.19,5.82-3.36,1.58-7.16,3.36-9.71,8-2.9,5.27-.69,10.36,1.1,14.47,1.2,2.77,2.34,5.38,1.7,7.36-.58,1.79-1.87,4.28-3.23,6.91-3.69,7.13-7.86,15.2-5.41,21.69,1.99,5.25,6.39,8.03,10.26,10.48,2.33,1.47,4.53,2.86,5.48,4.42.88,1.46,1.34,4.82,1.78,8.06.88,6.47,1.88,13.81,6.7,18.26,1.9,1.75,4.02,2.86,6.48,3.38,2.57.55,5.08.36,7.29.2,2.67-.2,5.19-.29,6.83.76,1.81,1.16,3.75,3.61,5.8,6.22,3.59,4.56,7.66,9.72,13.49,10.97.39.08.79.15,1.2.2.51.06,1.01.09,1.5.09,4.75,0,8.52-2.6,11.62-4.73,2.42-1.67,4.5-3.12,6.03-2.78l1.53.43c2.35.68,5.57,1.61,9.12,2.38,9.11,1.95,15.96,1.8,20.96-.45,6.17-2.78,8.99-8.28,11.49-13.15,1.44-2.81,2.81-5.47,4.5-6.74,1.56-1.17,3.59-1.26,6.18-1.37,4.1-.17,9.2-.38,12.93-5.95,3.18-4.74,2.86-10.02,2.58-14.67-.22-3.62-.43-7.03,1.07-9.54,1.31-2.19,3.35-3.79,5.32-5.35h0c3.72-2.93,7.93-6.26,7.84-13.46-.07-5.96-3.62-8.76-6.47-11ZM148.66,119.74c.26,4.27.49,7.96-1.6,11.06-2.09,3.11-4.7,3.22-8.35,3.37-3.01.13-6.42.27-9.43,2.54-2.77,2.08-4.43,5.32-6.19,8.76-2.15,4.2-4.38,8.54-8.69,10.49-3.77,1.7-9.61,1.72-17.34.06-3.3-.71-6.39-1.6-8.72-2.28l-1.32-.38c-4.28-1.22-7.93,1.29-11.17,3.54-3,2.07-5.84,4.01-9.14,3.65-4.06-.46-7.47-4.8-10.77-8.99-2.36-3-4.59-5.83-7.24-7.52-1.13-.72-2.34-1.21-3.7-1.5-1.12-.24-2.24-.32-3.35-.32s-2.26.08-3.36.17c-2,.15-3.89.29-5.63-.08-1.41-.3-2.64-.95-3.75-1.97-3.28-3.02-4.13-9.26-4.88-14.76-.57-4.18-1.06-7.79-2.57-10.28-1.65-2.74-4.42-4.48-7.35-6.34-3.26-2.06-6.62-4.18-7.93-7.62-1.54-4.05,2.32-11.5,5.13-16.94,1.47-2.85,2.86-5.54,3.59-7.78,1.33-4.08-.38-8.02-1.9-11.5-1.53-3.52-2.85-6.56-1.33-9.33,1.64-2.98,4.04-4.11,7.09-5.54,3.26-1.53,6.95-3.26,10.28-7.48,3.69-4.68,3.5-9.91,3.36-13.73-.14-3.84-.04-5.5,1.45-6.55,1.21-.85,2.9-.94,5.82-.32.92.2,1.86.44,2.8.68,1.04.27,2.08.53,3.12.76,2.85.61,6.56,1.1,10.05-.54,3.92-1.84,6.83-5.84,9.64-9.71,2.45-3.37,5.22-7.18,7.62-7.46,1.05-.12,2.15-.06,3.36.2,3.96.85,8.18,3.62,11.9,6.06,3.59,2.36,6.98,4.58,10,4.96,3.38.42,6.29-1,8.85-2.26,3.18-1.57,5.93-2.93,9.88-1.62,5.07,1.69,9.19,9.09,12.83,15.64,1.68,3.02,3.27,5.88,4.94,8.16,3.27,4.5,7.45,5.44,10.82,6.19,2.96.67,5.3,1.19,7.07,3.89,2.16,3.28,1.33,7.04.2,12.24-.85,3.86-1.8,8.24-1.45,13.08.49,6.78,4.45,9.9,7.34,12.18,2.53,2,4.2,3.31,4.24,6.49.05,4.33-2.2,6.11-5.62,8.81-2.28,1.79-4.86,3.83-6.71,6.94-2.42,4.06-2.15,8.55-1.88,12.89ZM160.1,103.53h0,0Z"/>
      <g>
        <path d="M127.79,98.27c-.36-3.06-1.18-6.35-2.46-9.86-.85-2.33-2.71-4.62-5.57-6.87-2.86-2.21-6.76-3.02-11.72-2.44-4.1.48-7.16,1.94-9.18,4.37-1.01,1.19-1.88,2.43-2.59,3.71-.71,1.28-1.22,2.78-1.5,4.51-.29,1.73-.51,3.26-.67,4.59-.16,1.33-.19,2.91-.09,4.73.1,1.82.19,3.19.27,4.12s.26,2.57.54,4.92c.28,2.36,1.19,5.2,2.74,8.52.92,1.96,2,3.75,3.23,5.35,1.22,1.53,2.77,2.76,4.64,3.69,1.87.93,4.33,1.22,7.37.86,3.05-.36,5.85-1.41,8.42-3.15,2.56-1.81,4.35-3.98,5.38-6.49,1.88-4.6,2.51-9.5,1.9-14.68l-.7-5.89ZM111.18,121.86c-1.48.17-3.16-1.68-5.03-5.56-1.87-3.88-2.95-7.05-3.24-9.5-.29-2.46-.32-6.14-.1-11.07.27-6.48,2.09-9.94,5.44-10.38,2.95.53,5.92,2.73,8.92,6.59,1.11,2.54,1.83,5.2,2.16,7.99l.56,4.77c1.25,10.61-1.65,16.32-8.71,17.16Z"/>
        <path d="M96.01,39.62c-.97-.42-2.16-.55-3.55-.39-1.39.16-2.43.95-3.1,2.37-.67,1.41-.96,2.75-.87,4.02l-.09-.05c-2.01,6.93-4.97,18.25-8.89,33.97-1.32,5.41-2.91,11.99-4.77,19.74-1.86,7.75-3.19,14.29-4,19.62-.81,5.33-1.1,8.98-.87,10.95.23,1.96,1.51,3.25,3.83,3.85,2.72-.4,4.75-2.53,6.08-6.39.59-1.82,1.09-3.47,1.49-4.96.29-1.47.64-3.64,1.05-6.52.41-2.88,2.27-10.82,5.58-23.84,7.2-28.01,10.43-44.82,9.71-50.43-.1-.86-.64-1.51-1.61-1.93Z"/>
        <path d="M72.19,65.23l.09.05-.05-.41c-1.88-15.95-9.34-23.15-22.38-21.61-2.68.32-4.93,1.51-6.76,3.58-1.83,2.07-3.08,4.51-3.73,7.31-.65,2.81-1.07,5.38-1.25,7.73-.18,2.35-.16,4.55.09,6.59.24,2.04.61,4.41,1.1,7.1.33,1.79.72,3.3,1.18,4.52.46,1.22,1.12,2.85,1.96,4.91.85,2.05,2.69,4.12,5.54,6.22,2.53,1.85,5.87,2.53,10.03,2.04,8.25-.97,12.85-3.83,13.8-8.56.43-2.2.44-5.55.03-10.04-.42-4.57-.3-7.71.36-9.42ZM57.06,87.39c-1.77-.31-3.72-1.69-5.86-4.15-.74-1.39-1.39-2.84-1.95-4.37-.56-1.53-1.02-3.16-1.4-4.91-.38-1.75-.66-3.16-.85-4.23-.18-1.07-.36-2.32-.53-3.73-.17-1.41.22-4.51,1.16-9.28.94-4.77,2.12-7.24,3.54-7.41,7.29-.86,11.76,5.72,13.42,19.74,1.35,11.47-1.16,17.58-7.53,18.33Z"/>
      </g>
      <g>
        <path d="M183.42,30.38c.51.14.99.32,1.44.56.45.24.74.64.88,1.2.18.59.14,1.09-.12,1.51-.26.41-.62.79-1.08,1.15-.18.13-.38.27-.62.41-.23.14-.46.28-.67.42-2.9,1.84-5.07,4.28-6.5,7.3-.36.88-.84,1.81-1.42,2.79-1.62,3.04-2.77,6.36-3.46,9.96-.05.27-.11.61-.18.99-.07.39-.18.78-.33,1.16-.15.38-.33.71-.55,1.01-.22.29-.49.47-.83.55-.41.12-.84.05-1.28-.21-.49-.33-.83-.73-.99-1.21-.12-.37-.2-.74-.26-1.12-.06-.38-.11-.75-.15-1.13-.22-1.66-.41-3.3-.59-4.93-.18-1.63-.47-3.28-.88-4.95-.06-.18-.09-.39-.1-.62,0-.23-.06-.43-.15-.61-.38-1.41-.96-2.7-1.74-3.86-.78-1.16-1.93-2.06-3.45-2.7-.64-.24-1.21-.56-1.71-.96-.25-.2-.44-.45-.57-.74-.13-.29-.2-.59-.21-.9-.01-.3.04-.59.17-.85.12-.26.31-.46.57-.61,1.6-.78,2.82-1.84,3.67-3.18.85-1.33,1.52-2.76,2.01-4.26.87-2.58,1.72-5.15,2.55-7.71.83-2.56,1.31-5.24,1.43-8.04,0-.08,0-.13.01-.17.01-.04.02-.08.02-.12.09-.55.31-.98.66-1.31.35-.32.75-.47,1.21-.45.86.18,1.45.63,1.75,1.36.18.98.37,1.87.58,2.69.2.82.35,1.63.43,2.42.21,1.58.56,3.17,1.06,4.76.5,1.59,1.17,3.09,2.01,4.49.84,1.4,1.87,2.62,3.09,3.65,1.22,1.04,2.66,1.79,4.32,2.26Z"/>
        <path class="cls-1" d="M178.8,34.38c.21-.21.4-.44.59-.67s.36-.47.53-.72c-2.23-1.56-4.14-3.27-5.72-5.15-1.58-1.88-2.77-4.05-3.57-6.53-.05-.07-.13-.11-.24-.12-.12,0-.25-.04-.41-.1-.4,1.27-.81,2.55-1.25,3.84-.43,1.29-.85,2.57-1.25,3.84-.44,1.27-1.07,2.43-1.89,3.47-.82,1.05-1.56,2.16-2.19,3.34,1.49,1.06,2.66,2.27,3.49,3.61.83,1.34,1.49,2.79,1.96,4.35.18.63.38,1.24.6,1.83.22.59.44,1.2.66,1.82l.78-.77c.41-.81.81-1.6,1.21-2.37.39-.77.78-1.56,1.15-2.36,1.33-2.94,3.19-5.37,5.58-7.32Z"/>
      </g>
    </g>
  </g>
</svg>