<?xml version="1.0" encoding="UTF-8"?>
<svg id="Capa_2" data-name="Capa 2" xmlns="http://www.w3.org/2000/svg" viewBox="0 0 171.55 180">
  <defs>
    <style>
      .cls-1 {
        fill: #e26088;
      }
    </style>
  </defs>
  <g id="Capa_1-2" data-name="Capa 1">
    <g>
      <g>
        <path class="cls-1" d="M106.18,12.53c.36.43.75,1.01.87,1.33.29.77,1.35.77,1.64,0,.31-.8,1.64-1.86,2.34-1.86.39,0,.68.19.87.6.51,1.09-.12,2.39-2.17,4.49l-1.86,1.93-1.42-1.38c-1.83-1.79-2.8-3.31-2.8-4.44,0-1.04.34-1.45,1.23-1.45.43,0,.87.24,1.3.77Z"/>
        <path class="cls-1" d="M103.65,10.28c-1.91,1.01-2.34,2.94-1.21,5.19.7,1.38,3.83,4.83,4.9,5.36l.72.39,2.36-2.41c2.58-2.58,3.33-3.86,3.35-5.55,0-1.45-.53-2.32-1.66-2.77-1.13-.46-2.07-.24-3.4.8l-.84.65-.46-.58c-.41-.55-2.1-1.5-2.68-1.52-.14,0-.63.19-1.09.46Z"/>
        <path class="cls-1" d="M61.27,12.53c.36.43.75,1.01.87,1.33.29.77,1.35.77,1.64,0,.31-.8,1.64-1.86,2.34-1.86.39,0,.68.19.87.6.51,1.09-.12,2.39-2.17,4.49l-1.86,1.93-1.42-1.38c-1.83-1.79-2.8-3.31-2.8-4.44,0-1.04.34-1.45,1.23-1.45.43,0,.87.24,1.3.77Z"/>
        <path class="cls-1" d="M58.74,10.28c-1.91,1.01-2.34,2.94-1.21,5.19.7,1.38,3.83,4.83,4.9,5.36l.72.39,2.36-2.41c2.58-2.58,3.33-3.86,3.35-5.55,0-1.45-.53-2.32-1.66-2.77-1.13-.46-2.07-.24-3.4.8l-.84.65-.46-.58c-.41-.55-2.1-1.5-2.68-1.52-.14,0-.63.19-1.09.46Z"/>
        <path class="cls-1" d="M89.39,12.25c.51.89.05,2.27-1.47,4.37q-1.78,2.46-3.47,1.06c-1.88-1.59-1.88-1.62-2.58-2.65-.75-1.09-.8-2.05-.17-2.63.68-.6,1.37-.31,2.73,1.13.96,1.06,1.18,1.18,1.5.92.22-.19.39-.46.39-.65,0-.17.43-.77.94-1.3,1.06-1.11,1.62-1.18,2.15-.24Z"/>
        <path class="cls-1" d="M87.51,10.1c-.34.14-.94.58-1.37.99l-.77.75-.92-.63c-1.23-.84-2.19-1.01-3.28-.58-.89.39-1.86,1.83-1.86,2.82,0,.75.63,2.1,1.5,3.18.84,1.09,4.92,4.54,5.33,4.54.39,0,2.48-2.34,3.67-4.1,2.05-3.09,2.1-5.67.12-6.85-.75-.43-1.52-.48-2.41-.12Z"/>
      </g>
      <path class="cls-1" d="M97.4,30.83c.66-.28,1.11-.28.94,0-.07.12-.43.24-.78.21-.57,0-.59-.02-.17-.21Z"/>
      <path class="cls-1" d="M96.01,131.81c-.09-1.56-.26-10.75-.38-20.43-.28-23.76-.5-33.57-.73-34.18-.12-.35-.47-.57-1.04-.69-1.18-.21-42.69.31-56.9.73-14.24.43-15.58.5-15.98.99-.35.45-.33,12.92.05,27.83.14,4.8.31,12.21.4,16.46.05,2.58.11,10.31.18,13.41.02.71.59,1.28,1.3,1.28,2.23,0,6.64.11,7.98.08,11-.38,39.14-1.06,54.09-1.32l10.25-.19.47-.57c.42-.52.45-.8.31-3.4ZM94.24,133.01l-.02.97-4.77.14c-2.64.09-7.72.26-11.29.4-3.57.12-11.47.33-17.59.47-6.09.14-14.45.35-18.53.5-4.08.12-9.37.26-11.76.28-1.62.02-4.17.02-6.08-.04-.58-.02-1.04-.49-1.05-1.07-.03-2.09-.08-6.76-.09-8.13-.06-7.83-.61-19.13-.78-32.69l-.14-14.31,1.27-.14c2.6-.31,11.57-.61,25-.85,7.6-.14,18.53-.35,24.32-.45,9.42-.19,20.49-.14,20.71.05.05.05.17,6.83.31,15.07.12,8.24.28,16.51.35,18.4.09,3.09.21,19.06.14,21.4Z"/>
      <path class="cls-1" d="M92.18,116.81c-.07-2.79-.21-12.12-.31-20.72-.12-12.38-.21-15.71-.45-15.94-.38-.35-25.62-.33-47.15.07-15.02.28-19.55.5-20.12.94-.33.31-.35,1.13-.24,8.72.09,4.61.26,11.83.4,16.06.52,17.01.68,24.42.59,24.54,0,0,0,0,0,0,.08.48-.06,2.66.1,3.1.23.64,12.82-.31,18.8-.46,35.48-.85,41.41-.99,44.57-1.04,3.12-.05,3.54-.09,3.82-.5.33-.45.33-2.17-.02-14.79ZM57.05,95.69l-6.85.17.8-.97c.42-.54,1.79-1.87,3.02-2.93,2.03-1.8,2.31-1.96,3.42-2.08,2.67-.28,3.4-.07,5.71,1.65,1.18.9,2.6,2.08,3.16,2.65l1.04,1.02-1.75.17c-.97.07-4.82.21-8.57.33ZM60.71,96.97l-.35.69c-.57,1.09-1.91,1.32-2.74.5-.92-.92-.64-1.18,1.3-1.18h1.79ZM58.4,88.53l-1.49.12v-1.61h1.51c1.35,0,1.51.05,1.65.52.17.73.02.83-1.68.97ZM41.16,131.48c-.21.21-7.86.61-7.86.43,0-.05-.33-1.72-.71-3.73-.4-2.01-.71-3.78-.71-3.94,0-.24.71-.33,2.9-.4,5.55-.14,7.72-.17,7.72-.12-.07,1.16-1.2,7.63-1.35,7.77ZM33.65,113.15c-.02-.66-.14-1.44-.26-1.77-.17-.57-.14-.54.8.21.54.43,1.11,1.02,1.28,1.28.14.28.31,1.84.33,3.47.05,1.63.02,2.74-.07,2.48-.07-.26-.54-1.37-1.06-2.48-.59-1.28-.97-2.43-1.02-3.19ZM33.35,119.17c-.85,0-1.51-.38-2.15-1.25-.28-.35-.24-.4.45-.4.42,0,1.11.21,1.53.47,1.18.73,1.25,1.18.17,1.18ZM35.07,104.78c-.66-1.3-.31-4.44.45-3.83.17.14.45.76.61,1.35.24.83.24,1.28.02,1.98-.35,1.23-.64,1.35-1.09.5ZM39.56,107.41c-.09.31-.38.76-.61,1.02-.4.43-.45.43-.45.05,0-.5.68-1.58.99-1.58.12,0,.14.24.07.52ZM41.04,116.48c1.51-.8,1.75-.78,1.42.09-.26.78-1.46,2.13-1.91,2.15-.17,0-.47.05-.68.09-1.25.24-.35-1.56,1.18-2.34ZM38.07,117.75c-.59,1.65-.64,1.72-.78,1.06-.09-.4-.17-1.28-.19-1.96-.02-1.06.09-1.39.76-2.29.78-1.09.99-1.23,1.23-.83.17.28-.17,1.63-1.02,4.02ZM38.85,109.72c.09,0,.09.54.02,1.23-.14.92-.38,1.44-.97,2.1-.87.97-1.06.85-1.06-.66,0-.66.19-1.04.92-1.75.5-.52.99-.92,1.09-.92ZM68.93,130.84c-.17.17-15.32.69-15.46.54-.31-.31-.57-3.71-.71-9.45-.17-6.09-.17-6.31.28-6.33,3.68-.26,6.75-.38,10.86-.4l5.01-.05.17,3.83c.17,4.06.09,11.65-.14,11.86ZM56.67,114.02v-.97c0-2.41,1.02-4.98,2.29-5.81,1.3-.87,2.38-.9,3.73-.14,1.02.57,1.98,2.69,2.22,4.8.12.94.19,1.75.17,1.75,0,.02-1.91.12-4.2.21l-4.2.17ZM87.06,130.41s-2.48.14-5.45.24c-4.51.14-5.41.12-5.6-.17-.12-.19-.21-1.04-.21-1.91v-1.58l1.61-.09c.87-.05,3.42-.09,5.64-.12l4.08-.05.14.61c.14.54-.02,2.88-.21,3.07ZM87.36,123.85v1.39l-5.81.28c-3.21.14-5.86.24-5.9.19-.05-.05-.17-.73-.24-1.54l-.17-1.44,1.51-.07c.83-.05,3.57-.09,6.07-.14l4.53-.07v1.39ZM78.13,119.01c-.43-1.16.4-1.39,1.35-.38.61.66,1.09,2.03.76,2.15-.33.14-1.87-1.13-2.1-1.77ZM83.26,118.56c.76-.83,1.27-.9,1.27-.21s-.59,1.56-1.35,2.03c-.45.28-.85.45-.92.38-.26-.26.26-1.44.99-2.2ZM89.82,130.46l-1.16-.07-.07-1.87c-.05-1.56,0-1.89.35-2.15.35-.28.38-.4.14-.8-.17-.28-.31-1.2-.31-2.08,0-2.17-.26-2.43-2.53-2.43h-1.75l.52-.73c.28-.43.57-1.23.64-1.87.07-.92,0-1.23-.4-1.63-.26-.26-.71-.5-.97-.5-.47,0-2.31,1.63-2.79,2.48-.24.4-.31.43-.5.12-1.09-1.72-1.87-2.36-2.95-2.36-1.35,0-1.68,2.15-.54,3.61.35.45.64.9.64.97s-.61.14-1.35.17c-2.57.05-2.53,0-2.67,2.69-.09,1.72-.05,2.46.17,2.74.19.21.31,1.06.31,2.15,0,2.06,0,2.08-2.5,2.08h-1.44l-.14-8.2c-.19-9.52-.05-9.05-2.41-9.05h-1.49l-.26-1.91c-.47-3.21-1.18-4.63-2.9-5.88-1.23-.9-2.41-1.06-3.87-.59-2.38.8-3.78,2.91-4.18,6.4l-.26,2.17-1.61.17c-2.48.24-2.36-.14-2.17,7.06.07,3.38.21,7.06.31,8.15.12,1.3.07,1.98-.07,2.03-.14.05-2.22.14-4.6.24l-4.34.14.17-.61c.33-1.35,1.27-8.24,1.16-8.55-.19-.5-1.13-.61-3.64-.47q-2.55.17-2.08-1.23c.24-.68.33-.73,1.39-.73.92,0,1.35-.14,2.17-.78,1.75-1.32,2.93-4.32,1.89-4.87-.57-.31-2.05.05-2.9.66-.9.66-1.09.61-.97-.24.07-.47.42-.99,1.09-1.54,1.37-1.13,1.79-1.94,1.96-3.73.17-1.77-.14-2.13-1.3-1.54-.35.17-.71.35-.83.4-.09.05-.09-.5-.02-1.23.21-1.72-.12-2.17-1.11-1.65-.76.38-1.86,1.77-2.34,2.93-.4.99-.61.9-.78-.35-.12-.83-.05-1.23.33-1.89,1.02-1.7.8-4.8-.4-6.26-1.02-1.2-2.05-.85-2.67.92-.54,1.68-.19,3.71.94,5.41.57.85.68,1.25.68,2.43v1.42l-.9-.97c-.52-.52-1.09-.94-1.27-.94-.21,0-.5-.33-.66-.71-.19-.45-.47-.71-.76-.71-.64,0-.73.47-.31,1.63q.35,1.02-.19.85c-.28-.09-.92-.21-1.39-.28-.78-.09-.92-.05-1.09.43-.24.61.02,2.06.52,3.02.54.99,1.61,1.87,2.55,2.03.47.09.92.28.97.43.07.17.28.68.5,1.16l.38.87-1.11-.47c-1.23-.52-2.38-.45-3,.14-.47.47-.24,1.11.83,2.34,1.02,1.13,1.84,1.46,3.45,1.35.94-.07,1.04-.02,1.42.78.21.47.33.9.26.97s-1.16.19-2.41.28c-3.33.21-3.23.05-2.43,4.13.38,1.84.76,3.83.85,4.37l.19.97-2.46.17c-1.37.09-2.55.09-2.67-.02-.33-.35-1.42-33.59-1.42-43.58v-6.05l1.13-.17c1.18-.14,16.1-.54,25.43-.66l5.67-.07v4.18l-.83.28c-.66.21-.85.43-.97,1.06-.09.45-.14,1.04-.09,1.3.07.35-.19.71-.94,1.28-1.49,1.13-5.83,5.48-6.23,6.24-.66,1.28-.4,1.37,3.75,1.37,3.61,0,3.78.02,3.78.47,0,.26.31.8.66,1.2.54.59.9.76,1.84.85,1.46.12,2.57-.52,3.12-1.8.38-.87.45-.92,1.79-1.06.76-.07,2.2-.14,3.19-.14,2.43,0,2.86-.14,2.86-.9,0-.45-.42-1.04-1.58-2.17-1.68-1.63-4.79-4.04-5.83-4.54-.5-.21-.61-.43-.61-1.16,0-1.54-.33-2.08-1.39-2.24-.87-.14-.92-.19-1.04-1.13-.09-.83-.09-1.77.05-2.91.02-.24,1.96-.31,8.36-.38,4.56-.02,11.57-.07,15.56-.12l7.27-.05.09.52c.07.31.17,8.2.24,17.55.07,9.35.21,20.22.28,24.17l.17,7.16-1.16-.07ZM40.52,110.22c.85-1.02,1.13-.94.97.24s-.99,2.2-1.35,1.63c-.38-.59-.26-1.11.38-1.87ZM31.86,113.26c-.85,0-2.1-1.89-1.77-2.72.17-.47.92-.12,1.42.66.43.71.66,2.06.35,2.06Z"/>
      <path class="cls-1" d="M166.08,46.32c.07.19.05.28-.09.21-.14-.07-.24-.24-.24-.38,0-.33.17-.26.33.17Z"/>
      <path class="cls-1" d="M155.57,31.04c1.84.14,2.74.31,2.88.52.12.19.85,1.87,1.65,3.76.8,1.89,2.38,5.6,3.52,8.27,2.48,5.79,4.06,9.71,3.94,9.83-.05.05-3.71.17-8.12.24l-8.05.17-.28-1.04c-.73-2.86-1.77-6.14-5.74-18.4l-1.04-3.19,1.44-.14c2.24-.21,6.82-.21,9.8,0Z"/>
      <path class="cls-1" d="M108.45,35.74c-.24-2.03-.33-3.78-.24-3.87.26-.26,5.24-.5,11.43-.52,5.03-.05,5.48-.02,5.6.35.19.66,2.86,12.31,3.8,16.61.47,2.15.94,4.32,1.06,4.84.12.52.14,1.02.05,1.09-.14.14-15.39.69-18.63.69h-.97l-.14-1.13c-.07-.61-.45-4.09-.85-7.72-.38-3.64-.9-8.29-1.11-10.32Z"/>
      <path class="cls-1" d="M38.26,57.28c-3.19.12-7.37.35-9.28.5s-3.54.21-3.59.17c-.07-.05.21-1.2.61-2.57.38-1.35,1.61-6.02,2.72-10.37,1.09-4.35,2.27-8.88,2.6-10.09l.61-2.17,1.7-.12c3.23-.28,3.85-.31,9.66-.33,4.53-.05,5.83.02,5.83.24,0,1.04-4.77,24.16-5.03,24.42-.05.05-2.67.19-5.83.33Z"/>
      <path class="cls-1" d="M87.22,55.6c-.07.07-3.8.19-8.31.28-4.51.09-9.09.24-10.15.31l-1.98.14.17-1.46c.07-.83.4-3.4.71-5.74,1.84-13.75,2.31-16.79,2.55-16.94.35-.21,15.63-.26,16.69-.02l.78.14-.19,11.6c-.09,6.38-.21,11.65-.26,11.69Z"/>
      <path class="cls-1" d="M10.28,42.66c.21-.38.35-.31.19.09-.07.21-.19.33-.24.26-.07-.07-.05-.21.05-.35Z"/>
      <path class="cls-1" d="M6.38,50.64c.31-.57.57-.47.33.12-.07.21-.24.38-.35.38-.14,0-.12-.21.02-.5Z"/>
      <path class="cls-1" d="M115.29,173.85l-13.06-.17v-1.87c0-1.32.09-1.87.31-1.87.14-.02,8.69-.12,18.93-.26,18.52-.24,32.52-.27,36.71-.38.38,0,.69.29.69.67v2.36c0,.53-.42.96-.94.97-5.73.12-34.46.64-42.64.53Z"/>
      <path class="cls-1" d="M110.27,56.86l1.96-.17c2.05-.19,10.1-.5,15.13-.54l3.05-.05-.17,1.7c-.59,6.24-3.82,10.06-9.42,11.13-3.61.69-7.96-1.63-9.4-4.96-.71-1.68-1.16-3.76-1.16-5.53v-1.58Z"/>
      <path class="cls-1" d="M43.92,58.93v1.51c0,3.94-2.22,7.42-5.78,9.12-2.17,1.02-4.34,1.32-6.33.85-3.02-.71-4.77-2.06-5.95-4.54-.57-1.16-.68-1.8-.78-3.83l-.12-2.41,2.1-.02c1.16,0,4.23-.17,6.82-.33,2.6-.17,5.93-.31,7.39-.33l2.64-.02Z"/>
      <path class="cls-1" d="M85.97,63.8c-1.82,3.9-5.78,6.21-10.18,5.93-2.41-.14-4.18-.87-5.81-2.34-2.01-1.87-2.93-4.02-3.31-7.77l-.14-1.58,1.02-.17c.8-.14,15.56-.52,18.98-.47.61,0,.71.09.78.73.12,1.13-.59,4.04-1.35,5.67Z"/>
      <path class="cls-1" d="M166.72,62.83c-1.89,3.83-5.64,5.72-9.44,4.75-1.84-.47-3.19-1.35-4.3-2.83-1.3-1.7-1.7-3.12-1.82-6.47l-.09-2.88.54-.02c5.83-.31,15.35-.35,16.22-.09.73.26,0,5.27-1.11,7.56Z"/>
      <g>
        <path class="cls-1" d="M114.96,129.93c-.82-1.57-2.6-2.17-4.15-1.4-2.68,1.33-2.36,5.16.48,6.01,2.51.77,4.9-2.22,3.67-4.61Z"/>
        <path class="cls-1" d="M167.78,43.67c-1.54-3.45-3.59-8.18-4.56-10.5-.99-2.34-2.05-4.49-2.39-4.83-.6-.6-.63-.6-5.55-.68l-4.94-.1.07-6.54c.05-3.62.24-8.32.41-10.47.39-5.24-.1-8.18-1.5-9.1-.92-.58-4-.87-9.43-.87-2.82,0-6.95-.12-9.16-.24-3.91-.24-12.42-.46-12.54-.31-.05.02-5.98.12-13.22.17-32.99.27-62.39.75-66.9,1.09-1.71.12-4.87.29-6.99.36-2.12.05-4.05.19-4.27.27-.24.1-.53.55-.68,1.06-.34,1.28-.72,9.43-.89,18.39l-.14,7.87-2.44.14c-1.35.1-4.12.24-6.17.31-2.05.1-3.98.27-4.29.36-.63.24-1.09,1.18-2.56,5.21-1.25,3.38-2.41,6.13-4.77,11.41-.94,2.05-2.41,5.43-3.28,7.48L0,57.91v2.77c-.02,1.69.1,3.23.31,3.98,1.01,3.57,3.26,6.06,6.51,7.14l1.4.48.14,6.54c.1,3.6.17,9.65.17,13.44s.12,10.76.24,15.47c.1,4.01.21,10,.25,14.4l.26,52.85c0,.98.8,1.77,1.78,1.77h22.53c.04.1,2.73.23,4.34.23h6.22l.22,1.25c.34,1.95-.05,1.91,13.53,1.62,6.34-.12,15.43-.29,20.21-.36,9.55-.17,9.38-.14,9.67-1.69l.14-.8,23.42.05c12.9.02,28.26-.07,34.15-.19,2.71-.06,12.5-.17,15.81-.2.49,0,.89-.4.89-.9v-67.88c.1-4.62.19-15.01.19-23.33l.02-15.32,1.3-.41c3.26-1.04,5.81-3.69,7.04-7.29.51-1.54.65-2.53.77-4.97.14-3.88-.05-4.54-3.74-12.88ZM150.73,52.53c.1.34-.17.41-1.88.53-1.64.1-10.2.39-14.64.48l-1.06.02-.55-2.65c-.92-4.37-3.62-16.46-4.56-20.32-.1-.41,0-.55.41-.63.31-.05,3.83-.12,7.84-.14l7.28-.02,1.25,3.91c.68,2.17,1.42,4.54,1.66,5.26.46,1.33,4.05,12.81,4.24,13.56ZM150.94,54.77l-.05,1.79c-.14,5.09-2.24,8.93-5.81,10.59-1.18.55-1.69.65-3.67.65s-2.46-.07-3.81-.7c-3.47-1.62-5.14-5.02-4.75-9.68l.17-2,1.71-.17c2.27-.19,12.06-.55,14.4-.51l1.81.02ZM27.95,4.56l.12-.75,4.65-.17c2.53-.1,5.72-.29,7.04-.39,1.33-.12,11.79-.34,23.27-.48,11.48-.14,23.9-.34,27.61-.46,10.01-.29,35.23-.29,39.86-.02,2.22.12,6.9.34,10.42.48,3.52.12,6.63.29,6.92.39,1.01.29,1.09,1.88.6,15.66-.14,4.51-.27,8.35-.29,8.49,0,.24-2.44.31-11.29.31-14.9,0-40.15.41-48.76.77-4.36.19-13.67.27-25.51.24-13.87-.05-20.72.05-26.72.31-4.44.19-8.2.31-8.32.24-.48-.31-.14-21.35.39-24.64ZM90,56.56c.48-.02,2.36-.12,4.15-.19,1.78-.1,5.88-.19,9.12-.22l5.88-.05-.17,1.62c-.48,4.87-2.8,8.49-6.49,10.23-4.17,1.95-9.19.48-11.74-3.47-1.18-1.83-1.66-3.52-1.66-5.94v-1.95l.92-.02ZM89.45,42.85l.19-11.85,4.97-.02c2.73-.02,5.96-.1,7.14-.19,3.11-.27,4.94-.29,4.94-.1,0,.1.27,2.58.58,5.5,1.35,11.99,1.93,17.98,1.76,18.12-.1.12-19.56.53-19.68.43-.05-.02,0-5.4.1-11.9ZM64.39,55.54s-2.82.19-6.2.31-7.69.29-9.6.39c-3.3.17-3.45.14-3.33-.29.24-.77,1.78-8.25,3.5-16.75l1.62-8.08,2.53-.14c1.4-.07,5.28-.14,8.66-.17l6.13-.05-.17,1.5c-.43,4.1-3.01,23.16-3.14,23.28ZM64.49,57.3v.77c0,1.35-.65,3.91-1.4,5.55-1.23,2.7-3.47,4.71-6.29,5.62-1.91.63-4.82.43-6.61-.43-3.21-1.59-5.23-5.19-5.23-9.29v-1.45l2.36-.17c2.46-.19,10.18-.48,14.59-.55l2.58-.05ZM6.49,48.74c2.58-5.6,3.76-8.44,5.79-13.99.51-1.33.96-2.49,1.06-2.58.19-.22,7.31-.6,11.91-.63,3.3-.05,3.57-.02,3.45.36-.05.24-.6,2.44-1.23,4.9-1.66,6.68-4.03,15.54-5.18,19.59-.14.48-.41.94-.6,1.01-.53.19-19.17.48-19.17.31,0-.22,1.47-3.55,3.98-8.98ZM7.67,70.16c-2.68-.82-4.68-3.14-5.43-6.27-.51-2.12-.6-4.05-.17-4.32.14-.1,4.41-.24,9.45-.34,5.06-.1,9.31-.17,9.43-.19.14-.02.39.05.58.17.55.36-.02,2.92-1.18,5.26-.75,1.5-1.33,2.29-2.53,3.4-2.15,1.98-3.79,2.58-6.87,2.58-1.25,0-2.73-.14-3.28-.29ZM87.88,165.54c0,.55-.41,3.23-1.5,9.7-.17.97-.36,1.88-.48,2.05-.12.22-2.19.34-7.96.43-4.29.1-12.78.29-18.88.46-6.1.19-11.5.24-11.99.14-.82-.14-.89-.24-1.13-1.3-.43-2.03-1.42-8.08-1.59-9.72l-.17-1.62,2.48-.17c5.31-.34,13.89-.53,27.3-.55l13.91-.05v.63ZM48.96,161.85c.72-.02.94.1,1.33.72.24.43.36.8.27.84-.27.07-2.46-1.13-2.46-1.38,0-.1.39-.17.87-.19ZM47.66,160.72c-1.35.27-3.47-1.47-4.39-3.62l-.48-1.16,1.13.17c.63.1,1.52.36,2,.6.94.48,1.81,1.35,2.75,2.77.77,1.16.84,1.69.17,1.33-.27-.12-.8-.17-1.18-.1ZM52.19,161.22c.02-2.61,1.01-5.6,2.36-7.19.55-.7.65-.72.8-.31.1.27.19.89.19,1.45.02,1.42-.77,3.55-1.95,5.16-1.13,1.57-1.4,1.74-1.4.89ZM59.26,162.26c.24.39.55.72.68.72.14,0,.17.1.1.24-.07.12-.87.24-1.76.24h-1.59l.94-.97c.51-.53,1.01-.97,1.09-.97s.34.31.55.72ZM58.7,157.75c0-.72.19-.7,1.35.17,1.45,1.04,3.21,4.92,2.39,5.24-.14.05-.82-.43-1.52-1.06-1.28-1.16-2.22-3.02-2.22-4.34ZM64.56,150.46c.82.36.92.68.29,1.06-.29.19-.51.1-.87-.34-.63-.75-.58-1.35.17-2.34.7-.92,1.3-1.06,1.3-.34,0,.31-.29.6-.84.82-1.04.46-1.06.68-.05,1.13ZM65.69,159.51c.7-1.66,1.83-3.09,3.01-3.72.75-.43.8-.36.55.97-.27,1.42-1.25,3.33-1.74,3.33-.17,0-.82.43-1.45.99-1.35,1.18-1.42.92-.39-1.57ZM70.59,162.48c.68-.55.82-.55,1.11,0,.31.55.12.75-.7.75-.89,0-1.04-.24-.41-.75ZM76.06,160.98c-1.35-2.03-1.98-4.22-1.54-5.36.24-.63.65-.31,1.4,1.11.75,1.35,1.42,4.34,1.13,5.09-.12.34-.31.19-.99-.84ZM86.43,161.63c0,.27-2.22,1.35-2.75,1.35-.75,0-.77-.1-.19-.84.34-.48.63-.58,1.69-.6.68,0,1.25.05,1.25.1ZM86.19,158.93c1.71-1.42,4.1-2.22,4.1-1.38,0,.22-.53.92-1.21,1.57-1.13,1.16-1.23,1.21-2.53,1.21-1.62,0-1.69-.29-.36-1.4ZM83.76,159.05c-.14.51-.6,1.35-.96,1.86l-.7.97v-.68q0-.77-1.91.77c-.75.63-.99.72-.99.41,0-.82,4.58-5.09,4.77-4.49.05.14-.05.68-.22,1.16ZM81.49,162.72c-.07.14-.34.27-.55.27-.36-.02-.36-.05.05-.36.51-.39.77-.31.51.1ZM148.17,169.11c-.51.51-40.78,1.18-41.09.68-.29-.46-.63-13.66-.87-34.67-.14-11.29-.41-27.46-.6-35.95-.19-8.49-.36-16.77-.36-18.39v-2.92l.77-.17c1.76-.39,30.27-.72,37.4-.43l4,.14.12,1.23c.22,2.22.43,18.53.51,39.23.05,11.22.12,27.29.17,35.76.02,8.44.02,15.42-.05,15.49ZM160.66,92.87l-.21,12.92v62.22c0,.46-.37.83-.83.84l-8.67.11c-.35,0-.64-.27-.65-.62-.05-4.19-.34-28.37-.47-46.97-.29-41.48-.36-44.52-1.01-45.17-.41-.41-1.52-.43-19.9-.41-19.63.05-24.48.22-24.94.84-.24.34-.22,2.65.29,29.65.12,6.97.36,23.74.51,37.28.17,13.54.29,25,.31,25.46l.02.84-1.81.19c-1.01.12-1.95.34-2.17.55-.24.24-.34.94-.36,2.51v2.17h-12.42v-.92c0-.48.17-1.81.39-2.94,1.45-7.91,1.42-8.08-.84-8.35l-1.42-.14.75-.65c.43-.36,1.35-1.09,2.07-1.59,2.24-1.62,3.38-4.08,2.17-4.73-.94-.48-3.47.14-4.85,1.23l-.68.51v-.58c0-.77-.58-1.23-1.3-1.04-.84.22-3.04,1.74-4.05,2.85-.51.53-.92.87-.92.72,0-.36.96-3.43,1.42-4.46.36-.84.46-.92,1.11-.8.6.12.92,0,1.64-.68.58-.53.89-1.04.89-1.42s.19-.75.48-.89c1.01-.53.8-2.17-.27-2.17-.39,0-.46-.19-.46-1.16,0-1.83-.82-2.24-2.15-1.11-.41.34-.75.77-.75.97,0,.43-.34.43-.72-.02-.82-.99-2.19.24-1.74,1.54.19.55.17.77-.1,1.01-.7.58-.31,2.34.7,3.14.48.39.48.41-.48,3.33l-.96,2.94-.41-1.52c-.24-.84-.7-2.05-1.06-2.68-.6-1.11-2.12-2.58-2.68-2.58-.43,0-.99,1.06-1.13,2.22-.22,1.5.22,3.14,1.47,5.69.58,1.16,1.01,2.12.96,2.17-.02.02-.48-.02-.99-.14-.82-.17-.94-.29-1.01-.89-.05-.41-.34-.97-.68-1.28-.31-.31-.58-.72-.58-.92,0-.27-.22-.34-.89-.29-.8.07-.92.14-.84.65.14.89-.17,1.71-.63,1.71-.22,0-.84.27-1.37.6-.94.58-2.29.82-2.29.41,0-.12.92-1.09,2.03-2.17,1.59-1.54,2.12-2.2,2.44-3.16.51-1.52.41-3.62-.19-3.98-.94-.6-3.86,1.71-5.18,4.15l-.7,1.28-.14-1.16c-.07-.63-.22-2.05-.31-3.16l-.17-1.98h.65c.77,0,1.83-.99,1.83-1.69,0-.29-.12-.75-.27-1.01-.22-.39-.17-.68.17-1.28.36-.68.39-.92.14-1.42-.29-.68-1.18-.84-1.69-.34-.22.22-.31.17-.43-.19-.72-2-2.75-2.03-3.11-.02-.12.63-.31.84-.92,1.04-1.37.41-1.52,2.03-.22,2.63.41.19.53.43.53,1.23,0,1.18.43,1.64,1.45,1.5.43-.07.75,0,.82.19.07.17.19,1.71.29,3.4l.17,3.09-1.11-1.5c-1.66-2.24-3.71-3.26-4.87-2.39-.43.31-.43.39.17,2.22l.65,1.91-.53.36c-.29.19-1.06.92-1.71,1.62-1.04,1.11-1.3,1.28-2.1,1.28-.53,0-.94-.07-.94-.19,0-.1.6-.99,1.37-1.98,1.86-2.49,2.32-3.57,2.44-5.96.12-2.2,0-2.99-.58-3.55-.51-.53-.68-.48-1.66.36-1.16,1.04-2.05,2.61-2.68,4.78l-.53,1.83-.27-.97c-.41-1.57-.94-4.25-1.11-5.74l-.17-1.38h.72c.84,0,1.11-.29,1.45-1.5.22-.77.17-.99-.22-1.5-.39-.48-.41-.7-.22-1.23.14-.36.19-.87.1-1.13-.19-.63-1.21-.99-1.81-.68-.39.22-.6.12-1.25-.58-.63-.65-.92-.8-1.47-.7-.8.17-1.21,1.04-1.01,2.24.12.72.05.89-.39,1.09-.31.14-.7.53-.89.87-.31.58-.31.7.05,1.28.24.36.65.63.96.63.48,0,.55.1.46.82-.07.68.02.89.53,1.25.51.31.77.36,1.23.14.65-.29.6-.46,1.54,4.75l.46,2.51-1.35-1.52c-1.62-1.81-4.1-3.14-5.91-3.14-1.5,0-1.74.77-.99,2.99.48,1.38,3.42,4.49,5.31,5.6l1.18.7-2.24.17c-2.8.19-3.35.31-3.52.87-.19.53.51,5.81.8,6.18.12.14.29,1.21.39,2.36l.12,1.54H12.41c-.65,0-1.18-.52-1.18-1.17-.04-7.23-.25-45.47-.27-48.28,0-3.6-.12-9.14-.24-12.33-.6-14.89-.72-19.33-.72-29.51v-10.91h1.16c1.57,0,3.91-.6,5.4-1.35,1.64-.84,4.15-3.26,5.09-4.9.41-.75.8-1.16.84-.97.8,2.94,3.93,5.65,7.5,6.49,1.71.41,5.06.19,6.82-.43,2.68-.97,5.55-3.35,6.58-5.57.27-.53.53-.99.6-.97.07,0,.39.53.7,1.21,1.13,2.44,4.05,4.63,6.97,5.26,2.65.55,5.79.12,8.1-1.13,1.62-.87,3.76-3.06,4.63-4.73.39-.75.75-1.35.84-1.35.07,0,.36.51.68,1.13,2.63,5.43,9.98,7.62,15.87,4.8,2.15-1.04,3.76-2.51,5.14-4.68l1.13-1.74.94,1.59c1.16,1.98,2.58,3.26,4.8,4.29,2.46,1.16,4.94,1.52,7.21.99,3.14-.68,6.25-3.04,7.89-5.94l.8-1.45.7,1.47c.39.8,1.23,2,1.86,2.65,1.76,1.81,4.22,2.92,6.87,3.06,4.85.31,8.83-1.62,11.5-5.55l.99-1.45.65,1.3c1.88,3.67,6.49,5.84,10.83,5.07,3.35-.6,6.22-2.58,7.79-5.36.29-.51.6-.94.68-.94.1,0,.36.43.6.97,1.04,2.29,3.93,4.29,7.11,4.87l1.5.29-.1,23.4ZM81.01,151.19c.24.39-.1,1.42-.46,1.42s-.63-.51-.63-1.23c0-.51.82-.65,1.09-.19ZM80.07,149.14c.19-.51.82-.05.82.6,0,.27-.1.46-.22.46-.39,0-.75-.65-.6-1.06ZM83.78,150.32c.46-.55,1.01-.46.92.17-.05.34-.29.58-.68.68-.46.12-.6.31-.6.75,0,.63-.48,1.42-.87,1.42-.29,0-.27-1.38.02-1.57.41-.27.27-.89-.27-1.01-.55-.14-.51-.72.19-2.2.36-.77.65-.97.89-.55.07.12-.02.6-.22,1.09-.19.46-.36,1.01-.36,1.23,0,.46.58.46.96,0ZM61.98,150.83c.53-.55.82-.48.82.19s-.63,1.42-.99,1.23c-.34-.22-.27-1.01.17-1.42ZM61.09,149.96c-.58,0-.7-.1-.7-.6,0-.7.7-.82,1.3-.22.51.51.29.82-.6.82ZM62.54,148.29c-.24-.31-.46-.82-.46-1.16,0-.48.1-.58.55-.51.39.05.55.27.6.75.05.39.02.87-.07,1.09-.14.36-.22.34-.63-.17ZM50.72,148.24c.39.27.14,1.23-.34,1.23-.36,0-1.09-.63-1.09-.94,0-.51.82-.68,1.42-.29ZM49.61,145.9c.34-.46.89-.34.89.17,0,.72-.7,1.33-1.11.97-.31-.27-.29-.48.22-1.13ZM46.96,148.58c-.89.17-1.5-.36-1.04-.89.36-.46.29-.43,1.06-.14.82.31.8.87-.02,1.04ZM47.34,144.65c.14,0,.41.24.6.53.75,1.06.29,2.17-.53,1.35-.34-.34-.39-1.88-.07-1.88ZM47.54,149.38c.36-.51.48-.53.77-.27.22.19.27.55.17.94-.1.41-.31.63-.65.63-.68,0-.82-.6-.29-1.3Z"/>
        <path class="cls-1" d="M141.18,138.42c-.77-.53-.89-.53-7.81-.48-3.86,0-9.28.12-12.08.22-6.97.24-8.08.34-8.49.77-.24.24-.41,1.04-.48,2.36-.19,3.28.36,20.97.68,22.01.48,1.47.6,1.47,14.49,1.18,12.08-.27,13.38-.36,13.14-1.09-.07-.22-3.33-.29-13.26-.27l-13.19.05-.02-1.38c0-.75-.05-1.69-.07-2.08-.05-.41-.14-4.8-.24-9.77-.1-4.97-.22-9.27-.27-9.55-.12-.48-.02-.51,5.14-.65,2.87-.1,8.87-.24,13.31-.31s8.39-.24,8.78-.36c.58-.17.65-.14.53.17-.07.22-.17,5.55-.17,11.85-.02,11.58.02,12.47.82,11.7.22-.24.31-2.9.36-11.27.02-6.03-.02-11.34-.14-11.75-.12-.48-.51-1.01-1.01-1.35Z"/>
        <path class="cls-1" d="M142.65,81.6c-.34-.34-23.34-.48-28.65-.17-2.12.12-3.09.27-3.55.55l-.63.41v5.5c0,6.2.65,32.45.87,34.72.24,2.58-1.42,2.36,15.92,2.08,9.41-.17,15.41-.36,15.82-.51q1.25-.51,1.06-20.82c-.17-18.58-.27-21.18-.84-21.76ZM138.98,123.03c-4.51.19-26.07.55-26.53.43-.31-.07-.41-.97-.68-6.15-.68-14.12-.75-16.41-.75-25.21v-9.22l1.28-.02c.68-.02,2.29-.12,3.54-.22,3.04-.24,25.71-.17,25.97.07.1.12.22,9.19.29,20.2l.07,19.98-3.21.14Z"/>
      </g>
    </g>
  </g>
</svg>