<?xml version="1.0" encoding="UTF-8"?>
<svg id="Capa_2" data-name="Capa 2" xmlns="http://www.w3.org/2000/svg" viewBox="0 0 180 157.86">
  <defs>
    <style>
      .cls-1 {
        fill: #e26088;
      }
    </style>
  </defs>
  <g id="Capa_1-2" data-name="Capa 1">
    <g>
      <path class="cls-1" d="M174.36,125c-1.63,1.7-4.18,2.33-6.6,2.98-34.45,9.86-99.61,24.5-99.89,24.56-3.29.78-7.03,1.67-9.65.71-2.4-.93-4.14-2.81-4.66-5.06-5.17-22.05-6.18-22.68-15.37-66.26.07-.82-.87-2.96,2.82-4.78,4.61-1.93,108.55-25.8,108.84-25.86,6.43-1.3,10.16,1.65,10.88,5.16.07.28,13.67,57.78,14.05,59.16.91,3.36,1.96,7-.42,9.38ZM13.16,79.74c-3.04-1.48-6.48-3.17-7.91-5.59-1.27-2.21-1.41-4.78-.38-6.86.36-.74-2.62,5.58,15.67-32.84l61.31,28.35c-8.32,1.94-35.01,8.11-41.51,10.17l-24.21-11.33c-1.05-.49-2.29-.03-2.78,1.01-.49,1.05-.04,2.29,1.01,2.78l21.79,10.19c-1.6,1.69-2.45,3.6-2.14,6.21-.01.81.1.95,1.88,9.26-27.13-13.58-22.11-11.06-22.73-11.37ZM34.68,6.62c.45-.35,1.08-3.24,5.42-2.23,5.52,1.66,78.65,38.39,94.61,46.21-3.89.9-8.39,1.93-22.63,5.19L29.13,17.44c1.87-3.65,3.73-7.28,5.55-10.82ZM164.81,55.55c-1.18-5.75-7.05-10.12-15.83-8.35-1.06.23-1.41.38-7.76,1.88l-.05-.02C128.12,42.91,47.74,2.24,41.17.34c-4.31-1.03-7.95.22-10.12,4.2C10.41,44.55,10.43,46.29,1.11,65.44c-1.65,3.33-1.46,7.37.51,10.82,2.08,3.53,6.12,5.51,9.69,7.25,2.03.99-6.74-3.39,25.7,12.85,7.39,34.25,7.12,29.9,12.47,52.79,1.06,4.64,5.44,8.72,11.47,8.72,8.89,0,105.2-25.06,108.2-25.92,3.69-1,6.83-1.97,9.16-5.16,2.77-3.85,1.51-8.51.5-12.26-.61-2.27-13.94-58.69-14-58.97Z"/>
      <path class="cls-1" d="M80.94,118.6c-.26-1.13-1.39-1.84-2.51-1.57l-16.66,3.88c-1.12.26-1.82,1.39-1.56,2.51.26,1.14,1.4,1.83,2.51,1.57l16.66-3.88c1.12-.26,1.82-1.39,1.56-2.51Z"/>
      <path class="cls-1" d="M98.28,125.66l-33.33,7.77c-1.12.26-1.82,1.39-1.56,2.51.26,1.14,1.4,1.83,2.51,1.57l33.33-7.77c1.12-.26,1.82-1.39,1.56-2.51-.26-1.13-1.38-1.83-2.51-1.57Z"/>
      <path class="cls-1" d="M20.93,53.22c17.42,8.12,16.65,8.04,17.53,8.04,2.24,0,2.9-3.05.89-3.99l-16.64-7.84c-1.05-.5-2.29-.04-2.78,1-.49,1.05-.04,2.3,1,2.79Z"/>
      <path class="cls-1" d="M138.12,87.77c4.9-6.36.4-15.57-7.42-16.1-9.12-.6-14.96,9.9-7.67,17.6,3.77,3.98,11.23,3.5,15.09-1.5Z"/>
      <path class="cls-1" d="M160.55,114.95l-44.49,9.88c-1.49.33-2.83-.98-2.58-2.29l.04-.16c5.14-16.26,35.39-24.01,48.04-11.04,1.18,1.22.63,3.24-1.01,3.61ZM109.57,121.02l-.08.24c-1.26,4.51,2.93,8.66,7.47,7.66l44.49-9.88c4.86-1.08,6.55-7.06,3.11-10.61-14.52-15.05-48.72-6.89-54.99,12.59Z"/>
      <path class="cls-1" d="M64.2,108.43c23.01-5.51,19.21-4.69,21.07-5.01,2.71-.48,5.38-1.05,6.6-3.5,1.21-2.59.22-5.84-.57-8.45-.69-2.29-.25-.89-2.15-8.69-1.33-5.58-4.9-5.71-6.91-5.29-2.64.56-20.87,5.07-23.39,5.56-1.29.25-2.63.5-3.89,1.01-3.95,1.58-2.61,5.8-2.04,7.6.47,1.47.18.63,3.05,12.52.99,4.58,3.68,5.47,8.25,4.25Z"/>
      <path class="cls-1" d="M150.02,13.22c-1.11-.23-2.24.47-2.49,1.6l-2.28,10.43c-.29,1.31.71,2.54,2.05,2.54.96,0,1.82-.67,2.04-1.64l2.28-10.44c.25-1.13-.47-2.25-1.6-2.49Z"/>
      <path class="cls-1" d="M154.25,32.52l9.31-3.73c1.07-.43,1.6-1.65,1.17-2.72-.43-1.08-1.65-1.59-2.72-1.17l-9.31,3.73c-1.07.43-1.6,1.65-1.17,2.72.43,1.07,1.64,1.6,2.72,1.17Z"/>
    </g>
  </g>
</svg>